<?xml version="1.0" encoding="UTF-8" standalone="no"?>
<!-- Created with Inkscape (http://www.inkscape.org/) -->

<svg
   version="1.1"
   id="svg578"
   width="880"
   height="880"
   viewBox="0 0 880 880"
   sodipodi:docname="chocolate-cake-graphics-pdv.svg"
   inkscape:version="1.2 (dc2aedaf03, 2022-05-15)"
   xmlns:inkscape="http://www.inkscape.org/namespaces/inkscape"
   xmlns:sodipodi="http://sodipodi.sourceforge.net/DTD/sodipodi-0.dtd"
   xmlns="http://www.w3.org/2000/svg"
   xmlns:svg="http://www.w3.org/2000/svg">
  <defs
     id="defs582">
    <clipPath
       clipPathUnits="userSpaceOnUse"
       id="clipPath594">
      <path
         d="M 0,660 H 660 V 0 H 0 Z"
         id="path592" />
    </clipPath>
  </defs>
  <sodipodi:namedview
     id="namedview580"
     pagecolor="#ffffff"
     bordercolor="#000000"
     borderopacity="0.25"
     inkscape:showpageshadow="2"
     inkscape:pageopacity="0.0"
     inkscape:pagecheckerboard="0"
     inkscape:deskcolor="#d1d1d1"
     showgrid="false"
     inkscape:zoom="0.95113636"
     inkscape:cx="441.05137"
     inkscape:cy="440.52569"
     inkscape:window-width="1920"
     inkscape:window-height="1017"
     inkscape:window-x="-8"
     inkscape:window-y="-8"
     inkscape:window-maximized="1"
     inkscape:current-layer="g586">
    <inkscape:page
       x="0"
       y="0"
       id="page584"
       width="880"
       height="880" />
  </sodipodi:namedview>
  <g
     id="g586"
     inkscape:groupmode="layer"
     inkscape:label="Page 1"
     transform="matrix(1.3333333,0,0,-1.3333333,0,880)">
    <g
       id="g588">
      <g
         id="g590"
         clip-path="url(#clipPath594)">
        <g
           id="g596"
           transform="translate(347.9785,102.665)">
          <path
             d="m 0,0 c 113.02,0 205.2,29.019 205.2,64.599 0,35.58 -92.18,64.599 -205.2,64.599 -113.019,0 -205.199,-29.019 -205.199,-64.599 C -205.199,29.019 -113.019,0.001 0,0"
             style="fill:#e6e6e6;fill-opacity:1;fill-rule:evenodd;stroke:none"
             id="path598" />
        </g>
        <g
           id="g600"
           transform="translate(315.3179,500.2256)">
          <path
             d="m 0,0 c 103.64,0 187.657,-84.017 187.657,-187.657 0,-54.877 -23.562,-104.246 -61.113,-138.559 -3.292,-3.006 -5.316,-6.466 -6.324,-10.81 -2.279,-9.836 -11.26,-18.283 -20.765,-21.123 -3.025,-0.904 -6.453,-0.843 -9.744,-0.002 -4.783,1.224 -9.259,0.85 -13.774,-1.151 -8.441,-3.74 -17.208,-6.876 -26.251,-9.351 -4.806,-1.317 -8.541,-3.897 -11.476,-7.922 -1.298,-1.781 -2.944,-3.297 -5.011,-4.399 -9.455,-5.037 -21.016,-3.505 -30.946,-0.818 -5.128,1.389 -11.076,2.91 -16.198,5.514 -2.367,1.201 -4.573,1.861 -7.209,2.158 -18.118,2.031 -35.458,6.637 -51.638,13.449 -6.778,2.854 -13.402,3.402 -20.558,1.703 -11.343,-2.689 -23.767,3.776 -31.988,11.215 -6.507,5.887 -13.406,15.051 -14.02,24.346 -0.466,7.08 -2.779,13.033 -7.213,18.574 -25.707,32.107 -41.086,72.844 -41.086,117.176 C -187.657,-84.017 -103.64,0 0,0"
             style="fill:#663c12;fill-opacity:1;fill-rule:evenodd;stroke:none"
             id="path602" />
        </g>
        <g
           id="g604"
           transform="translate(315.3179,500.2256)">
          <path
             d="m 0,0 c 79.717,0 147.814,-49.708 175.009,-119.817 11.01,-28.383 14.868,-59.155 11.397,-89.502 -4.971,-43.25 -24.652,-82.018 -53.901,-111.197 l 0.001,-0.002 -0.445,-0.442 c -0.439,-0.434 -0.88,-0.867 -1.322,-1.297 -0.627,-0.611 -1.26,-1.219 -1.897,-1.82 -0.291,-0.276 -0.583,-0.55 -0.876,-0.824 -0.47,-0.441 -0.945,-0.878 -1.422,-1.315 -3.292,-3.006 -5.316,-6.466 -6.324,-10.81 -2.279,-9.836 -11.26,-18.283 -20.765,-21.123 -3.025,-0.904 -6.453,-0.843 -9.744,-0.002 -4.602,1.178 -8.921,0.876 -13.262,-0.931 -0.646,-0.287 -1.295,-0.565 -1.943,-0.846 l -0.156,-0.067 -0.398,-0.172 -0.084,-0.036 c -1.1,-0.472 -2.205,-0.932 -3.317,-1.384 l -0.771,-0.312 c -1.004,-0.402 -2.012,-0.794 -3.025,-1.181 l -0.963,-0.365 c -1.011,-0.377 -2.026,-0.748 -3.046,-1.111 l -1.044,-0.364 c -0.99,-0.347 -1.984,-0.683 -2.981,-1.012 l -1.089,-0.353 c -1,-0.323 -2.006,-0.639 -3.013,-0.945 l -1.141,-0.342 c -0.988,-0.294 -1.98,-0.576 -2.972,-0.855 l -0.82,-0.226 c -4.806,-1.317 -8.541,-3.897 -11.476,-7.922 -1.298,-1.781 -2.944,-3.297 -5.011,-4.399 -9.455,-5.037 -21.016,-3.505 -30.946,-0.818 -5.128,1.389 -11.076,2.91 -16.198,5.514 -2.137,1.086 -4.145,1.728 -6.454,2.062 -10.425,1.129 -20.593,3.112 -30.435,5.875 94.685,-3.68 149.616,30.785 170.725,97.698 7.006,22.203 -17.107,36.485 -38.564,20.76 -39.119,-28.675 -91.401,-27.129 -128.75,3.819 l -1.132,0.938 c -7.213,5.979 -16.26,8.91 -25.602,7.697 -18.859,-2.449 -37.943,3.129 -52.196,15.754 -11.109,9.84 -25.379,13.658 -39.83,10.112 -6.758,-1.661 -13.486,-1.762 -19.916,-0.362 -1.026,7.946 -1.558,16.043 -1.558,24.268 C -187.657,-84.017 -103.64,0 0,0"
             style="fill:#4d2b0a;fill-opacity:1;fill-rule:evenodd;stroke:none"
             id="path606" />
        </g>
        <g
           id="g608"
           transform="translate(315.3179,520.2358)">
          <path
             d="m 0,0 c 107.229,0 195.478,-81.27 206.507,-185.574 0.886,-8.384 -2.429,-16.013 -9.158,-21.091 -2.098,-1.582 -4.341,-2.778 -6.674,-3.577 -9.869,-3.386 -17.944,-8.9 -24.148,-16.479 -12.123,-14.804 -30.215,-21.709 -48.301,-19.189 -16.91,2.357 -32.343,-1.515 -46.019,-11.541 -33.454,-24.52 -77.845,-23.204 -109.786,3.256 l -1.131,0.938 c -10.897,9.026 -24.222,12.833 -37.434,11.117 -15.029,-1.951 -29.326,2.566 -39.979,12.002 -15.182,13.449 -34.615,18.244 -53.74,13.545 -8.359,-2.053 -16.363,-0.545 -23.399,4.414 -7.037,4.957 -11.153,11.984 -12.033,20.547 -0.687,6.681 -0.394,13.554 0.872,20.657 C -187.098,-73.787 -102.17,0 0,0"
             style="fill:#ff6666;fill-opacity:1;fill-rule:evenodd;stroke:none"
             id="path610" />
        </g>
        <g
           id="g612"
           transform="translate(315.3179,520.2358)">
          <path
             d="m 0,0 c 71.789,0 135.067,-36.432 172.364,-91.81 7.152,-15.496 11.955,-32.185 13.957,-49.716 0.355,-3.112 -0.827,-5.628 -3.526,-7.512 -0.811,-0.568 -1.708,-1.037 -2.673,-1.344 -11.63,-3.694 -21.69,-9.887 -29.486,-18.704 -8.42,-9.52 -21.139,-14.397 -34.333,-12.695 -19.808,2.556 -38.322,-1.708 -54.459,-12.659 -27.313,-18.54 -63.431,-17.555 -89.509,2.456 l -1.095,0.841 c -13.033,9.999 -29.825,14.779 -46.662,12.755 -10.132,-1.218 -20.241,1.401 -27.91,7.691 -17.693,14.513 -41.291,20.172 -64.279,14.942 -4.265,-0.97 -7.968,-0.323 -11.557,2.019 -3.591,2.341 -5.495,5.352 -5.944,9.396 -0.555,5.003 -0.248,10.063 0.704,15.008 2.537,13.183 6.662,25.792 12.161,37.683 C -134.941,-36.36 -71.72,0 0,0"
             style="fill:#ffadad;fill-opacity:1;fill-rule:evenodd;stroke:none"
             id="path614" />
        </g>
        <g
           id="g616"
           transform="translate(174.4136,231.4863)">
          <path
             d="m 0,0 c -4.531,-3.285 -10.834,-8.639 -9.262,-14.012 2.326,-7.959 10.133,-15.363 18.287,-16.863 11.607,-2.133 24.938,0.461 34.676,7.125 4.707,3.223 4.288,12.656 0.711,17.102 C 38.463,0.744 28.624,5.246 19.238,6.65 12.527,7.656 5.494,3.984 0,0 M 63.176,25.174 C 57.005,23.346 54.568,12.266 57.713,6.648 c 4.988,-8.907 15.252,-16.084 25.412,-17.099 7.153,-0.716 14.343,6.29 17.338,12.824 2.257,4.924 0.345,12.851 -4.275,15.676 C 86.584,23.922 73.97,28.37 63.176,25.174 M 33.252,-43.699 c -8.365,2.568 -21.738,0.183 -25.027,-7.928 -3.553,-8.76 4.241,-19.693 11.252,-26.035 7.313,-6.619 18.648,-12.563 28.025,-9.5 7.115,2.324 9.933,14.023 7.6,21.137 -3.245,9.894 -11.896,19.267 -21.85,22.326 m 36.098,-7.602 c -3.374,-10.494 -3.405,-26.682 5.937,-32.535 9.28,-5.812 23.432,1.718 31.588,9.023 6.61,5.921 9.809,17.193 7.125,25.651 -2.9,9.137 -11.801,19.694 -21.375,19.236 -10.52,-0.501 -20.05,-11.345 -23.275,-21.375 m 85.738,15.914 c -2.123,-11.424 1.549,-27.448 11.875,-32.777 10.246,-5.283 24.877,1.581 33.249,9.5 5.771,5.459 5.603,16.725 1.901,23.75 -5.036,9.562 -14.369,20.534 -25.175,20.426 -10.077,-0.102 -20.009,-10.991 -21.85,-20.899 m -19.421,-44.388 c -6.942,-2.46 -16.549,-9.637 -14.47,-16.702 2.571,-8.73 14.7,-11.541 23.483,-13.919 8.586,-2.327 18.833,-3.846 26.684,0.337 5.395,2.875 6.491,11.121 6.286,17.232 -0.173,5.19 -2.363,12.214 -7.324,13.755 -11.034,3.431 -23.767,3.156 -34.659,-0.703 m 93.999,20.768 c -4.615,-5.436 -9.118,-13.465 -6.914,-20.248 1.815,-5.589 10.307,-9.222 15.939,-7.541 7.725,2.308 15.281,9.433 16.862,17.34 1.294,6.47 -3.856,14.629 -9.974,17.098 -5.331,2.152 -12.195,-2.267 -15.913,-6.649 m 2.372,37.87 c 5.101,-9.849 16.04,-20.137 27.075,-19 12.726,1.312 24.543,13.171 28.974,25.174 4.284,11.599 5.095,31.489 -6.173,36.576 -14.913,6.729 -35.08,-1.704 -47.501,-12.351 -7.716,-6.614 -7.048,-21.375 -2.375,-30.399 m -248.899,66.26 c -5.039,-3.084 -10.567,-8.588 -10.214,-14.486 0.355,-5.932 6.271,-11.325 11.876,-13.301 5.463,-1.924 12.646,-0.615 17.099,3.088 3.473,2.888 3.637,8.9 2.614,13.299 -1.055,4.519 -4.22,8.98 -8.313,11.164 -3.844,2.047 -9.348,2.511 -13.062,0.236"
             style="fill:#d18f4d;fill-opacity:1;fill-rule:evenodd;stroke:none"
             id="path618" />
        </g>
        <g
           id="g620"
           transform="translate(174.7866,212.375)">
          <path
             d="m 0,0 c 1.726,-4.088 6.185,-8.186 10.391,-8.959 8.788,-1.617 19.141,0.232 26.737,5.092 0.183,1.08 -0.111,2.996 -0.575,3.654 C 32.113,5.305 24.297,8.582 17.441,9.607 13.628,10.178 8.225,6.824 5.27,4.682 4.128,3.854 1.172,1.59 0,0 m 66.349,28.636 c -0.672,-1.209 -1.022,-3.879 -0.622,-4.829 3.432,-6.132 10.919,-11.527 17.981,-12.232 2.607,-0.261 6.694,5.194 7.63,7.23 0.289,0.805 -0.117,2.893 -0.705,3.607 -6.588,3.997 -16.433,8.084 -24.284,6.224 M 43.968,-65.617 c 1.783,1.469 2.298,7.015 1.627,9.06 -2.246,6.852 -8.535,13.981 -15.538,16.131 -2.055,0.629 -4.608,0.676 -6.725,0.406 -1.41,-0.175 -5.952,-1.226 -6.574,-2.757 -1.675,-4.129 6.033,-12.799 8.795,-15.297 4.045,-3.66 12.633,-9.266 18.415,-7.543 m 34.159,23.838 c -0.977,-3.039 -1.509,-6.407 -1.594,-9.596 -0.087,-3.188 0.374,-9.908 3.484,-11.856 0.254,-0.158 0.522,-0.279 0.807,-0.368 5.47,-1.714 15.402,4.948 19.266,8.409 3.778,3.384 5.919,10.722 4.376,15.582 -1.295,4.076 -6.832,12.781 -11.755,12.544 -6.469,-0.309 -12.774,-9.091 -14.584,-14.715 m 86.038,17.098 c -1.193,-6.42 0.336,-19.128 6.832,-22.479 6.35,-3.275 17.709,3.656 22.239,7.941 2.529,2.394 1.464,9.512 0.002,12.287 -2.77,5.257 -9.87,15.364 -16.576,15.295 -5.515,-0.055 -11.563,-8.021 -12.497,-13.044 m -33.799,-57.268 c 2.242,-3.219 13.54,-5.92 16.452,-6.707 5.496,-1.49 14.133,-3.264 19.481,-0.548 1.245,1.522 1.431,6.763 1.371,8.516 -0.038,1.178 -0.475,3.895 -1.259,5.106 -8.904,2.596 -19.195,2.295 -27.907,-0.791 -1.995,-0.707 -6.751,-3.361 -8.138,-5.576 m 101.094,18.348 c 0.741,-0.845 3.147,-1.727 4.107,-1.523 4.188,1.251 9.3,5.576 10.187,10.014 0.357,1.775 -2.068,5.139 -3.804,6.133 -1.677,-0.305 -4.387,-2.677 -5.328,-3.788 -1.722,-2.027 -5.841,-7.835 -5.162,-10.836 m 8.739,59.346 c 2.851,-5.505 10.638,-14.573 17.556,-13.86 9.163,0.944 17.905,10.712 20.944,18.944 1.283,3.474 2.025,7.449 2.254,11.142 0.185,2.981 0.052,11.799 -3.367,13.343 -0.616,0.278 -1.25,0.514 -1.897,0.713 -11.399,3.502 -26.884,-4.305 -35.394,-11.601 -4.198,-3.598 -2.329,-14.37 -0.096,-18.681 M -5.05,39.955 c 0.287,1.098 0.037,3.156 -0.17,4.049 -0.416,1.783 -1.829,3.984 -3.474,4.863 -0.787,0.42 -2.717,0.875 -3.521,0.522 -1.43,-0.875 -5.43,-3.955 -5.637,-5.713 0.157,-1.805 3.933,-4.27 5.474,-4.813 2.102,-0.74 5.389,-0.213 7.328,1.092"
             style="fill:#f5b575;fill-opacity:1;fill-rule:evenodd;stroke:none"
             id="path622" />
        </g>
        <g
           id="g624"
           transform="translate(283.1567,448.7451)">
          <path
             d="M 0,0 C 12.594,9.702 31.501,22.548 19.015,40.581 7.28,57.531 -17.706,53.064 -34.464,48.193 -66.722,36.84 -94.57,17.864 -115.505,-9.335 c -13.172,-17.805 -22.862,-43.032 4.442,-53.311 20.929,-7.879 42.032,0.401 57.949,14.575 C -35.556,-32.435 -18.151,-14.576 0,0"
             style="fill:#ffe8e8;fill-opacity:1;fill-rule:evenodd;stroke:none"
             id="path626" />
        </g>
        <g
           id="g628"
           transform="translate(307.3794,483.9438)">
          <path
             d="m 0,0 c -12.968,-3.513 -9.9,-21.216 -0.321,-24.792 30.953,-11.557 62.069,-20.604 88.178,-45.291 9.223,-8.721 43.724,-10.73 54.146,-2.318 12.145,9.799 7.854,29.32 -7.7,47.198 C 104.679,8.85 44.677,12.104 0,0"
             style="fill:#ff6666;fill-opacity:1;fill-rule:evenodd;stroke:none"
             id="path630" />
        </g>
        <g
           id="g632"
           transform="translate(246.7505,350.0415)">
          <path
             d="m 0,0 c 15.307,0 27.789,8.055 27.789,17.931 0,9.876 -12.482,17.931 -27.789,17.931 -15.305,0 -27.787,-8.055 -27.787,-17.931 C -27.787,8.055 -15.305,0 0,0"
             style="fill:#ffe8e8;fill-opacity:1;fill-rule:evenodd;stroke:none"
             id="path634" />
        </g>
        <g
           id="g636"
           transform="translate(405.085,590.915)">
          <path
             d="m 0,0 c -22.503,6.691 -38.929,38.2 -71.954,10.984 -30.984,-25.533 -28.816,-82.662 -19.694,-122.598 5.077,-22.223 32.845,-19.795 48.192,-26.672 16.294,-7.3 30.711,-22.501 57.618,-13.329 35.582,12.126 74.659,77.926 61.109,118.831 C 61.614,8.45 27.025,-8.036 0,0"
             style="fill:#cc3300;fill-opacity:1;fill-rule:evenodd;stroke:none"
             id="path638" />
        </g>
        <g
           id="g640"
           transform="translate(405.085,590.915)">
          <path
             d="m 0,0 c -9.418,2.801 -17.772,9.948 -26.725,15.318 8.36,-6.362 13.932,-11.994 17.958,-17.418 -10.101,1.88 -18.268,0.565 -19.606,-3.631 -1.657,-5.201 7.795,-12.857 21.112,-17.1 13.317,-4.243 25.455,-3.467 27.114,1.734 0.162,0.51 0.215,1.044 0.17,1.596 10.065,-3.985 18.248,-10.981 24.192,-20.745 7.887,-12.957 9.633,-27.179 5.114,-41.659 -5.524,-17.704 -15.104,-32.26 -26.984,-45.029 -13.948,-14.991 -35.185,-18.956 -53.602,-10.007 -9.946,4.832 -19.926,6.467 -31.054,5.111 l -3.536,-0.432 c 7.947,-1.983 16.186,-3.243 22.391,-6.024 16.294,-7.3 30.711,-22.501 57.618,-13.329 35.582,12.126 74.659,77.926 61.109,118.831 C 61.614,8.45 27.025,-8.036 0,0"
             style="fill:#ad2b00;fill-opacity:1;fill-rule:evenodd;stroke:none"
             id="path642" />
        </g>
        <g
           id="g644"
           transform="translate(327.5835,492.792)">
          <path
             d="M 0,0 C -28.983,31.418 -7.518,108.698 25.404,91.088 53.285,76.174 36.314,-28.685 2.894,-2.284 Z"
             style="fill:#f24b13;fill-opacity:1;fill-rule:evenodd;stroke:none"
             id="path646" />
        </g>
      </g>
    </g>
  </g>
</svg>
