<?xml version="1.0" encoding="UTF-8"?>
<svg width="32px" height="32px" viewBox="0 0 32 32" version="1.1" xmlns="http://www.w3.org/2000/svg" xmlns:xlink="http://www.w3.org/1999/xlink">
    <title>Glyph/Sensor/Contact Switch</title>
    <g id="Page-1" stroke="none" stroke-width="1" fill="none" fill-rule="evenodd">
        <g id="01-OS3-Icons-map-to-OS-Next" transform="translate(-2905.000000, -1119.000000)" fill="#C42032" fill-rule="nonzero">
            <g id="Sensors" transform="translate(2905.000000, 102.000000)">
                <g id="Glyph-Tint" transform="translate(1.000000, 1018.000000)">
                    <path d="M5,0 L13.236068,0 L15,0.881 L16.763932,0 L25,0 C27.7614237,0 30,2.23857625 30,5 L30,25 C30,27.7614237 27.7614237,30 25,30 L16.763932,30 L15,29.118 L13.236068,30 L5,30 C2.23857625,30 0,27.7614237 0,25 L0,5 C0,2.23857625 2.23857625,0 5,0 Z M12.764,2 L5,2 C3.40231912,2 2.09633912,3.24891996 2.00509269,4.82372721 L2,5 L2,25 C2,26.6568542 3.34314575,28 5,28 L12.762,28 L14.5000973,27.131 L14.5000973,20.9794711 C11.4202857,20.725442 9,18.145365 9,15 C9,11.854635 11.4202857,9.27455798 14.5000973,9.02052886 L14.5000973,2.868 L12.764,2 Z M25,2 L17.235,2 L15.5,2.868 L15.5009037,9.02061151 C18.5802387,9.27511705 21,11.8549758 21,15 C21,18.1450242 18.5802387,20.7248829 15.5009037,20.9793885 L15.5,27.132 L17.237,28 L25,28 C26.5976809,28 27.9036609,26.75108 27.9949073,25.1762728 L28,25 L28,5 C28,3.34314575 26.6568542,2 25,2 Z M17.1213203,11.4644661 L15.0007071,13.5850793 L12.8786797,11.4644661 L11.4644661,12.8786797 L13.5864935,14.9992929 L11.4644661,17.1213203 L12.8786797,18.5355339 L15,16.4142136 L17.1213203,18.5355339 L18.5355339,17.1213203 L16.4142136,15 L18.5355339,12.8786797 L17.1213203,11.4644661 Z" id="Contact-Switch"></path>
                </g>
            </g>
        </g>
    </g>
</svg>