<?xml version="1.0" encoding="UTF-8"?>
<svg width="32px" height="32px" viewBox="0 0 32 32" version="1.1" xmlns="http://www.w3.org/2000/svg" xmlns:xlink="http://www.w3.org/1999/xlink">
    <title>Glyph/Location/Doorbell</title>
    <g id="Page-1" stroke="none" stroke-width="1" fill="none" fill-rule="evenodd">
        <g id="01-OS3-Icons-map-to-OS-Next" transform="translate(-1836.000000, -1232.000000)" stroke="#7ED321">
            <g id="Assets-Objects" transform="translate(1836.000000, 215.000000)">
                <g id="Glyph-Tint" transform="translate(9.000000, 1020.000000)">
                    <path d="M2.00585866,26 C0.898053512,26 3.55271368e-15,25.1050211 3.55271368e-15,24.0029953 L3.55271368e-15,1.99700466 C3.55271368e-15,0.89408944 0.897060126,7.11930515e-14 2.00585866,7.11930515e-14 L11.9941413,7.11930515e-14 C13.1019465,7.11930515e-14 14,0.894978851 14,1.99700466 L14,24.0029953 C14,25.1059106 13.1029399,26 11.9941413,26 L2.00585866,26 Z" id="Frame" stroke-width="2" transform="translate(7.000000, 13.000000) rotate(-360.000000) translate(-7.000000, -13.000000) "></path>
                    <circle id="Button" cx="7" cy="13" r="4"></circle>
                    <circle id="Button" fill="#7ED321" cx="7" cy="13" r="2"></circle>
                </g>
            </g>
        </g>
    </g>
</svg>