<?xml version="1.0" encoding="UTF-8" standalone="no"?>
<!-- Created with Inkscape (http://www.inkscape.org/) -->

<svg
   version="1.1"
   id="svg2708"
   width="178"
   height="212.7258"
   viewBox="0 0 178 212.7258"
   sodipodi:docname="j2.svg"
   inkscape:version="1.2.2 (732a01da63, 2022-12-09, custom)"
   xmlns:inkscape="http://www.inkscape.org/namespaces/inkscape"
   xmlns:sodipodi="http://sodipodi.sourceforge.net/DTD/sodipodi-0.dtd"
   xmlns="http://www.w3.org/2000/svg"
   xmlns:svg="http://www.w3.org/2000/svg">
  <defs
     id="defs2712" />
  <sodipodi:namedview
     id="namedview2710"
     pagecolor="#ffffff"
     bordercolor="#000000"
     borderopacity="0.25"
     inkscape:showpageshadow="2"
     inkscape:pageopacity="0.0"
     inkscape:pagecheckerboard="0"
     inkscape:deskcolor="#d1d1d1"
     showgrid="false"
     inkscape:zoom="2.3579016"
     inkscape:cx="87.789922"
     inkscape:cy="106.02648"
     inkscape:window-width="1920"
     inkscape:window-height="1031"
     inkscape:window-x="0"
     inkscape:window-y="25"
     inkscape:window-maximized="1"
     inkscape:current-layer="layer1" />
  <g
     inkscape:groupmode="layer"
     id="layer1"
     inkscape:label="Layer 1"
     transform="translate(-5,-2.1887193)">
    <path
       style="fill:#000000"
       d="m 86.977211,213.57215 c -5.607996,-1.5487 -13.941416,-7.42972 -17.099926,-12.06768 -1.307507,-1.91994 -2.715715,-3.49388 -3.129353,-3.49764 -0.413637,-0.004 -2.663637,-2.59812 -5,-5.76525 -2.336362,-3.16714 -6.098341,-7.60505 -8.359953,-9.86202 C 51.126368,180.12258 43.111419,170.90137 35.576981,161.88798 14.702251,136.91571 10.502304,127.22019 10.500806,104 10.500363,97.125 10.852999,89.1375 11.284443,86.25 L 12.068886,81 H 8.5344428 C 5.5833813,81 5,80.644776 5,78.847861 5,75.919199 9.820222,69.621997 20.25,58.925057 25.425005,53.617492 29,49.12213 29,47.922407 29,46.806724 27.875,44.238306 26.5,42.214812 25.125,40.191317 24,38.113125 24,37.596606 c 0,-0.516518 -0.71556,-1.729809 -1.590133,-2.696202 -1.008405,-1.114275 -1.34257,-2.537077 -0.913429,-3.889181 0.53765,-1.693985 1.224004,-2.014874 3.340133,-1.561601 4.673828,1.001129 17.465515,2.773459 23.580468,3.26715 5.635488,0.454982 12.427539,-0.41813 22.777624,-2.928043 3.594551,-0.871684 5.655307,-0.850647 8.794159,0.08978 5.186624,1.55395 7.849824,0.717673 8.582965,-2.695155 1.116996,-5.19971 8.54764,-19.2154955 11.060104,-20.861725 1.634609,-1.0710394 6.016669,-1.9233325 12.451589,-2.4217837 5.46113,-0.423021 10.87511,-1.0693095 12.03107,-1.4361967 1.15595,-0.3668872 4.5072,-0.3665253 7.44721,8.043e-4 4.24533,0.5304192 5.48406,1.1045458 6.01888,2.7896372 0.49245,1.5515702 0.0346,2.6220492 -1.70361,3.9833818 C 127.86487,15.512335 116,29.201941 116,32.171445 c 0,0.455705 4.1625,0.835584 9.25,0.844176 5.0875,0.0086 11.95,0.667562 15.25,1.464378 3.3,0.796817 10.40162,1.464788 15.78138,1.484379 8.11187,0.02954 9.88854,0.314846 10.40915,1.671545 0.34527,0.899757 0.21865,2.182441 -0.28138,2.850408 -5.92545,7.915516 -7.20625,11.512412 -4.10013,11.514451 0.65504,4.3e-4 5.57848,4.200606 10.94098,9.333724 8.43077,8.070139 9.75,9.774027 9.75,12.592838 0,2.418891 -0.51597,3.394824 -2,3.782907 -2.44538,0.639481 -2.5298,2.835656 -0.30436,7.917625 1.27236,2.905543 1.67024,6.520468 1.59388,14.481384 -0.18182,18.95517 0.34745,17.88599 -31.04501,62.71332 -15.25948,21.79 -29.657,41.50387 -31.99449,43.80859 -6.43186,6.34169 -11.44828,8.38607 -20.315744,8.27941 -4.088852,-0.0492 -9.469531,-0.65147 -11.957065,-1.33843 z"
       id="path3189" />
    <path
       style="fill:#ff0000"
       d="m 110.05625,204.20531 c 1.40593,-0.55466 3.86736,-2.74026 5.46984,-4.85689 4.11158,-5.43078 4.16731,-5.5028 6.95884,-8.99278 1.38329,-1.72939 2.51507,-3.413 2.51507,-3.74134 0,-0.60699 4.24068,-6.48181 10.54919,-14.6143 5.92349,-7.63613 9.96355,-13.3488 11.99972,-16.96765 1.0731,-1.90721 3.86359,-5.86222 6.20109,-8.78892 2.3375,-2.92669 4.25,-5.65999 4.25,-6.07401 0,-0.68788 2.61432,-3.78868 9.73349,-11.54473 1.45156,-1.58142 3.89278,-6.53142 5.42491,-11 3.54602,-10.34221 3.85792,-22.123558 0.84403,-31.881412 C 171.2986,76.98932 169.23134,74.653657 162.29664,72.517682 159.10849,71.535692 155.825,70.201174 155,69.552087 c -2.02164,-1.590574 -14.07605,-3.894119 -15.01247,-2.868817 -0.41026,0.449202 -1.28518,2.50423 -1.94428,4.56673 -0.65909,2.0625 -1.53246,3.75 -1.9408,3.75 -0.40835,0 -2.58249,-1.575 -4.83142,-3.5 -2.24893,-1.925 -4.93992,-3.5 -5.97999,-3.5 -1.04007,0 -2.3699,-0.478861 -2.95518,-1.064136 -0.58527,-0.585276 -3.03777,-0.922776 -5.45,-0.75 -3.86839,0.277072 -4.40754,0.6091 -4.56962,2.814136 -0.63507,8.639903 -2.85005,16 -4.81512,16 -0.69092,0 -1.86722,-0.736203 -2.614,-1.636006 -0.74677,-0.899804 -2.93937,-2.695006 -4.87244,-3.989339 -1.933074,-1.294333 -4.461312,-3.044283 -5.618307,-3.888778 -2.968934,-2.167036 -5.204116,-0.913583 -6.419481,3.599939 -1.533608,5.695385 -4.009944,6.598715 -8.143928,2.970783 C 77.999834,80.447868 74.5875,77.474652 72.25,75.449454 69.9125,73.424256 68,71.125822 68,70.341824 c 0,-0.783998 -0.914873,-2.407452 -2.033051,-3.607675 -1.66539,-1.787586 -2.343547,-1.967969 -3.75,-0.997465 C 57.42431,69.043784 46.657816,75 45.472521,75 44.668441,75 43.994979,73.646202 43.810365,71.658725 L 43.5,68.317449 33.896655,72.908725 c -11.690286,5.589023 -12.414066,6.1691 -14.249165,11.420044 -3.604593,10.314167 -4.076802,15.247626 -2.389553,24.965161 3.854582,22.20007 7.561887,29.24888 27.191979,51.70091 C 49.977462,167.317 57.2,175.24707 60.5,178.61722 c 3.3,3.37014 9.086905,9.55608 12.859789,13.74654 11.728128,13.02617 23.810863,16.92514 36.696461,11.84155 z"
       id="path3216" />
    <path
       style="fill:#008080"
       d="M 85.432112,68.489218 C 87.594774,64.370148 89.717902,61 90.150175,61 c 0.432273,0 1.362822,1.03738 2.067888,2.305288 1.711338,3.077475 10.484597,10.999338 11.064987,9.991193 0.25219,-0.438065 0.77998,-4.171481 1.17287,-8.296481 0.81732,-8.581238 1.72054,-10.260916 4.87002,-9.056575 1.19573,0.457242 4.64906,1.378705 7.67406,2.047695 3.025,0.668991 7.19681,2.307212 9.27069,3.640492 4.0249,2.58758 4.75039,2.15447 4.4081,-2.631612 -0.16038,-2.242612 0.18354,-2.490363 3.3405,-2.406398 1.93561,0.05148 5.31061,0.884864 7.5,1.85196 2.18939,0.967097 4.88071,2.098629 5.98071,2.514517 1.1,0.415888 4.475,1.779722 7.5,3.030742 3.025,1.25102 7.075,2.49668 9,2.768133 l 3.5,0.49355 -5,-4.724598 c -2.75,-2.598529 -7.3625,-5.818532 -10.25,-7.155561 -5.69737,-2.638116 -6.35709,-4.060472 -3.20598,-6.912183 1.12421,-1.017397 1.91171,-2.774641 1.75,-3.904987 C 150.52217,42.65496 149.5575,42.442431 138,41.736485 121.42107,40.723825 119.62034,40.723926 111.90701,41.737941 103.90243,42.790244 103,42.542063 103,39.288393 c 0,-2.185396 1.29377,-4.794319 7.5,-15.12399 0.55,-0.915422 3.12988,-3.914403 5.73306,-6.664403 2.60318,-2.75 4.74068,-5.7875 4.75,-6.75 0.018,-1.8639986 -2.53711,-2.318779 -4.83765,-0.8610298 -0.78271,0.4959718 -2.55372,0.4057248 -4.19493,-0.2137643 -2.16017,-0.8153738 -3.4522,-0.7446538 -5.39541,0.2953223 C 105.14978,10.722615 104,11.759662 104,12.275075 c 0,0.515414 -1.35,2.64163 -3,4.724925 -1.65,2.083295 -3,4.449865 -3,5.259046 0,0.80918 -0.875092,2.583736 -1.944649,3.943458 -1.069557,1.359721 -2.482977,4.682907 -3.140934,7.384858 C 91.60804,38.952105 89.531503,42 87.18287,42 85.15422,42 77,37.161575 77,35.957846 77,34.015512 70.04857,35.027313 66.404862,37.5 c -4.09659,2.780022 -4.439915,2.825012 -19.77604,2.591545 -10.090159,-0.153607 -10.816389,-0.03712 -10.10857,1.621479 2.327617,5.45418 1.843542,6.940951 -4.870563,14.959268 -3.604975,4.305239 -8.150917,8.68607 -10.102094,9.735179 C 19.596418,67.456579 18,68.667522 18,69.098454 c 0,2.018591 2.349486,1.693553 7.807806,-1.080165 C 29.074588,66.35823 32.18722,65 32.724765,65 34.2719,65 43.04167,60.136128 48.34858,56.334752 c 5.900421,-4.226513 8.159826,-3.858325 7.215417,1.175809 -0.81957,4.368683 1.203388,4.704404 5.674994,0.941795 1.665236,-1.401204 3.755197,-2.413704 4.644356,-2.25 C 66.772506,56.36606 69.075,59.698454 71,63.607677 c 2.928663,5.947425 8.047067,12.268624 10,12.349939 0.275,0.01145 2.269451,-3.349329 4.432112,-7.468398 z"
       id="path3242" />
    <path
       style="fill:#000000"
       d="m 134.39848,110.45154 c -0.89587,-3.56943 1.40268,-14.363555 3.76515,-17.681331 C 139.71714,90.588502 140.93088,90 143.87696,90 c 5.78793,0 7.51812,1.802502 6.90989,7.198668 -0.36235,3.214802 -1.70588,6.130782 -4.67912,10.155502 -3.667,4.96384 -4.58749,5.64583 -7.62022,5.64583 -2.86287,0 -3.55817,-0.43334 -4.08903,-2.54846 z"
       id="path3238" />
    <path
       style="fill:#ffff00"
       d="m 144.08327,105.38729 c 5.22321,-7.070403 5.73871,-11.314501 1.55723,-12.82051 -2.54999,-0.91841 -3.10601,-0.720727 -5.13699,1.826359 -1.25262,1.570932 -2.7636,5.276755 -3.35773,8.235161 -2.00695,9.99336 0.77564,11.09997 6.93749,2.75899 z"
       id="path3240" />
    <path
       style="fill:#000000"
       d="M 87.692294,110.97107 C 85.931894,108.45775 86.562935,95.877095 88.656415,91.75 89.853658,89.389751 90.663529,89 94.370693,89 100.24109,89 102,91.097191 102,98.096606 c 0,4.236774 -0.59114,6.319394 -2.674151,9.421264 -1.470783,2.19017 -3.158283,4.31274 -3.75,4.71682 -2.132985,1.45659 -6.464542,0.76231 -7.883555,-1.26362 z"
       id="path3234" />
    <path
       style="fill:#ffff00"
       d="M 93.575849,110.23469 C 96.235364,108.41853 100,101.30546 100,98.096606 100,91.23589 93.418765,88.35573 90.52568,93.95034 88.706487,97.468272 88.488266,108.08827 90.2,109.8 c 1.383404,1.3834 1.890893,1.44875 3.375849,0.43469 z"
       id="path3236" />
    <path
       style="fill:#000000"
       d="m 42.5,113.80505 c -3.157001,-1.79022 -3.468431,-2.80732 -3.484687,-11.38074 -0.01357,-7.159285 0.247322,-8.322414 2.299138,-10.249996 2.613695,-2.455438 9.745258,-3.030866 11.455486,-0.924314 1.705301,2.100483 4.332856,14.0055 3.713517,16.82534 -1.330546,6.05793 -8.339859,8.92999 -13.983454,5.72971 z"
       id="path3230" />
    <path
       style="fill:#ffff00"
       d="m 50.691445,112.21186 c 0.655295,-0.41663 1.824976,-1.97865 2.599291,-3.47114 1.21386,-2.33972 1.207373,-3.50779 -0.04708,-8.47717 C 52.443441,97.093595 51.33116,93.9375 50.771917,93.25 c -1.60597,-1.974282 -5.224151,-1.461973 -7.609865,1.077503 -1.888904,2.010647 -2.139517,3.235881 -1.840898,9.000087 0.190122,3.66991 0.53314,6.83117 0.762262,7.02501 2.775996,2.34855 6.554749,3.16473 8.608029,1.85926 z"
       id="path3232" />
    <path
       style="fill:#000000"
       d="m 115.75,145.83772 c -2.46755,-0.90123 -2.74831,-1.48369 -2.73355,-5.67105 0.0242,-6.85635 3.34403,-12.13283 8.76654,-13.93326 6.50563,-2.16005 7.53637,-1.3252 7.02872,5.69295 -0.36239,5.00996 -0.99249,6.58827 -4.18611,10.48566 -3.9586,4.83096 -4.47855,5.03164 -8.8756,3.4257 z"
       id="path3226" />
    <path
       style="fill:#ffff00"
       d="M 123.0134,139.98309 C 126.68471,135.34767 128.33008,128 125.69677,128 c -3.58584,0 -6.73432,2.15329 -8.65589,5.91987 -3.1885,6.24997 -2.62573,9.71336 1.62509,10.00118 0.64128,0.0434 2.59763,-1.72866 4.34743,-3.93796 z"
       id="path3228" />
    <path
       style="fill:#000000"
       d="M 65.960066,146.96007 C 63.155204,144.1552 62,140.71221 62,135.15741 62,128.03794 63.909761,126 70.581455,126 c 5.022666,0 5.560715,0.22399 6.605758,2.75 0.625742,1.5125 1.34281,6.09213 1.593485,10.17696 0.389057,6.33979 0.190915,7.62063 -1.353592,8.75 -2.805833,2.05167 -9.091433,1.65871 -11.46704,-0.71689 z"
       id="path3222" />
    <path
       style="fill:#ffff00"
       d="m 75.446217,145.66299 c 1.506943,-1.10191 1.739816,-2.28888 1.324289,-6.75 C 75.96983,130.31687 74.66983,128 70.647196,128 c -4.166192,0 -5.781076,1.78761 -6.075021,6.7248 -0.274192,4.60542 0.699403,7.54678 3.387891,10.23527 2.361758,2.36175 4.892572,2.59939 7.486151,0.70292 z"
       id="path3224" />
    <path
       style="fill:#000000"
       d="M 89.089206,174.68428 C 86.767175,169.8876 86.264569,161.13543 88.2,159.2 c 1.24961,-1.24961 9.467715,-1.64848 12.21821,-0.59301 1.24622,0.47822 1.58179,2.18504 1.58179,8.04545 0,6.5643 -0.28846,7.72693 -2.454545,9.89301 C 98.046448,178.04446 95.94006,179 94.134661,179 c -2.495607,0 -3.281788,-0.67247 -5.045455,-4.31572 z"
       id="path3218" />
    <path
       style="fill:#ffff00"
       d="M 97.545455,174.54545 C 99.549741,172.54117 100,171.09328 100,166.65244 100,160.80189 99.291004,160 94.118213,160 90.594102,160 89,161.67697 89,165.38428 89,168.72682 92.65711,177 94.134661,177 c 0.525936,0 2.060794,-1.10455 3.410794,-2.45455 z"
       id="path3220" />
  </g>
</svg>
