<?xml version="1.0" encoding="UTF-8" standalone="no"?>
<!-- Created with Inkscape (http://www.inkscape.org/) -->

<svg
   version="1.1"
   id="svg2708"
   width="167.45888"
   height="254.43314"
   viewBox="0 0 167.45888 254.43313"
   sodipodi:docname="ii3.svg"
   inkscape:version="1.2.2 (732a01da63, 2022-12-09, custom)"
   xmlns:inkscape="http://www.inkscape.org/namespaces/inkscape"
   xmlns:sodipodi="http://sodipodi.sourceforge.net/DTD/sodipodi-0.dtd"
   xmlns="http://www.w3.org/2000/svg"
   xmlns:svg="http://www.w3.org/2000/svg">
  <defs
     id="defs2712" />
  <sodipodi:namedview
     id="namedview2710"
     pagecolor="#ffffff"
     bordercolor="#000000"
     borderopacity="0.25"
     inkscape:showpageshadow="2"
     inkscape:pageopacity="0.0"
     inkscape:pagecheckerboard="0"
     inkscape:deskcolor="#d1d1d1"
     showgrid="false"
     inkscape:zoom="2.6457056"
     inkscape:cx="88.445215"
     inkscape:cy="125.1084"
     inkscape:window-width="1920"
     inkscape:window-height="1031"
     inkscape:window-x="0"
     inkscape:window-y="25"
     inkscape:window-maximized="1"
     inkscape:current-layer="layer1" />
  <g
     inkscape:groupmode="layer"
     id="layer1"
     inkscape:label="Layer 1"
     transform="translate(-11.84,-31.310578)">
    <path
       style="fill:#000000;stroke-width:0.32"
       d="m 110.96291,285.30465 c -0.6584,-0.23498 -1.5224,-0.63894 -1.92,-0.89767 -0.3976,-0.25874 -1.29405,-0.57653 -1.99211,-0.70619 -1.17348,-0.21798 -2.76519,-1.09928 -3.5308,-1.95494 -0.176,-0.1967 -1.12844,-0.8807 -2.11654,-1.52001 C 99.497501,278.99268 97.6,277.06007 97.6,276.35201 c 0,-0.23414 -0.267059,-0.76913 -0.593462,-1.18886 -0.326407,-0.41974 -0.769344,-1.33916 -0.984308,-2.04316 -0.214963,-0.704 -0.474617,-1.496 -0.577008,-1.76 -0.10239,-0.264 -0.15382,-0.67445 -0.114291,-0.91211 0.03953,-0.23766 -0.06667,-0.34649 -0.235997,-0.24184 C 94.735306,270.4283 94.4,269.69093 94.4,268.67782 c 0,-0.3904 -0.148256,-0.85808 -0.329456,-1.03928 -0.18633,-0.18633 -0.345158,-2.05609 -0.365606,-4.304 -0.0351,-3.85913 0.274118,-5.59662 1.085238,-6.09792 0.192576,-0.11902 0.363565,-0.82747 0.379981,-1.57434 0.02739,-1.24564 -0.04259,-1.36808 -0.845965,-1.4805 -0.481693,-0.0674 -1.273693,0.0824 -1.76,0.33296 -1.407443,0.72509 -5.368691,0.64885 -7.448899,-0.14336 -0.965411,-0.36767 -2.259293,-0.82547 -2.875293,-1.01735 -0.616,-0.19188 -1.347338,-0.53904 -1.625197,-0.77146 -0.277859,-0.23242 -0.736153,-0.42258 -1.018435,-0.42258 -0.282282,0 -0.603136,-0.28324 -0.713011,-0.62942 -0.109872,-0.34618 -1.167434,-1.62237 -2.350138,-2.83597 -1.182701,-1.2136 -2.323421,-2.58636 -2.534931,-3.05058 -0.211514,-0.46421 -0.514096,-0.84403 -0.672413,-0.84403 -0.521574,0 -1.675424,-3.67814 -1.771581,-5.64729 -0.05189,-1.06266 -0.204857,-2.11091 -0.33992,-2.32945 -0.227984,-0.36889 -0.01002,-4.7071 0.346845,-6.90326 0.0858,-0.528 0.507623,-1.97882 0.937389,-3.22405 0.965491,-2.79749 0.974918,-3.42545 0.06139,-4.09033 -2.472205,-1.79933 -3.962509,-2.76562 -4.265421,-2.76562 -0.352569,0 -2.374579,-2.33704 -2.374579,-2.74454 0,-0.12214 -0.324,-0.54902 -0.72,-0.94862 -1.712634,-1.72822 -2.761654,-3.8338 -3.022573,-6.06684 -0.102819,-0.88 -0.363401,-1.96 -0.579065,-2.4 -0.895476,-1.82694 0.77336,-10.87468 2.60702,-14.1342 0.294301,-0.52315 -0.984224,-1.17727 -2.988896,-1.52918 -5.668627,-0.9951 -5.344291,-0.86392 -7.596832,-3.07255 -1.154809,-1.1323 -2.099654,-2.27593 -2.099654,-2.5414 0,-0.26547 -0.213258,-0.48267 -0.473904,-0.48267 -0.260646,0 -0.567546,-0.396 -0.681997,-0.88 -0.114451,-0.484 -0.455283,-1.168 -0.757405,-1.52 -1.053491,-1.22741 -2.767619,-6.88872 -2.401424,-7.93124 0.0751,-0.21382 0.195492,-1.32476 0.267527,-2.46876 0.144662,-2.2974 0.608864,-4.26997 1.330397,-5.65337 0.260076,-0.49864 0.47375,-1.15863 0.474835,-1.46663 9.6e-4,-0.308 0.150489,-0.56 0.332013,-0.56 0.181526,0 0.421104,-0.252 0.532396,-0.56 0.342036,-0.94657 3.23952,-3.6 3.93112,-3.6 0.358989,0 0.8993,-0.288 1.200692,-0.64 0.301392,-0.352 0.715187,-0.64 0.919545,-0.64 0.204359,0 0.443943,-0.27678 0.532407,-0.61507 0.181324,-0.69339 -0.718215,-1.6262 -2.92554,-3.03375 -0.786022,-0.50123 -1.553094,-1.29967 -1.750153,-1.82175 C 51.857558,154.01824 51.613418,153.6 51.507974,153.6 c -0.609676,0 -2.579929,-2.3152 -3.131715,-3.68 -0.872313,-2.15761 -1.147894,-3.61153 -1.486022,-7.84 -0.216714,-2.71017 0.676973,-7.63138 1.563808,-8.61132 0.278275,-0.30749 0.505955,-0.79974 0.505955,-1.09388 0,-0.29414 0.288,-0.8228 0.64,-1.1748 0.352,-0.352 0.64,-0.78069 0.64,-0.95263 0,-0.17194 0.388531,-0.56719 0.863402,-0.87834 0.474867,-0.31115 1.374867,-1.0882 2,-1.72677 1.144918,-1.16956 2.445318,-2.03353 3.079625,-2.04609 0.188663,-0.004 0.980663,-0.31826 1.76,-0.69895 3.088627,-1.50873 9.968794,-2.4277 12.680615,-1.69374 0.844995,0.2287 1.680358,0.51871 1.856358,0.64447 0.176,0.12575 0.835776,0.39458 1.466166,0.59739 1.529648,0.49213 3.507866,1.51396 3.31137,1.71045 -0.08663,0.0866 0.209747,0.39815 0.658621,0.69226 1.016387,0.66597 2.974499,2.74773 3.194605,3.39636 0.09041,0.26642 0.5584,0.72348 1.039974,1.01568 0.857574,0.52035 0.893837,0.51084 1.762426,-0.46204 0.487763,-0.54633 0.886838,-1.1266 0.886838,-1.28949 0,-0.884 4.000826,-4.51812 4.684989,-4.25558 0.235033,0.0902 0.393062,0.0125 0.351171,-0.17264 -0.0735,-0.32486 0.931811,-0.90688 5.255133,-3.04246 2.848848,-1.40724 3.535158,-1.59287 7.488127,-2.0253 5.32099,-0.58208 5.58058,-0.6356 5.58058,-1.15057 0,-0.25794 0.2638,-1.07942 0.58622,-1.8255 0.32243,-0.74608 0.86243,-2.20019 1.2,-3.23135 0.33758,-1.03116 0.74168,-1.84686 0.898,-1.81267 0.4679,0.10234 0.71201,-0.55183 0.79352,-2.12649 0.0462,-0.89255 0.32657,-1.8065 0.69968,-2.28083 0.34242,-0.43531 0.62258,-0.92612 0.62258,-1.09067 0,-0.16455 0.39997,-0.90114 0.88883,-1.63685 0.48885,-0.73571 1.13452,-1.87765 1.43482,-2.53765 0.3003,-0.66 0.68088,-1.2 0.84575,-1.2 0.16486,0 0.39605,-0.43846 0.51375,-0.97435 0.1177,-0.535893 0.52514,-1.31636 0.90543,-1.734373 1.34379,-1.477117 1.81142,-2.102192 1.81142,-2.421296 0,-0.633504 1.53836,-2.739766 3.32872,-4.557555 1.00083,-1.016163 1.7328,-1.988163 1.6266,-2.16 -0.1062,-0.171837 -0.0321,-0.312429 0.16468,-0.312429 0.19677,0 0.25984,-0.158457 0.14014,-0.352128 -0.15464,-0.250221 -1.94287,-0.280733 -6.17888,-0.105433 -7.62124,0.315388 -11.63862,0.37168 -12.03563,0.168636 -0.54403,-0.278227 -1.47867,-0.342092 -6.25954,-0.427721 -4.00778,-0.07178 -4.774151,-0.0046 -5.519997,0.484022 -1.377799,0.902595 -1.08265,1.380631 1.133907,1.836538 1.1,0.226249 2.26463,0.54575 2.588067,0.710006 0.323437,0.164253 0.970391,0.367968 1.437671,0.452704 1.768802,0.320742 6.276602,3.622947 6.901102,5.055427 0.15776,0.361872 0.32769,1.089949 0.37763,1.617949 0.49114,5.193313 0.48935,5.688073 -0.0303,8.380753 -0.4024,2.08497 -0.78503,3.1269 -1.46912,4.00048 -0.50875,0.64968 -0.92501,1.46918 -0.92501,1.82112 0,0.35193 -0.12805,0.71901 -0.28455,0.81574 -0.1565,0.0967 -0.38019,0.5569 -0.49708,1.02262 -0.28426,1.13261 -1.68071,2.92516 -2.47522,3.17733 -0.44622,0.14162 -0.78656,-0.006 -1.12389,-0.48765 -0.266114,-0.37993 -0.834076,-0.82395 -1.262134,-0.98669 -0.975014,-0.37071 -1.725897,0.0241 -4.138944,2.1763 -0.444,0.396 -0.922409,0.72 -1.063132,0.72 -0.14072,0 -0.504586,0.27484 -0.808589,0.61075 -0.304,0.33592 -1.01032,0.78518 -1.569594,0.99836 -0.559277,0.21317 -1.736867,0.72303 -2.616867,1.133 -2.550986,1.18846 -5.757091,2.37746 -6.425107,2.38279 -0.338192,0.003 -0.817834,0.13337 -1.065875,0.29039 -0.248039,0.15702 -0.644039,0.21141 -0.88,0.12086 -0.496839,-0.19065 -0.577367,-2.10103 -0.124253,-2.94769 0.464614,-0.86813 0.80024,-2.58821 0.705645,-3.61643 -0.04409,-0.47931 -0.300986,-0.52057 -2.05041,-0.32932 -3.458704,0.37813 -4.532822,0.30411 -4.656109,-0.32086 -0.06056,-0.30699 0.168304,-0.95499 0.508583,-1.44 0.340281,-0.48502 0.804412,-1.45388 1.031408,-2.15301 0.226998,-0.69914 0.570985,-1.45014 0.764419,-1.6689 1.037219,-1.17299 1.210265,-1.49824 1.377798,-2.58966 0.10049,-0.65466 0.283293,-1.33428 0.406231,-1.51028 0.448566,-0.64219 0.120518,-2.72693 -0.500567,-3.18108 -0.544006,-0.39779 -0.706016,-0.35328 -1.482371,0.40724 -0.479389,0.46961 -0.876502,1.06984 -0.882474,1.33384 -0.006,0.264 -0.225974,0.89246 -0.488889,1.39658 -0.262915,0.50411 -0.478029,1.18594 -0.478029,1.51516 0,0.32923 -0.828,1.47864 -1.84,2.55427 -1.012,1.07562 -1.955155,2.15779 -2.095901,2.40483 -0.140745,0.24703 -0.439645,0.44916 -0.664221,0.44916 -0.224572,0 -0.735641,0.34842 -1.135705,0.77427 -0.400064,0.42584 -1.145165,0.94732 -1.655783,1.15882 -0.510614,0.2115 -0.92839,0.51108 -0.92839,0.66573 0,0.15465 -0.200595,0.28118 -0.445763,0.28118 -0.245171,0 -0.532154,0.22512 -0.637741,0.50028 -0.105587,0.27515 -0.327043,0.4168 -0.492125,0.31478 -0.165081,-0.10203 -0.391945,-0.037 -0.504141,0.14457 C 63.86496,119.19738 61.815088,120 60.89017,120 c -0.435418,0 -1.533831,0.20877 -2.440919,0.46394 -0.907088,0.25517 -2.225251,0.43517 -2.929251,0.4 L 54.24,120.8 v -1.6 c 0,-0.88 -0.104381,-1.7604 -0.231955,-1.95643 -0.127578,-0.19603 -1.207578,-0.44179 -2.4,-0.54613 C 50.415619,116.59311 48.072,116.27459 46.4,115.98962 c -1.672,-0.28497 -3.382109,-0.56852 -3.80024,-0.63011 -1.464515,-0.21574 -1.525645,-0.72168 -0.245584,-2.03259 0.661722,-0.67766 1.816906,-1.53865 2.567075,-1.9133 2.647123,-1.32204 2.80409,-3.07998 0.356106,-3.98816 -0.878547,-0.32593 -1.854032,-0.82455 -2.167747,-1.10803 -0.545898,-0.4933 -0.542544,-0.54381 0.07812,-1.17643 0.356682,-0.36355 1.022157,-1.129 1.478835,-1.701 0.47088,-0.58979 1.129703,-1.04232 1.521882,-1.04536 0.725478,-0.006 4.587267,-1.83569 6.771555,-3.208976 0.704,-0.442614 1.568,-0.959856 1.92,-1.14943 0.658963,-0.354893 1.095206,-1.762042 0.856704,-2.763386 -0.109856,-0.461225 -0.351882,-0.530896 -1.295894,-0.373053 -1.934199,0.323412 -3.328535,0.80928 -4.84081,1.686826 -0.792,0.459584 -1.548,0.803603 -1.68,0.764489 -0.132,-0.03911 -0.24,0.05938 -0.24,0.218868 0,0.275206 -1.570928,1.528307 -4.702301,3.750942 -1.534633,1.08928 -2.739558,1.33901 -7.72776,1.60162 -3.225725,0.16982 -8.180952,-0.30435 -9.510331,-0.91006 -0.561279,-0.25573 -0.774272,-0.55833 -0.670996,-0.95325 0.08322,-0.31823 0.01383,-0.66356 -0.154192,-0.7674 -0.397198,-0.24548 0.293365,-1.091833 0.890859,-1.091833 0.324894,0 0.389831,-0.240263 0.237839,-0.88 -0.219681,-0.92464 -1.077916,-2.111869 -1.338369,-1.851418 -0.08388,0.08388 -0.528761,-0.102256 -0.988628,-0.413638 C 23.256254,95.743559 22.52,95.316861 22.08,95.106717 c -0.44,-0.210141 -1.016,-0.5092 -1.28,-0.664576 -0.264,-0.155376 -1.128,-0.612118 -1.92,-1.014979 -5.16396,-2.62673 -7.04,-3.864128 -7.04,-4.64345 0,-0.255043 0.264,-0.463715 0.586667,-0.463715 0.322666,0 0.694666,-0.108 0.826666,-0.24 0.132,-0.132 0.336,-0.249725 0.453334,-0.261613 0.195532,-0.01981 1.002689,-0.382745 5.653333,-2.542032 4.110547,-1.908515 5.565671,-4.81134 2.724621,-5.43534 -0.896736,-0.196957 -1.449368,-0.915565 -1.117297,-1.452864 0.262933,-0.425437 2.763804,-2.046029 3.832676,-2.483619 1.242124,-0.508519 2.257632,-0.741354 3.84,-0.880442 0.704,-0.06188 1.856,-0.196502 2.56,-0.299158 2.72824,-0.397837 7.996454,-0.46584 9.716445,-0.125424 0.991955,0.196323 2.451555,0.39167 3.243555,0.434105 0.792,0.04243 1.845373,0.241229 2.340832,0.44177 0.495456,0.200538 0.968083,0.364618 1.050278,0.364618 0.0822,0 0.68482,0.235372 1.339168,0.523049 1.407482,0.618787 1.837956,0.705459 4.464535,0.898909 2.180934,0.160624 2.363789,-0.05293 1.138035,-1.32911 -0.47159,-0.490992 -1.476528,-0.898087 -3.016806,-1.222096 -1.270311,-0.267216 -3.184093,-0.877684 -4.252848,-1.356592 -2.797636,-1.253616 -6.880189,-3.738912 -7.42904,-4.522506 -0.258743,-0.369411 -0.403271,-0.671654 -0.321172,-0.671654 0.191082,0 -1.300211,-1.781197 -2.390406,-2.855094 -0.475811,-0.468698 -0.915203,-1.336855 -1.017539,-2.010471 -0.153879,-1.012864 -0.08068,-1.217123 0.502499,-1.402217 1.382099,-0.438663 1.577174,-0.945959 0.84255,-2.191056 -0.370316,-0.627639 -0.875078,-1.141162 -1.121696,-1.141162 -0.246614,0 -0.44839,-0.11615 -0.44839,-0.258109 0,-0.357414 -2.73215,-3.259888 -3.078627,-3.27055 C 32.172934,55.013233 30.08,52.762475 30.08,52.147771 c 0,-1.010659 1.308544,-1.292454 6.545731,-1.409619 4.706903,-0.105302 5.822992,-0.220134 8.242279,-0.848032 0.653408,-0.169584 1.523027,-0.22425 1.932492,-0.121482 0.409463,0.102772 1.141232,0.03601 1.626154,-0.148358 0.774989,-0.29465 0.870282,-0.48073 0.78751,-1.537747 -0.09287,-1.185962 -0.07695,-1.203942 1.154935,-1.304778 1.479568,-0.12111 5.137801,0.786189 6.270899,1.55528 0.850906,0.577549 2.089808,1.046083 2.88,1.089165 0.598054,0.03261 2.10193,0.91184 4.438877,2.595158 0.990617,0.713549 2.053123,1.393031 2.361123,1.509959 0.316592,0.120188 0.56,0.543129 0.56,0.973043 0,0.418246 0.288,1.021081 0.64,1.339638 0.352,0.318557 0.64,0.777392 0.64,1.019639 0,0.242246 0.210518,0.521232 0.467818,0.619968 0.257302,0.09873 0.566006,0.488883 0.686016,0.866995 0.268364,0.845545 2.357984,3.093398 2.875644,3.093398 0.20768,0 0.606285,-0.481923 0.885792,-1.070938 0.389578,-0.820976 0.435434,-1.324643 0.196461,-2.157887 C 73.100278,57.613349 72.96,56.583272 72.96,55.92211 c 0,-0.661161 -0.12095,-1.202112 -0.268781,-1.202112 -0.14783,0 -0.461766,-0.612 -0.697641,-1.36 -0.235872,-0.748 -0.530292,-1.504 -0.654266,-1.68 -0.123974,-0.176 -0.324778,-0.824 -0.446224,-1.44 -0.12145,-0.616 -0.430269,-1.582595 -0.686266,-2.147987 -0.408156,-0.901456 -0.407232,-1.167324 0.0076,-2.16 0.537255,-1.28583 0.78122,-1.332969 3.912516,-0.756006 1.884736,0.347277 2.077449,0.328938 2.522092,-0.24 0.331802,-0.42455 0.417383,-0.964102 0.275351,-1.736006 -0.113347,-0.616 -0.238266,-2.488 -0.277603,-4.16 -0.03934,-1.672 -0.179552,-4.084 -0.311594,-5.36 -0.279654,-2.702498 0.110429,-3.017837 1.644768,-1.32961 0.495062,0.544717 1.368112,1.435213 1.940112,1.97888 0.572,0.543671 1.04,1.177994 1.04,1.40961 0,0.231616 0.132672,0.38512 0.294829,0.34112 0.162157,-0.044 1.062157,0.720048 2,1.697885 0.937843,0.977833 1.777171,1.79654 1.865171,1.819344 0.830317,0.215158 1.561274,0.630144 2.189251,1.242905 0.412087,0.402102 1.38329,1.038026 2.158224,1.413168 0.774938,0.375139 1.483427,0.802534 1.574419,0.949766 0.091,0.147229 0.614061,0.366224 1.162372,0.486653 0.842924,0.185139 1.105641,0.08262 1.700697,-0.663651 0.563187,-0.706304 0.981139,-0.88895 2.092314,-0.914342 1.376595,-0.03146 1.405977,-0.0087 3.415632,2.645209 1.131987,1.494871 2.027097,3.003373 2.027097,3.416195 0,0.406592 0.576,1.930355 1.28,3.386135 0.704,1.455782 1.28,2.834495 1.28,3.063804 0,0.229312 0.144,0.416928 0.32,0.416928 0.176,0 0.32,0.200391 0.32,0.445309 0,0.543088 1.40068,0.985395 2.76791,0.874048 0.55435,-0.04515 1.11557,0.09212 1.24716,0.30504 0.26842,0.43431 0.20764,4.735248 -0.0733,5.189885 -0.0995,0.160998 -0.23778,1.020697 -0.30728,1.910444 -0.13865,1.77506 -0.88551,4.597933 -1.56096,5.899856 -0.4716,0.909015 -3.27409,3.159405 -4.5284,3.636291 -0.43272,0.164519 -2.253384,0.299664 -4.045928,0.300323 -2.684432,9.6e-4 -3.442566,0.113015 -4.299168,0.635296 -0.572,0.348756 -1.04,0.763421 -1.04,0.921482 0,0.158061 -0.303171,0.366662 -0.673715,0.463562 -1.060135,0.277232 -0.578554,0.855846 1.322976,1.589539 2.189065,0.84464 6.908945,1.061308 12.140315,0.557305 2.02973,-0.195548 4.72703,-0.416022 5.99399,-0.489945 1.26695,-0.07392 3.95395,-0.571808 5.9711,-1.106419 2.01712,-0.534608 3.99971,-0.972016 4.40572,-0.972016 0.99844,0 3.58013,-0.989402 3.8883,-1.490151 0.13678,-0.222262 0.78478,-0.502675 1.44,-0.623139 0.65521,-0.120464 1.2633,-0.32279 1.3513,-0.44961 0.30438,-0.438659 3.73379,-2.2371 4.26588,-2.2371 0.29376,0 0.53412,-0.140301 0.53412,-0.311783 0,-0.171481 0.40676,-0.522124 0.9039,-0.779206 0.49714,-0.257085 1.37637,-0.908781 1.95384,-1.448218 0.57747,-0.539436 1.18566,-0.980793 1.35155,-0.980793 0.48617,0 4.75071,-4.466467 4.75071,-4.975664 0,-0.255386 0.11748,-0.464336 0.26108,-0.464336 0.35543,0 1.52432,-2.178765 1.80261,-3.36 0.1244,-0.528 0.41289,-1.176 0.6411,-1.44 0.38284,-0.442886 2.11085,-3.688118 2.55588,-4.8 0.10566,-0.264 0.54578,-1.056 0.97805,-1.76 0.43227,-0.704 0.87968,-1.537708 0.99425,-1.852684 0.40047,-1.100976 2.1794,-1.505741 6.48202,-1.47488 6.77271,0.04858 11.09805,-0.330186 15.55293,-1.361946 2.28135,-0.528368 4.36935,-1.073097 4.64,-1.210509 0.98895,-0.502105 2.51436,-0.635196 2.82408,-0.2464 0.16929,0.212532 0.21785,1.028669 0.1079,1.813642 -0.17684,1.262595 -0.31064,1.451142 -1.1599,1.634582 -0.89853,0.194083 -4.17232,1.784128 -5.04724,2.451395 -0.21602,0.164746 -0.87888,0.492647 -1.47302,0.728669 -0.59414,0.236023 -1.77836,1.127226 -2.63158,1.980451 -0.85323,0.853226 -2.45511,2.302976 -3.55974,3.221667 -3.2992,2.743856 -7.74811,7.360967 -9.35718,9.710941 -0.8294,1.211309 -1.60364,2.274985 -1.72052,2.363728 -0.54262,0.411955 -1.97072,2.815968 -1.97072,3.31743 0,0.308925 -0.144,0.472688 -0.32,0.363914 -0.176,-0.108775 -0.32,0.02672 -0.32,0.301113 0,0.274387 -0.12839,0.498887 -0.28531,0.498887 -0.15692,0 -0.36842,0.324 -0.47,0.72 -0.10158,0.396 -0.55502,1.116 -1.00764,1.6 -0.45262,0.484 -0.70912,0.884579 -0.57,0.890176 0.13912,0.0056 0.007,0.196995 -0.29344,0.425328 -0.30052,0.228332 -0.70048,1.102729 -0.88882,1.9431 -0.49972,2.229885 -1.09061,4.021395 -1.32637,4.021395 -0.11316,0 -0.30375,0.653508 -0.42353,1.45224 -0.11978,0.798733 -0.40915,1.914733 -0.64305,2.48 -0.2339,0.565267 -0.49748,1.53176 -0.58573,2.14776 -0.0883,0.616 -0.33077,1.84 -0.53892,2.72 -0.60278,2.54833 -0.45296,8.858016 0.27994,11.789563 0.5344,2.13757 0.83236,2.71282 2.01013,3.88084 0.76051,0.75421 1.7317,1.92891 2.1582,2.61044 0.77706,1.24171 3.51522,3.28971 5.29203,3.95817 2.07682,0.78134 5.51748,1.00969 6.63662,0.44048 0.47526,-0.24172 1.15926,-0.43949 1.52,-0.43949 0.36074,0 0.65589,-0.12798 0.65589,-0.28439 0,-0.24561 1.89176,-0.76792 2.42161,-0.6686 0.10277,0.0193 0.42795,-0.23983 0.72263,-0.57576 0.29467,-0.33594 0.85976,-0.78246 1.25576,-0.99228 0.396,-0.20982 0.72,-0.58527 0.72,-0.83433 0,-0.24906 0.18724,-0.568 0.41608,-0.70874 0.63369,-0.38973 1.18392,-2.66048 1.18392,-4.88587 0,-1.56956 -0.18791,-2.34296 -0.88,-3.62196 -1.14781,-2.121164 -4.41573,-5.305711 -7.01088,-6.832019 -0.73199,-0.430508 -1.39826,-0.958297 -1.48059,-1.172864 -0.13987,-0.364489 -1.32349,-0.440915 -4.34053,-0.280268 -1.47159,0.07836 -3.248,1.847849 -3.248,3.235356 0,2.322522 2.21277,5.518395 4.06616,5.872685 1.32319,0.25295 2.21883,-0.35443 3.02425,-2.050877 0.40738,-0.858048 0.83894,-1.560086 0.95904,-1.560086 0.12009,0 0.5501,0.536774 0.95556,1.192832 0.59422,0.961465 0.73721,1.648161 0.73721,3.540341 0,2.34102 -0.004,2.35049 -1.27111,3.42993 -1.59073,1.35459 -2.09874,1.46518 -6.1815,1.34565 -2.72191,-0.0797 -3.3647,-0.19396 -3.6159,-0.64283 -0.16803,-0.30026 -0.51436,-0.54592 -0.76961,-0.54592 -0.6924,0 -1.82026,-1.25996 -1.61251,-1.80137 0.11627,-0.30297 0.0484,-0.38987 -0.18963,-0.24276 -0.24858,0.15363 -0.30248,0.0513 -0.1636,-0.31064 0.12361,-0.32211 -0.0247,-0.77153 -0.3677,-1.11457 -1.23627,-1.23628 -1.74349,-3.239911 -1.75448,-6.930663 -0.0118,-3.955338 0.68805,-6.841651 1.7246,-7.112713 0.3251,-0.08502 0.67457,-0.570829 0.79058,-1.099018 0.11909,-0.542192 0.50288,-1.065664 0.89828,-1.22521 0.3797,-0.153209 1.17322,-0.701616 1.76339,-1.218678 1.10884,-0.971478 2.89001,-1.344745 6.41391,-1.344118 1.86132,3.2e-4 5.72952,0.797929 6.94566,1.432153 0.51007,0.266003 1.09695,0.484528 1.30417,0.485613 0.20723,9.6e-4 0.65995,0.361971 1.00606,0.801971 0.3461,0.44 0.75256,0.800688 0.90322,0.80153 0.33772,0.0019 2.20095,1.760192 3.42029,3.227677 0.49849,0.599935 1.32649,1.584729 1.84,2.188428 0.51351,0.603699 0.93366,1.337379 0.93366,1.630403 0,0.293024 0.28888,0.794205 0.64196,1.113738 0.35308,0.319533 0.56877,0.654163 0.4793,0.743626 -0.0895,0.08947 0.039,0.390348 0.28557,0.66863 1.64394,1.855731 2.0256,3.854791 1.86831,9.785971 -0.0789,2.97426 -0.15224,3.29398 -1.04,4.53231 -0.52533,0.73277 -0.95514,1.49746 -0.95514,1.6993 0,0.64811 -1.74854,4.1451 -2.08,4.1599 -0.176,0.008 -0.66021,0.44499 -1.07602,0.97139 -0.41581,0.5264 -0.91981,0.96416 -1.12,0.9728 -0.20019,0.009 -0.93998,0.58624 -1.64398,1.28359 -1.52445,1.51002 -3.31185,2.43405 -5.28,2.72959 -0.792,0.11892 -1.69822,0.44103 -2.01383,0.71578 -1.16718,1.01611 -9.82617,0.74871 -9.82617,-0.30344 0,-0.14111 -0.60665,-0.41991 -1.34811,-0.61957 -1.40318,-0.37783 -6.12988,-2.64807 -6.85394,-3.29195 -1.04353,-0.92797 -1.39296,-1.1697 -1.69085,-1.1697 -0.17595,0 -1.16292,-0.85355 -2.19328,-1.89678 -1.41683,-1.43454 -2.07647,-2.42882 -2.70681,-4.08 -1.07963,-2.82791 -2.1671,-6.50544 -2.1671,-7.32825 0,-0.35584 -0.18,-0.82714 -0.4,-1.04734 -0.28805,-0.28831 -0.4,-1.89595 -0.4,-5.743998 0,-3.276531 -0.12379,-5.385737 -0.32,-5.452473 -0.46278,-0.157399 -2.07799,0.994377 -2.07908,1.482547 -6.4e-4,0.227539 -0.62549,1.091539 -1.38885,1.92 -0.76336,0.828461 -1.48901,1.722291 -1.61255,1.986291 -0.50426,1.077565 -1.13486,2.037577 -1.76052,2.680153 -1.10045,1.13021 -2.4034,2.85482 -3.05213,4.03985 -0.33722,0.616 -1.02122,1.59301 -1.52,2.17113 -0.49878,0.57812 -0.90687,1.20172 -0.90687,1.38577 0,0.18405 -0.504,1.09394 -1.12,2.02199 -0.616,0.92804 -1.12,1.86668 -1.12,2.08587 0,0.21918 -0.19231,0.85228 -0.42735,1.40687 -0.97759,2.30673 -1.23028,3.40982 -1.49667,6.53364 -0.30513,3.57813 -0.0339,4.63239 1.52402,5.92418 0.396,0.32835 0.72,0.73025 0.72,0.89313 0,0.16286 0.576,0.90763 1.28,1.65503 0.704,0.7474 1.28,1.52769 1.28,1.73398 0,0.20629 0.108,0.42307 0.24,0.48174 0.132,0.0587 0.49657,0.66113 0.81015,1.33881 0.48558,1.04939 0.68362,1.20366 1.33515,1.04014 0.42074,-0.1056 1.79529,-1.20006 3.05456,-2.43214 1.25926,-1.23208 2.47681,-2.24014 2.70567,-2.24014 0.22886,0 0.59935,-0.2208 0.82331,-0.49066 0.22397,-0.26986 0.56278,-0.4388 0.75292,-0.37542 0.19014,0.0634 0.70161,-0.21477 1.13659,-0.61811 0.43498,-0.40334 1.19525,-0.82216 1.68949,-0.93071 0.49423,-0.10855 1.36515,-0.43295 1.93538,-0.72089 0.80353,-0.40574 1.97267,-0.52226 5.19678,-0.51792 2.288,0.003 4.448,0.0954 4.8,0.20517 0.352,0.10976 0.88172,0.21059 1.17714,0.22405 0.29543,0.0135 0.72743,0.20449 0.96,0.42449 0.23258,0.22 0.88657,0.42986 1.45331,0.46636 1.03854,0.0669 2.81384,0.99601 2.50095,1.3089 -0.0927,0.0927 0.4068,0.42617 1.11002,0.74101 0.70322,0.31484 1.27858,0.72348 1.27858,0.90808 0,0.18461 0.18067,0.33565 0.40148,0.33565 0.22082,0 0.90482,0.65821 1.52,1.46268 0.61519,0.80448 1.50502,1.82782 1.97742,2.2741 0.47239,0.44627 1.09647,1.40806 1.38684,2.13731 0.29037,0.72925 0.75418,1.57791 1.0307,1.88591 0.27651,0.308 0.40473,0.56 0.28494,0.56 -0.1198,0 0.0379,0.468 0.3504,1.04 0.47206,0.86401 0.56752,1.83672 0.5641,5.74811 -0.003,3.30891 -0.12176,4.82577 -0.4,5.104 -0.21773,0.21774 -0.39588,0.59269 -0.39588,0.83324 0,0.24054 -0.36,0.90933 -0.8,1.4862 -0.44,0.57687 -0.8,1.28726 -0.8,1.57865 0,0.29139 -0.252,0.79025 -0.56,1.10859 -0.308,0.31834 -1.63747,1.72234 -2.95438,3.12 -2.3163,2.45833 -4.16719,3.9812 -4.83872,3.9812 -0.17857,0 -0.23567,0.144 -0.1269,0.32 0.10877,0.176 0.0453,0.32 -0.14111,0.32 -0.57207,0 -0.37589,1.45942 0.30111,2.24 0.352,0.40586 0.64,0.92161 0.64,1.14611 0,0.2245 0.24653,0.65471 0.54784,0.95602 0.63067,0.63067 0.61582,0.58712 1.1378,3.33787 0.21709,1.144 0.48837,2.224 0.60285,2.4 0.28286,0.43488 0.40269,2.12962 0.19232,2.72 -0.0941,0.264 -0.34713,1.344 -0.56235,2.4 -0.59398,2.91447 -1.2701,4.97907 -2.11454,6.45699 -0.42016,0.73534 -0.76392,1.55586 -0.76392,1.82338 0,0.92221 -6.83895,8.51963 -7.66908,8.51963 -0.18955,0 -0.92921,0.38685 -1.64368,0.85967 -1.10894,0.73386 -1.26995,0.97971 -1.10027,1.68 0.10931,0.45118 0.21697,1.00033 0.23923,1.22033 0.0222,0.22 0.17587,0.4 0.34137,0.4 0.1655,0 0.21802,0.216 0.11671,0.48 -0.10131,0.264 -0.0384,0.48 0.13979,0.48 0.17819,0 0.29118,0.18 0.25109,0.4 -0.0401,0.22 0.20249,0.976 0.53909,1.68 0.49585,1.0371 0.61096,1.9887 0.60658,5.01452 -0.003,2.08472 -0.16358,4.06385 -0.36344,4.48 -0.19693,0.41001 -0.53411,1.42948 -0.7493,2.26548 -0.2152,0.836 -0.54055,1.52 -0.72301,1.52 -0.18246,0 -0.24149,0.0903 -0.13118,0.20057 0.29086,0.29086 -0.70778,2.09334 -1.04449,1.88525 -0.15583,-0.0963 -0.38462,0.15098 -0.50841,0.54954 -0.22639,0.72886 -1.94965,2.48464 -2.43864,2.48464 -0.1443,0 -0.26236,0.22052 -0.26236,0.49004 0,0.26953 -0.241,0.58253 -0.53556,0.69556 -0.29455,0.11303 -0.80056,0.47052 -1.12445,0.79442 -0.56457,0.56456 -0.56558,0.62459 -0.0245,1.45273 0.31045,0.47512 0.88576,1.21123 1.27846,1.63581 0.3927,0.42458 0.6362,0.89784 0.54112,1.0517 -0.0951,0.15386 -0.0156,0.27974 0.17678,0.27974 0.34461,0 1.54054,1.77691 1.61531,2.4 0.0211,0.176 0.21726,0.536 0.43588,0.8 0.21862,0.264 0.38339,0.696 0.36617,0.96 -0.0172,0.264 0.2362,0.72205 0.56318,1.01789 0.64516,0.58373 1.50756,4.10712 1.50756,6.15927 0,0.69158 -0.16355,1.77163 -0.36344,2.40012 -0.84433,2.65473 -3.04236,6.63265 -3.94451,7.13864 -0.23134,0.12975 -0.51621,0.61675 -0.63303,1.08222 -0.21523,0.85756 -1.33175,2.01173 -1.96495,2.03122 -0.19026,0.006 -0.52036,0.33464 -0.73355,0.73064 -0.21319,0.396 -0.95195,0.99246 -1.64168,1.32545 -1.73618,0.83823 -2.88986,2.17442 -2.49169,2.88591 0.16852,0.30113 0.23145,0.74285 0.13983,0.9816 -0.0916,0.23874 0.0223,0.50656 0.25317,0.59515 0.23086,0.0886 0.49669,0.5685 0.59074,1.06648 0.0941,0.49798 0.41401,1.76941 0.71102,2.82541 1.04256,3.70668 0.80882,9.89007 -0.53691,14.20379 -0.29356,0.94102 -1.29242,2.34746 -2.345,3.30187 -3.11738,2.82663 -3.90391,3.43689 -4.25567,3.30191 -0.22966,-0.0881 -0.3296,-0.0179 -0.22207,0.15609 0.10753,0.17399 -0.029,0.31634 -0.30338,0.31634 -0.27438,0 -0.49888,0.1525 -0.49888,0.33889 0,0.18638 -0.14502,0.24925 -0.32226,0.13971 -0.17725,-0.10954 -0.40536,0.0174 -0.50693,0.28207 -0.19692,0.51317 -3.31705,1.63606 -5.52881,1.98973 -0.7349,0.11752 -1.41349,0.33875 -1.50798,0.49163 -0.26606,0.43051 -4.63125,0.30084 -5.97112,-0.17737 z"
       id="path3189" />
    <path
       style="fill:#008000;stroke-width:0.32"
       d="m 86.88,119.36 c 0.108774,-0.176 0.411421,-0.32 0.67255,-0.32 0.261127,0 1.240154,-0.56542 2.175616,-1.25649 3.135751,-2.31651 4.351834,-3.71855 4.351834,-5.01728 0,-1.0403 0.97337,-1.72623 2.449597,-1.72623 0.768832,0 1.390403,0.15211 1.390403,0.34027 0,0.18992 0.448448,0.29597 1.014886,0.24 1.132854,-0.11193 1.851354,-1.10608 2.540954,-3.51578 0.21792,-0.76147 0.52234,-1.55209 0.67649,-1.75693 0.15416,-0.20484 0.36664,-1.42884 0.47219,-2.72 0.10554,-1.29116 0.30742,-2.42387 0.44862,-2.51713 0.38809,-0.25635 -0.64044,-4.809188 -1.34581,-5.957323 -1.05224,-1.712713 -1.69017,-1.936054 -5.68044,-1.988726 -3.183943,-0.04203 -3.757594,-0.135299 -4.64,-0.754422 -0.553789,-0.388554 -1.182311,-0.927751 -1.396714,-1.198212 -0.482227,-0.608316 -0.529792,-2.644134 -0.07246,-3.101465 0.653331,-0.653331 -0.126006,-2.142851 -2.134608,-4.079789 l -2.022665,-1.950496 1.615856,-1.751308 c 0.88872,-0.96322 1.457091,-1.804228 1.263046,-1.868909 C 88.22737,78.315786 87.36,76.691812 87.36,76.027025 c 0,-0.755091 1.839194,-2.666938 3.976173,-4.133251 L 93.28,70.559998 l 4.947661,-0.16 4.947659,-0.16 1.21073,-1.6 c 0.70198,-0.927683 1.2114,-1.96184 1.21234,-2.461114 9.6e-4,-0.473612 0.14561,-0.950112 0.32161,-1.058886 0.65148,-0.40264 -0.0555,-4.266499 -0.79791,-4.360992 -0.17715,-0.02256 -0.82609,-0.05855 -1.44209,-0.08 -1.08657,-0.03784 -1.12817,-0.08677 -1.39359,-1.639008 -0.15047,-0.88 -0.54647,-2.212 -0.88,-2.96 -1.3145,-2.948032 -2.067188,-4.409273 -2.52641,-4.904691 -0.264,-0.284809 -0.752058,-0.899616 -1.084573,-1.36624 -0.862989,-1.211043 -2.934195,-1.734 -4.14136,-1.045651 -1.333827,0.760576 -2.094512,0.650598 -2.513661,-0.363418 -0.200064,-0.484 -0.342182,-0.982953 -0.315817,-1.108787 0.0961,-0.458688 -2.96272,-3.178364 -4.236016,-3.766339 -0.719715,-0.332349 -1.75528,-1.009405 -2.301255,-1.504569 -1.446624,-1.312 -2.476598,-2.123098 -3.31406,-2.609799 -1.112692,-0.646652 -1.282775,-0.09357 -1.288359,4.189495 -0.0026,2.068 -0.135417,3.759999 -0.294941,3.759999 -0.159523,0 -0.217139,0.278778 -0.128038,0.619504 0.179958,0.68816 -0.71832,0.969085 -3.503677,1.095725 -1.78191,0.08102 -2.057517,0.296032 -1.596163,1.245255 0.363414,0.747705 0.532106,1.440809 1.070784,4.399516 0.17624,0.968 0.456944,1.8968 0.623786,2.064 0.166844,0.1672 0.30335,1.72897 0.30335,3.470602 0,2.688422 -0.09994,3.306947 -0.661789,4.096 -0.609997,0.856659 -0.818803,0.929398 -2.667942,0.929398 -1.960445,0 -2.036499,-0.03238 -3.338211,-1.421203 C 68.759427,63.077134 68.16,62.350587 68.16,62.244251 c 0,-0.106339 -0.346029,-0.539373 -0.768957,-0.962301 -0.422925,-0.422925 -1.132925,-1.532381 -1.577776,-2.465453 -0.444851,-0.933075 -1.322505,-2.236499 -1.950342,-2.896499 -0.62784,-0.66 -1.07464,-1.2 -0.992893,-1.2 0.08175,0 -0.355366,-0.504 -0.971366,-1.12 -0.616,-0.616 -1.269485,-1.12 -1.452189,-1.12 -0.182704,0 -0.548192,-0.216 -0.812192,-0.48 -0.315613,-0.315616 -1.111575,-0.48 -2.324179,-0.48 h -1.84418 l 0.270813,1.980224 c 0.357856,2.616717 -0.0075,2.969712 -1.577216,1.523895 -1.687232,-1.554048 -2.429267,-1.904119 -4.036102,-1.904119 -0.772893,0 -1.89144,-0.203139 -2.485661,-0.45142 -0.786643,-0.328679 -1.471574,-0.375972 -2.519082,-0.173936 -0.791273,0.152617 -2.186179,0.283756 -3.099792,0.29142 -0.913612,0.0077 -1.750112,0.157936 -1.858886,0.333936 -0.108774,0.176 -0.611709,0.32 -1.117629,0.32 -0.765603,0 -0.936841,0.147571 -1.021117,0.88 -0.109139,0.948522 0.04566,1.172128 3.098746,4.476029 1.056,1.142752 2.035155,2.277136 2.175901,2.520851 0.140745,0.243715 0.464413,0.44312 0.719257,0.44312 0.254848,0 0.986976,0.493891 1.626954,1.097539 1.42153,1.340826 1.29399,2.102461 -0.35207,2.102461 -1.822087,0 -2.730042,0.359882 -2.730042,1.082096 0,1.389747 2.324602,4.037904 3.544554,4.037904 0.338496,0 0.615446,0.110029 0.615446,0.244512 0,0.2912 1.605235,1.004265 5.744221,2.55166 5.085808,1.90137 6.842445,3.369108 6.842445,5.717123 0,1.308922 -0.611485,2.366704 -1.368151,2.366704 -0.19096,0 -0.621104,0.171056 -0.955875,0.380125 -0.475635,0.29704 -0.91183,0.284442 -1.995658,-0.05764 C 54.224141,81.041709 53.456,80.745809 53.28,80.624919 c -0.757741,-0.520467 -4.104246,-1.584922 -4.98279,-1.584922 -0.620432,0 -1.267642,-0.310547 -1.834004,-0.879999 -1.555344,-1.563831 -3.56079,-2.063997 -8.030211,-2.002765 -2.181853,0.02989 -4.315229,0.186742 -4.740832,0.348557 -0.425606,0.161814 -1.268451,0.294208 -1.872995,0.294208 -0.604542,0 -1.099168,0.134435 -1.099168,0.298745 0,0.164311 -0.384895,0.344311 -0.855322,0.4 -1.405495,0.166384 -1.338199,0.513139 0.52939,2.727747 0.179263,0.212573 0.325932,0.752573 0.325932,1.2 0,0.737283 -0.121299,0.813507 -1.294546,0.813507 -0.954181,0 -1.504882,0.210336 -2.094545,0.8 -0.44,0.44 -0.930707,0.8 -1.090459,0.8 -0.159753,0 -0.987741,0.642304 -1.839973,1.427344 -1.47733,1.360855 -3.389482,2.800599 -4.737341,3.566954 -1.282722,0.729321 -0.878949,1.26663 2.003556,2.666163 4.288542,2.082201 5.251127,2.496541 6.813308,2.932739 2.201481,0.614704 2.312152,0.773728 2.188813,3.145123 L 30.56,99.670451 l 0.96,0.206912 c 0.528,0.113802 2.296624,0.223947 3.930278,0.244777 3.22369,0.0411 4.396973,-0.288306 5.989722,-1.681586 0.528,-0.461876 1.056243,-0.839952 1.173872,-0.840167 0.117629,-2.14e-4 0.973021,-0.64839 1.900874,-1.44039 0.927849,-0.792 1.839609,-1.444006 2.026128,-1.448902 0.186518,-0.0049 0.904777,-0.436896 1.596131,-0.96 0.691353,-0.523104 1.483353,-0.953268 1.76,-0.955917 0.276646,-0.0026 1.078995,-0.21233 1.782995,-0.465952 1.398381,-0.503786 4.969949,-0.649187 5.456,-0.222119 0.1672,0.146909 0.966586,0.51064 1.776413,0.808292 0.950656,0.349414 1.602672,0.827065 1.84,1.347948 0.481219,1.05616 0.454182,3.999482 -0.04259,4.636618 -0.331386,0.425014 -1.518141,1.125535 -3.762694,2.221045 -0.271082,0.13231 -1.423082,0.34164 -2.56,0.46518 -4.428237,0.48117 -6.06713,1.14737 -6.06713,2.46624 0,0.75532 0.224045,1.00429 1.36,1.5113 0.748,0.33386 1.615267,0.69134 1.927258,0.79439 0.664518,0.21949 1.095113,1.1343 0.675056,1.43417 -0.160023,0.11424 -0.627047,0.87499 -1.037834,1.69056 -0.41079,0.81557 -1.092845,1.64048 -1.515683,1.83314 -0.526154,0.23973 -0.768797,0.61413 -0.768797,1.18628 v 0.83598 l 3.28,-0.17334 c 1.804,-0.0953 3.871754,-0.26564 4.595011,-0.37845 1.190413,-0.18567 1.334019,-0.13411 1.515629,0.54421 0.31048,1.15965 0.245187,2.82933 -0.11064,2.82933 -0.176,0 -0.32,0.432 -0.32,0.96 0,0.88451 0.08841,0.96 1.124342,0.96 0.618388,0 1.374388,-0.1272 1.68,-0.28267 0.305613,-0.15546 0.987658,-0.47923 1.515658,-0.71949 0.528,-0.24025 1.065795,-0.58105 1.195101,-0.75733 0.129305,-0.17628 0.237305,-0.21224 0.24,-0.0799 0.01139,0.55964 2.486985,-1.15732 4.182406,-2.90074 1.008026,-1.03656 2.041987,-1.96494 2.297696,-2.06306 0.255706,-0.0981 0.798416,-1.09155 1.206023,-2.20762 0.407603,-1.11606 0.934076,-2.25654 1.169936,-2.5344 0.235862,-0.27786 0.428838,-0.60025 0.428838,-0.71643 0,-0.11617 0.655648,-1.07335 1.456992,-2.12705 1.771754,-2.32969 3.159363,-2.9194 5.335434,-2.26743 1.097347,0.32877 2.487574,1.3425 2.487574,1.81389 0,0.67861 -1.691315,4.92222 -1.961782,4.92222 -0.113053,0 -0.306093,0.67048 -0.428983,1.48995 -0.122886,0.81948 -0.427238,1.69376 -0.676333,1.94286 -0.638284,0.63828 -0.573155,1.90148 0.107098,2.07721 0.308,0.0796 1.424,0.0442 2.48,-0.0785 2.123549,-0.24684 2.72,0.005 2.72,1.14878 0,0.40806 0.144,0.83093 0.32,0.93971 0.176,0.10877 0.32,1.05327 0.32,2.09888 0,1.80227 0.04061,1.90112 0.781114,1.90112 0.429612,0 0.870112,-0.144 0.978887,-0.32 z"
       id="path3252" />
    <path
       style="fill:#6c5353;stroke-width:0.32"
       d="m 114.35618,121.1181 c 0.54331,-0.54331 0.483,-0.35574 1.6456,-5.1181 0.47262,-1.936 1.20557,-4.05692 1.62877,-4.71314 0.4232,-0.65623 0.76945,-1.33136 0.76945,-1.50029 0,-0.36761 1.92917,-3.95794 2.24954,-4.18657 0.12331,-0.088 0.323,-0.47673 0.44376,-0.86383 0.12076,-0.3871 0.8778,-1.3951 1.68232,-2.24 0.80451,-0.8449 1.89329,-2.32531 2.4195,-3.289802 0.52621,-0.964499 1.19356,-1.972499 1.483,-2.24 0.28944,-0.267504 0.73318,-0.889062 0.9861,-1.381241 0.25291,-0.49218 0.93593,-1.451072 1.51781,-2.130871 0.58188,-0.679798 1.05815,-1.357104 1.05836,-1.505126 9.6e-4,-0.762045 5.63985,-6.452454 6.65451,-6.715485 0.4042,-0.104781 0.81268,-0.112733 0.90775,-0.01766 0.3044,0.3044 0.13281,9.53823 -0.20024,10.775059 -0.61993,2.30225 0.7967,12.898356 1.90257,14.230856 0.33882,0.40825 0.67251,1.46474 0.73405,2.32402 0.0152,0.21226 0.14041,0.31623 0.27825,0.23104 0.13783,-0.0852 0.42463,0.17315 0.63732,0.57408 0.64268,1.21145 4.90799,5.04896 5.61182,5.04896 0.12778,0 0.53099,0.28057 0.89601,0.62349 0.36503,0.34293 1.45431,0.75978 2.42063,0.92634 0.96632,0.16656 2.8946,0.61364 4.28507,0.99352 3.20581,0.87581 4.9546,0.73347 9.69578,-0.78918 2.19445,-0.70476 7.34985,-4.77526 8.67467,-6.84918 0.62713,-0.98175 1.32385,-1.96962 1.54826,-2.19528 0.52965,-0.53259 0.6833,-1.61521 0.91945,-6.47823 0.20966,-4.31753 -0.18296,-6.389169 -1.4734,-7.774298 -0.33709,-0.361824 -0.61289,-0.846707 -0.61289,-1.07752 0,-0.230813 -0.144,-0.419661 -0.32,-0.419661 -0.176,0 -0.32,-0.222544 -0.32,-0.494544 0,-0.272 -0.324,-0.836861 -0.72,-1.255242 -0.396,-0.418384 -1.11369,-1.203836 -1.59486,-1.745456 -0.48117,-0.541616 -0.94917,-0.984758 -1.04,-0.984758 -0.0908,0 -0.42846,-0.252 -0.75029,-0.56 -1.73667,-1.662025 -5.11451,-3.6 -6.27471,-3.6 -0.27507,0 -0.50014,-0.144 -0.50014,-0.32 0,-0.394198 -5.21795,-0.433907 -6.00434,-0.04569 -0.30562,0.150871 -0.98766,0.49456 -1.51566,0.763754 -0.528,0.269197 -1.55446,0.587453 -2.28102,0.707235 -1.35679,0.223683 -2.1353,0.885021 -2.99898,2.547594 -0.5859,1.127849 -0.6678,7.056428 -0.11354,8.218665 0.20156,0.422646 0.74331,1.578381 1.2039,2.568301 0.48353,1.03924 1.50615,2.42536 2.41983,3.28 1.4791,1.38353 1.69562,1.48015 3.31692,1.48015 1.84173,0 2.26671,-0.2668 2.61117,-1.63923 0.19319,-0.76973 0.0382,-0.92995 -1.96539,-2.03125 -3.10887,-1.70884 -3.91514,-2.833193 -4.6615,-6.500476 -0.54685,-2.686967 0.13779,-3.607732 3.63229,-4.885015 1.82666,-0.667667 4.27163,-0.829395 4.59632,-0.304035 0.10877,0.176 0.473,0.32 0.8094,0.32 0.3364,0 1.39867,0.36 2.36061,0.8 0.96194,0.44 1.88486,0.8 2.05094,0.8 0.16607,0 0.85633,0.684 1.5339,1.52 0.67757,0.836 1.37891,1.68393 1.55855,1.884291 0.96363,1.074829 1.4466,1.757146 1.4466,2.043709 0,0.176377 0.1272,0.570729 0.28267,0.876342 1.05152,2.067074 1.15193,2.587864 1.15456,5.988414 0.002,2.47684 -0.13673,3.84752 -0.44819,4.43092 -0.4483,0.8397 -5.09052,5.65633 -5.45153,5.65633 -0.10392,0 -0.69037,0.33934 -1.30323,0.75409 -2.21298,1.49764 -6.27737,1.70278 -9.27428,0.46811 -4.70504,-1.93839 -4.75231,-1.96609 -7.13433,-4.1822 -0.70941,-0.66 -1.45935,-1.2 -1.66654,-1.2 -0.20718,0 -0.56679,-0.576 -0.79913,-1.28 -0.23234,-0.704 -0.52704,-1.28 -0.65489,-1.28 -0.12784,0 -0.32911,-0.64465 -0.44726,-1.43254 -0.11816,-0.7879 -0.35051,-1.5164 -0.51634,-1.61889 -0.16583,-0.10249 -0.30151,-0.50905 -0.30151,-0.90346 0,-0.39441 -0.13004,-0.85391 -0.28898,-1.02111 -0.62137,-0.65368 -1.24492,-9.728528 -0.74403,-10.82824 0.16929,-0.371673 0.4719,-1.323766 0.67248,-2.115766 0.20057,-0.792 0.58274,-2.304 0.84928,-3.36 0.93872,-3.719254 1.50998,-5.771539 1.91505,-6.88 0.7247,-1.983091 2.1502,-4.956918 2.42708,-5.063289 0.14787,-0.05681 0.3636,-0.608307 0.4794,-1.225549 0.11579,-0.617241 0.40752,-1.197849 0.64829,-1.29024 0.24076,-0.09239 0.3513,-0.307869 0.24563,-0.478841 -0.10566,-0.17097 0.25517,-0.867437 0.80184,-1.547703 0.54668,-0.680268 0.99396,-1.323315 0.99396,-1.428995 0,-0.105677 0.29357,-0.507257 0.65238,-0.892393 0.35881,-0.38514 0.73443,-1.02712 0.8347,-1.426621 0.10026,-0.399504 0.31069,-0.726368 0.46761,-0.726368 0.15692,0 0.28531,-0.137456 0.28531,-0.305456 0,-0.168 0.324,-0.654064 0.72,-1.080147 1.64708,-1.772199 2.48,-2.801821 2.48,-3.065693 0,-0.154128 0.216,-0.363117 0.48,-0.464426 0.264,-0.101305 0.48,-0.34632 0.48,-0.544473 0,-0.35209 1.12321,-1.594672 6.16,-6.814704 1.364,-1.413622 2.48,-2.77432 2.48,-3.023773 0,-0.485001 -0.1781,-0.480137 -7.84,0.214189 -6.18437,0.560429 -6.17869,0.558595 -6.96393,2.248423 -0.37725,0.811833 -0.80069,1.52406 -0.94099,1.582726 -0.14029,0.05867 -0.25508,0.310669 -0.25508,0.56 0,0.249334 -0.12136,0.453334 -0.26969,0.453334 -0.25735,0 -0.96213,1.308093 -2.11203,3.92 -0.29057,0.66 -0.65585,1.2 -0.81173,1.2 -0.15588,0 -0.37547,0.290026 -0.48798,0.644502 -0.11251,0.354477 -0.84221,1.291312 -1.62156,2.08186 -0.77936,0.790544 -1.41701,1.703913 -1.41701,2.029708 0,0.703843 -4.54291,5.354615 -7.04,7.207149 -2.15437,1.598278 -9.45991,5.316781 -10.44559,5.316781 -0.39415,0 -0.79514,0.127011 -0.89108,0.282243 -0.0959,0.155235 -1.11092,0.382534 -2.25552,0.50511 -1.14459,0.122576 -2.16309,0.355565 -2.26333,0.517757 -0.10024,0.162189 -0.81325,0.294889 -1.58448,0.294889 -0.77123,0 -1.49123,0.144 -1.6,0.32 -0.10877,0.176 -1.1879,0.32 -2.39805,0.32 -1.21016,0 -2.53366,0.113111 -2.94112,0.251354 -1.43137,0.485648 -12.80339,-0.313888 -18.82083,-1.323242 -2.409082,-0.404096 -2.756579,-0.400947 -3.04,0.02755 -2.006781,3.033924 -1.981827,2.559476 -0.25399,4.828967 0.579785,0.761542 1.143884,1.742131 1.253552,2.179088 0.146672,0.58438 0.337043,0.734131 0.71992,0.566304 2.670288,-1.17049 3.725987,-1.316544 7.400518,-1.02386 2.024,0.16122 5.192,0.210992 7.04,0.110608 1.848,-0.100384 4.728,-0.23302 6.4,-0.294748 1.672,-0.06173 3.832,-0.282429 4.8,-0.490448 0.968,-0.208023 2.22933,-0.460132 2.80297,-0.560247 0.57363,-0.100115 1.12212,-0.310118 1.21888,-0.466672 0.0968,-0.156566 0.59639,-0.284656 1.1103,-0.284656 1.38165,0 5.50853,-1.42942 8.81366,-3.052777 1.5982,-0.784973 3.0022,-1.427223 3.12,-1.427223 0.58497,0 0.0898,1.34744 -0.89839,2.444666 -0.61191,0.679434 -1.11591,1.343334 -1.12,1.475334 -0.004,0.132 -0.22698,0.24 -0.49534,0.24 -0.26836,0 -0.61314,0.324 -0.76618,0.72 -0.28451,0.736202 -0.75137,1.351648 -2.73086,3.6 -2.95507,3.356445 -3.36069,3.867149 -3.36762,4.24 -0.004,0.22 -0.11567,0.4 -0.24797,0.4 -0.1323,0 -0.58431,0.648 -1.00447,1.44 -0.42015,0.792 -0.87044,1.44 -1.00062,1.44 -0.1302,0 -0.41137,0.421654 -0.62484,0.937005 -0.21346,0.515353 -0.59093,1.014835 -0.83882,1.109958 -0.24788,0.09512 -0.4507,0.46095 -0.4507,0.812947 0,0.352 -0.5987,1.544519 -1.33044,2.650048 -0.73175,1.10553 -1.56696,2.37005 -1.85605,2.81005 -0.66978,1.01944 -2.25351,4.39895 -2.25351,4.80875 0,0.17118 -0.144,0.31125 -0.32,0.31125 -0.176,0 -0.32401,0.18 -0.3289,0.4 -0.005,0.22 -0.43461,0.96258 -0.95492,1.65018 -0.5203,0.6876 -1.03066,1.7676 -1.13412,2.4 -0.10347,0.6324 -0.31071,1.43782 -0.46055,1.78982 -0.14984,0.352 -0.36195,1.288 -0.47136,2.08 -0.10941,0.792 -0.2818,2.03971 -0.38308,2.77269 -0.16787,1.21486 -0.11708,1.3454 0.57439,1.47642 1.43762,0.2724 1.83433,0.22939 2.31472,-0.25101 z"
       id="path3250" />
    <path
       id="path3248"
       style="fill:#ffcc00;stroke-width:0.32"
       d="M 103.67203 122.56644 C 103.34143 122.55207 103.04117 122.63131 103.04117 122.81644 C 103.04117 122.95803 102.43471 123.11059 101.69352 123.15433 C 100.95232 123.19803 100.19467 123.35028 100.01188 123.49222 C 99.829077 123.63416 98.960233 124.00128 98.080234 124.30862 C 95.972879 125.04463 94.97411 125.51096 94.455234 126.00198 C 94.221046 126.2236 93.912247 126.33422 93.769688 126.24612 C 93.627131 126.15802 93.275745 126.44436 92.988438 126.88284 C 92.701129 127.32133 92.288364 127.68253 92.072422 127.68558 C 91.85648 127.68858 91.34041 128.0494 90.925938 128.48636 C 90.511464 128.92331 90.035258 129.27933 89.867344 129.27933 C 89.699431 129.27933 89.652265 129.42424 89.761875 129.60159 C 89.871484 129.77894 89.736317 130.15059 89.461094 130.42581 C 89.185872 130.70103 88.961094 131.27573 88.961094 131.70316 C 88.961094 132.13059 88.816781 132.4805 88.640781 132.4805 C 88.464781 132.4805 88.320469 132.73987 88.320469 133.05667 C 88.320469 133.37347 88.188012 133.76838 88.0275 133.93558 C 87.866985 134.10278 87.659586 135.03203 87.566563 136.00003 C 87.473543 136.96803 87.301468 138.29902 87.18375 138.95902 C 87.042099 139.75318 87.089429 140.16019 87.324375 140.16019 C 87.544551 140.16019 87.679844 140.88152 87.679844 142.06058 C 87.679844 143.10619 87.824156 144.05141 88.000156 144.16019 C 88.176156 144.26896 88.320469 144.86255 88.320469 145.47855 C 88.320469 146.09455 88.450068 146.51655 88.609531 146.418 C 88.768993 146.3195 88.998245 146.95972 89.119297 147.83987 C 89.24035 148.72004 89.471531 149.43948 89.631016 149.43948 C 89.7905 149.43948 89.920078 149.60719 89.920078 149.81058 C 89.920078 150.31168 91.47554 152.32034 91.863438 152.32034 C 92.034256 152.32034 92.981306 153.11399 93.966953 154.08402 C 94.952597 155.05403 96.13719 155.93996 96.599766 156.05277 C 97.062344 156.16558 97.783548 156.52448 98.203281 156.84964 C 98.623016 157.1748 99.227199 157.43948 99.545078 157.43948 C 99.862956 157.43948 100.2117 157.5838 100.32047 157.7598 C 100.57356 158.16931 102.01551 158.16853 103.75602 157.75784 C 108.85571 156.55468 110.26139 156.29575 110.42008 156.53323 C 110.6327 156.85138 113.45368 154.80692 114.82047 153.34378 C 115.34681 152.78032 115.93143 152.32034 116.1193 152.32034 C 116.30716 152.32034 116.38808 152.13336 116.30094 151.90628 C 116.21384 151.67921 116.5925 150.99568 117.14273 150.38675 C 118.54733 148.83235 120.32047 146.01623 120.32047 145.33792 C 120.32047 145.02454 120.49847 144.5896 120.71695 144.37112 C 120.99697 144.0911 121.11538 142.58566 121.11734 139.26761 L 121.1193 134.56058 L 119.84 132.16019 C 118.38215 129.42673 114.98409 125.80416 113.26383 125.15042 C 112.65682 124.91973 111.72737 124.54778 111.19938 124.3223 C 109.31945 123.51949 107.93243 123.19925 106.31656 123.19925 C 105.41544 123.19925 104.58939 123.05689 104.48063 122.88089 C 104.36305 122.69064 104.00264 122.58081 103.67203 122.56644 z M 66.316563 125.1387 C 65.494803 125.11408 64.941302 125.21237 64.800938 125.43948 C 64.692164 125.61548 64.114913 125.7598 63.519688 125.7598 C 62.924462 125.7598 62.349165 125.90411 62.240391 126.08011 C 62.131617 126.25611 61.763643 126.40042 61.422031 126.40042 C 61.080419 126.40042 60.800937 126.52181 60.800938 126.66995 C 60.800938 126.81809 60.254308 127.1012 59.588047 127.30081 C 58.921788 127.50043 58.064177 127.95629 57.681797 128.31253 C 57.299416 128.66877 56.86558 128.96097 56.716953 128.96097 C 56.284586 128.96097 53.919832 131.42061 53.418125 132.39261 C 53.16608 132.88091 52.780703 133.47059 52.560703 133.70316 C 52.340703 133.93573 52.160313 134.37938 52.160313 134.68948 C 52.160313 134.99957 52.064218 135.34808 51.947422 135.46487 C 51.440856 135.97143 50.533668 139.21246 50.351719 141.16605 C 50.10811 143.78171 50.722195 147.32819 51.644688 148.64066 C 52.0158 149.16866 52.320194 149.69533 52.320469 149.81253 C 52.320741 149.92972 52.643219 150.30697 53.039219 150.65042 C 53.435218 150.99387 53.759922 151.3483 53.759922 151.43753 C 53.759922 151.95597 56.096567 153.98035 57.599766 154.7637 C 58.567765 155.26815 59.40792 155.78881 59.466953 155.92191 C 59.525983 156.05501 59.67376 156.10235 59.795078 156.02737 C 59.916394 155.95237 60.515459 156.00853 61.127109 156.15237 C 63.058282 156.6066 66.330516 156.49713 68.320469 155.91214 C 70.297725 155.33089 73.572968 153.6039 74.254063 152.78323 C 74.465921 152.52796 74.835833 152.32034 75.078281 152.32034 C 75.320732 152.32034 75.519688 152.19292 75.519688 152.03714 C 75.519688 151.88136 76.167141 150.96598 76.959141 150.00394 C 77.75114 149.04191 78.400547 148.08894 78.400547 147.88675 C 78.400547 147.68457 78.520377 147.51956 78.668125 147.51956 C 78.97648 147.51956 79.527537 146.39198 80.228672 144.32034 C 80.49672 143.52834 80.854955 142.79147 81.025547 142.68362 C 81.374667 142.46292 81.45088 137.08081 81.12125 135.93948 C 81.003746 135.53263 80.632879 134.58986 80.295078 133.84378 C 79.957281 133.0977 79.679844 132.36217 79.679844 132.20902 C 79.679844 131.5547 77.414669 129.14983 75.703281 127.98831 C 73.771286 126.67706 72.901722 126.34231 69.439609 125.57816 C 68.226897 125.31049 67.138322 125.16333 66.316563 125.1387 z M 142.55289 129.49417 C 141.55112 129.5078 140.72726 129.6194 140.32047 129.84769 C 139.96847 130.04522 138.81592 130.51238 137.75992 130.88675 C 136.70392 131.26113 135.18463 131.97077 134.38297 132.46292 C 133.58132 132.95508 132.64524 133.44832 132.30289 133.55862 C 131.29557 133.88318 129.85754 135.38999 127.99039 138.08011 C 127.3796 138.96011 126.77278 139.72848 126.64078 139.78714 C 126.50878 139.84584 126.40055 140.23352 126.40055 140.64847 C 126.40055 141.06341 126.25623 141.49086 126.08023 141.59964 C 125.90423 141.70841 125.75992 142.21262 125.75992 142.71878 C 125.75992 143.22493 125.59429 144.04364 125.39078 144.53909 C 124.92888 145.66362 124.99005 146.17138 125.92398 148.96097 C 126.96024 152.05619 127.80278 153.87171 128.92008 155.41409 C 130.46944 157.55293 131.1532 157.7457 137.18961 157.74222 C 140.09376 157.74022 142.63319 157.8698 142.83414 158.02933 C 143.03508 158.18886 143.84878 158.41634 144.64078 158.53519 C 145.43278 158.65404 146.43906 158.95599 146.87906 159.20511 C 147.98158 159.82933 148.56896 159.78943 150.32438 158.97855 C 151.15845 158.59326 152.53965 157.65913 153.39469 156.90042 C 154.24972 156.14171 155.0637 155.51956 155.20328 155.51956 C 155.34286 155.51956 155.75953 155.00719 156.12906 154.38089 C 156.49859 153.75459 156.9435 153.33009 157.11734 153.43753 C 157.2961 153.54801 157.35239 153.42388 157.2482 153.15237 C 157.14689 152.88835 157.31288 152.19834 157.61734 151.61722 C 158.62505 149.69387 158.72086 149.45285 158.72086 148.8223 C 158.72086 148.4783 158.86322 148.1088 159.03922 148.00003 C 159.21522 147.89125 159.35953 147.45831 159.35953 147.03909 C 159.35953 146.61986 159.50384 146.18888 159.67984 146.08011 C 159.85584 145.97133 160.00016 144.81878 160.00016 143.51956 C 160.00016 142.22033 159.85584 141.06974 159.67984 140.96097 C 159.50384 140.85219 159.35994 140.44619 159.35953 140.06058 C 159.35921 139.67497 158.92702 138.85626 158.39859 138.24027 C 157.87015 137.62427 157.34572 136.8366 157.23453 136.49027 C 157.02713 135.8442 154.82869 133.43948 154.44547 133.43948 C 154.32802 133.43948 153.38894 132.86419 152.35758 132.16019 C 151.32622 131.45619 150.31838 130.88089 150.11734 130.88089 C 149.9163 130.88089 149.50108 130.75403 149.19547 130.59964 C 147.82057 129.90504 144.75679 129.46418 142.55289 129.49417 z M 84.502109 148.44925 C 83.943524 148.46674 83.223233 149.21463 82.2775 150.72269 C 81.505891 151.95309 80.752484 152.96097 80.603672 152.96097 C 80.454859 152.96097 80.047883 153.51806 79.699375 154.2012 C 79.290315 155.00302 78.522904 155.76276 77.533359 156.34183 C 76.690291 156.83519 75.808901 157.42672 75.576328 157.65823 C 75.343759 157.88974 75.017714 158.08011 74.849766 158.08011 C 74.383324 158.08011 75.352722 159.74937 76.291172 160.56058 C 76.749286 160.95658 77.201059 161.27933 77.295078 161.27933 C 77.389098 161.27933 77.776627 161.56795 78.154453 161.91995 C 78.532284 162.27195 79.007855 162.56058 79.211094 162.56058 C 79.414329 162.56058 80.573646 161.45604 81.789219 160.10745 C 83.004796 158.75886 84.244408 157.39815 84.543125 157.08402 C 84.841842 156.76989 85.633608 156.36636 86.302891 156.18558 C 88.647877 155.5522 88.840408 153.70419 86.812656 151.27933 C 86.187249 150.53145 85.526694 149.59525 85.345859 149.19925 C 85.113829 148.69113 84.83726 148.43875 84.502109 148.44925 z M 121.4318 152.44534 C 121.17967 152.40834 120.13803 153.19357 119.11734 154.18948 C 117.16364 156.09578 115.95333 157.11917 115.65445 157.11917 C 115.22476 157.11917 114.5607 158.09143 114.5607 158.72073 C 114.5607 159.09867 115.21546 160.26209 116.01773 161.30472 C 116.82002 162.34735 117.36417 163.19925 117.22672 163.19925 C 117.08927 163.19925 117.29841 163.42332 117.68961 163.6973 C 118.08077 163.97128 118.40055 164.39936 118.40055 164.64652 C 118.40055 165.07759 119.59796 166.40042 119.98844 166.40042 C 120.09209 166.40042 120.53375 166.15327 120.96891 165.85159 C 121.40407 165.54991 122.03367 164.95834 122.3693 164.53714 C 122.70493 164.11593 123.23376 163.53524 123.54313 163.24612 C 124.83214 162.04149 126.08023 160.18124 126.08023 159.46487 C 126.08023 158.62227 125.46436 157.51945 124.09391 155.90823 C 123.60218 155.33011 123.19938 154.59792 123.19938 154.27933 C 123.19938 153.64037 122.15039 152.5508 121.4318 152.44534 z M 91.142734 159.03909 C 89.871904 159.03909 89.341344 159.2401 88.082188 160.19534 C 86.274333 161.56684 85.439609 162.41128 85.439609 162.86722 C 85.439609 163.05057 85.311372 163.19925 85.154453 163.19925 C 84.997532 163.19925 84.771281 163.58731 84.6525 164.06058 C 84.53372 164.53384 84.158813 165.31118 83.818516 165.78909 C 83.478219 166.26699 83.199375 166.88912 83.199375 167.16995 C 83.199375 167.45079 83.090224 167.67972 82.957188 167.67972 C 82.375707 167.67972 81.973146 169.72638 81.814609 173.47464 C 81.654245 177.26607 81.915894 179.30249 82.660313 180.04691 C 82.780933 180.16753 82.879062 180.5182 82.879063 180.8262 C 82.879063 181.1342 82.987297 181.4355 83.119297 181.49417 C 83.251297 181.55287 83.654068 182.17689 84.013828 182.88089 C 84.534378 183.89953 85.12331 184.39361 86.894688 185.30081 C 89.93295 186.85685 93.382929 188.09026 95.422031 188.34964 C 96.355818 188.46842 97.26361 188.67499 97.439609 188.80862 C 98.217001 189.39892 101.88287 189.37195 104.95914 188.75394 C 107.45633 188.25225 111.16732 186.97901 111.30094 186.57816 C 111.36304 186.39179 111.618 186.24027 111.86734 186.24027 C 112.11667 186.24027 112.32047 186.12274 112.32047 185.9805 C 112.32047 185.83826 112.89791 185.29904 113.60367 184.78128 C 115.09587 183.68656 116.80094 180.48132 116.80094 178.76956 C 116.80094 178.37304 116.95382 177.89402 117.14078 177.70706 C 117.32773 177.52011 117.56332 175.77376 117.66617 173.82425 C 117.85539 170.2374 117.59549 168.78052 116.57438 167.73636 C 116.34695 167.50379 116.16031 167.11078 116.16031 166.86136 C 116.16031 166.26379 115.16732 165.11917 114.64859 165.11917 C 114.42371 165.11917 114.24039 164.98112 114.24039 164.81253 C 114.24039 164.64395 113.60426 164.13448 112.82828 163.67972 C 112.05229 163.22496 111.34466 162.65996 111.25406 162.42386 C 111.12756 162.09418 110.39558 162.02516 108.10367 162.12308 C 106.46226 162.19318 104.63206 162.31434 104.03531 162.39261 C 103.43857 162.47091 102.714 162.40813 102.42594 162.25394 C 102.13789 162.09978 101.25755 161.91965 100.46891 161.85355 C 99.68026 161.78745 98.891513 161.64757 98.716953 161.543 C 98.542396 161.43843 97.644858 161.25162 96.720859 161.12698 C 95.79686 161.00234 95.039219 160.76889 95.039219 160.60941 C 95.039219 160.44992 94.818388 160.32034 94.547031 160.32034 C 94.275672 160.32034 93.743217 160.03172 93.365391 159.67972 C 92.876136 159.22392 92.237306 159.03909 91.142734 159.03909 z M 139.48453 161.19925 C 137.27745 161.1884 135.20587 161.30605 134.95133 161.56058 C 134.75409 161.75783 134.04396 161.91995 133.37516 161.91995 C 132.70636 161.91995 132.16031 162.06427 132.16031 162.24027 C 132.16031 162.41627 131.95733 162.56058 131.70914 162.56058 C 131.46094 162.56058 130.56094 163.10105 129.70914 163.76175 C 128.85733 164.42244 127.79953 165.15208 127.35953 165.3848 C 126.45493 165.86327 125.37493 167.40967 124.76383 169.09964 C 124.53715 169.72652 124.2365 170.24027 124.09586 170.24027 C 123.95521 170.24027 123.84 170.45673 123.84 170.72073 C 123.84 170.98473 123.69569 171.19925 123.51969 171.19925 C 123.34369 171.19925 123.19938 171.60293 123.19938 172.09573 C 123.19938 172.58853 123.04189 173.15164 122.84781 173.34573 C 122.34352 173.85002 122.04761 180.32396 122.51578 180.61331 C 122.71577 180.73691 122.87906 181.10279 122.87906 181.42777 C 122.87906 182.10259 124.16265 184.64066 124.50406 184.64066 C 124.62832 184.64066 124.81364 184.96341 124.91617 185.35941 C 125.0187 185.75541 125.43164 186.44699 125.83219 186.89456 C 126.88658 188.07276 131.83113 191.66541 132.69742 191.88284 C 133.10291 191.98461 133.36452 192.18344 133.2775 192.32425 C 133.1905 192.46506 133.39043 192.50881 133.72281 192.42191 C 134.05519 192.33501 134.40395 192.38589 134.49625 192.53519 C 134.73162 192.91603 139.73456 192.70313 141.27945 192.24612 C 141.98345 192.03787 142.63286 191.77521 142.72086 191.66214 C 142.80886 191.54907 143.47485 191.08387 144.20133 190.62894 C 145.56315 189.77614 149.64976 185.93766 149.53531 185.61917 C 149.49991 185.52057 149.83936 184.64772 150.28922 183.67972 C 152.72133 178.44637 153.31395 175.88898 152.90055 172.40823 C 152.72755 170.95164 152.45421 169.62231 152.29313 169.45511 C 152.13203 169.28791 152.00016 168.97494 152.00016 168.75784 C 152.00016 168.25504 150.06105 165.11917 149.75016 165.11917 C 149.62182 165.11917 149.35207 164.72092 149.15055 164.23441 C 148.77764 163.3341 147.22121 162.38857 144.83023 161.60941 C 144.03326 161.3497 141.69161 161.2101 139.48453 161.19925 z M 67.039219 161.25198 C 64.492363 161.21681 59.729177 161.92335 58.992344 162.66019 C 58.871726 162.78081 58.531873 162.88089 58.236484 162.88089 C 57.941097 162.88089 57.437854 163.16756 57.119297 163.51956 C 56.80074 163.87156 56.382043 164.16019 56.187656 164.16019 C 55.993269 164.16019 55.653578 164.44881 55.43375 164.80081 C 55.213923 165.15281 54.846755 165.43948 54.617344 165.43948 C 54.108147 165.43948 52.975194 166.92241 52.656406 168.00589 C 52.250023 169.38711 51.692051 170.56058 51.441563 170.56058 C 51.308526 170.56058 51.199375 171.05458 51.199375 171.66019 C 51.199375 172.2658 51.0675 172.84382 50.906406 172.94339 C 50.434269 173.23518 50.098766 177.90723 50.519688 178.32816 C 50.71761 178.52608 50.879063 179.00992 50.879063 179.40433 C 50.879063 179.79874 51.023375 180.21157 51.199375 180.32034 C 51.375375 180.42912 51.519688 180.86925 51.519688 181.29886 C 51.519688 181.72847 51.646938 182.08011 51.800938 182.08011 C 51.954937 182.08011 52.164966 182.49985 52.267734 183.0137 C 52.377641 183.56323 52.718545 184.032 53.097813 184.15237 C 53.452452 184.26493 54.042927 184.73858 54.408359 185.20316 C 54.773793 185.66773 55.296254 186.08088 55.570469 186.12112 C 55.844679 186.16132 56.413197 186.51669 56.834141 186.91214 C 57.255084 187.3076 57.602931 187.49865 57.605625 187.33597 C 57.608225 187.17329 57.716555 187.18445 57.845859 187.36136 C 58.512582 188.27369 65.250066 189.39455 66.064609 188.72855 C 66.231809 188.59185 66.628235 188.4805 66.947422 188.4805 C 67.26661 188.4805 67.778529 188.35376 68.084141 188.19925 C 68.389753 188.04474 69.143922 187.69031 69.759922 187.41214 C 71.117028 186.79931 72.626416 185.90185 73.213047 185.35941 C 73.450976 185.13941 73.744162 184.95902 73.865391 184.95902 C 74.128632 184.95902 75.428121 183.75486 76.320469 182.68167 C 77.12419 181.71507 78.080234 179.67856 78.080234 178.93362 C 78.080234 178.6228 78.226893 178.22056 78.406406 178.04105 C 78.867869 177.57958 78.922431 172.57113 78.482578 171.04886 C 78.28052 170.34957 77.910421 169.62822 77.660313 169.44534 C 77.410204 169.26245 76.795414 168.32133 76.295078 167.3555 C 75.794743 166.38967 75.28412 165.55551 75.160313 165.50198 C 75.036502 165.44848 74.556439 165.05356 74.091953 164.62308 C 73.627464 164.19261 73.03829 163.83987 72.783359 163.83987 C 72.528428 163.83987 72.320469 163.61622 72.320469 163.34183 C 72.320469 163.06744 72.175403 162.93153 71.998203 163.04105 C 71.820999 163.15056 71.258171 162.94323 70.748203 162.58011 C 70.238233 162.21698 69.600676 161.91995 69.330234 161.91995 C 69.05979 161.91995 68.737532 161.75821 68.615391 161.56058 C 68.489818 161.3574 67.888171 161.26371 67.039219 161.25198 z M 118.22867 183.22464 C 118.06637 183.22935 117.88498 183.28864 117.6525 183.39456 C 116.96686 183.70695 115.84 185.62575 115.84 186.4805 C 115.84 187.3028 117.61462 187.24078 118.95914 186.37112 C 119.85849 185.78943 119.89916 184.53964 119.04508 183.68558 C 118.71948 183.35998 118.49917 183.2168 118.22867 183.22464 z M 82.742344 188.80667 C 80.686776 188.80858 78.695328 188.90105 78.582188 189.08402 C 78.485428 189.24057 77.937069 189.44632 77.363438 189.54105 C 74.966106 189.93694 73.603865 190.34246 72.125156 191.09769 C 69.385357 192.49702 68.48249 193.10509 68.297031 193.67972 C 68.197621 193.98772 67.989826 194.24027 67.834141 194.24027 C 67.430845 194.24027 65.58475 196.99673 65.826328 197.23831 C 65.936715 197.34871 65.857831 197.43948 65.6525 197.43948 C 65.447166 197.43948 65.279453 197.71896 65.279453 198.06058 C 65.279453 198.40219 65.13514 198.77017 64.959141 198.87894 C 64.783141 198.98772 64.640781 199.35764 64.640781 199.69925 C 64.640781 200.04086 64.496469 200.32034 64.320469 200.32034 C 64.127567 200.32034 64.000156 201.64611 64.000156 203.66019 C 64.000156 205.54242 64.140197 207.08784 64.320469 207.19925 C 64.496469 207.30803 64.640781 207.75879 64.640781 208.19925 C 64.640781 208.63972 65.15695 210.06081 65.789219 211.35745 C 67.299089 214.45385 70.013363 217.09918 73.039219 218.42386 C 73.699218 218.7128 74.240391 219.10092 74.240391 219.28714 C 74.240391 219.47336 74.335521 219.53186 74.451328 219.41605 C 74.567136 219.30025 74.846788 219.35999 75.074375 219.54886 C 75.669824 220.04304 80.888596 221.36566 82.404453 221.40628 C 83.110936 221.42518 84.47658 221.15086 85.439609 220.79886 L 85.439609 220.80081 C 86.402638 220.44881 87.390445 220.16019 87.634922 220.16019 C 88.218502 220.16019 91.969968 218.48915 92.107578 218.168 C 92.166248 218.03109 92.488996 217.91995 92.826328 217.91995 C 93.163662 217.91995 93.439609 217.71607 93.439609 217.46683 C 93.439609 217.21758 93.980782 216.4336 94.640781 215.72464 C 95.300781 215.01569 96.126402 213.88858 96.476719 213.21878 C 96.827031 212.54897 97.187813 211.92787 97.2775 211.83987 C 97.742744 211.38338 98.251764 210.12493 98.435703 208.97464 C 98.549505 208.26295 98.782899 207.67972 98.955234 207.67972 C 99.12757 207.67972 99.19072 207.4777 99.095859 207.2305 C 99.000999 206.9833 99.110288 205.97978 99.338047 205.00003 C 99.565794 204.02029 99.716998 203.17799 99.673984 203.12894 C 99.630974 203.07994 99.510656 202.31948 99.406406 201.43948 C 99.149643 199.27205 97.236935 195.51261 95.59 193.93753 C 94.847802 193.22771 94.122416 192.64451 93.978672 192.64261 C 93.834928 192.64061 93.25963 192.30127 92.699375 191.88675 C 92.13912 191.47223 90.815921 190.73166 89.759922 190.24222 C 88.703923 189.75278 87.590925 189.22824 87.285313 189.0762 C 86.918243 188.89359 84.797911 188.80476 82.742344 188.80667 z M 120.18961 189.43948 C 118.39857 189.43948 117.78257 189.6169 115.465 190.79886 C 113.08924 192.01051 111.95066 192.79011 110.51578 194.18362 C 110.27631 194.41619 110.08023 194.50325 110.08023 194.37698 C 110.08023 194.15233 109.36801 194.88182 107.91422 196.59964 C 107.4159 197.18846 107.12626 198.06031 106.98844 199.37894 C 106.87802 200.43536 106.66418 201.37585 106.51383 201.46878 C 106.36347 201.56168 106.24039 202.04983 106.24039 202.55277 C 106.24039 203.05571 106.06 203.53264 105.84 203.61331 C 105.52 203.73064 105.52 203.84443 105.84 204.18362 C 106.06 204.41682 106.24039 205.2209 106.24039 205.97073 C 106.24039 207.45889 107.17807 210.88089 107.58609 210.88089 C 107.72588 210.88089 107.84 211.0344 107.84 211.22269 C 107.84 211.41098 108.30706 212.23882 108.87906 213.06253 C 110.09381 214.81183 110.58133 215.59908 110.99039 216.4805 C 111.15374 216.8325 111.58718 217.39117 111.95523 217.72269 C 112.32328 218.05421 112.5341 218.48715 112.42203 218.68362 C 112.30996 218.8801 112.33658 218.93124 112.48258 218.79886 C 112.62851 218.66647 112.99012 218.77784 113.28531 219.04495 C 113.58051 219.3121 114.52769 219.88876 115.39078 220.3262 C 116.79032 221.03554 117.18418 221.09526 119.03922 220.88089 C 120.18322 220.74868 122.56047 220.6758 124.32047 220.71878 C 127.9252 220.80678 131.34822 220.34913 133.26773 219.52347 C 133.97862 219.21769 135.30133 218.30046 136.20719 217.48441 C 137.11305 216.66835 137.99902 216.00003 138.17594 216.00003 C 138.35287 216.00003 138.64326 215.58038 138.82242 215.06644 C 139.00158 214.55249 139.44856 213.83092 139.81461 213.46487 C 140.18067 213.09882 140.47637 212.72659 140.47281 212.63675 C 140.46881 212.54695 140.67108 212.07789 140.92008 211.59573 C 141.49252 210.48727 141.96944 207.37833 141.89664 205.22855 C 141.79238 202.14979 139.10713 197.82586 136.46305 196.4805 C 135.94475 196.21678 135.44753 195.9088 135.35953 195.79691 C 135.05633 195.41144 132.95772 194.3448 132.06656 194.12308 C 131.51914 193.98688 131.26023 193.76175 131.39664 193.54105 C 131.52457 193.33405 131.47657 193.26927 131.28336 193.3887 C 131.09848 193.50296 130.53567 193.3827 130.03336 193.12112 C 129.53104 192.85915 128.79655 192.64369 128.40055 192.64261 C 128.00455 192.64165 127.67984 192.52905 127.67984 192.39456 C 127.67984 192.26008 127.14062 191.90569 126.48063 191.6055 C 125.82063 191.30532 124.84847 190.81748 124.32047 190.52152 C 122.51779 189.51107 122.24713 189.43948 120.18961 189.43948 z M 101.78922 192.24222 C 101.46663 192.25115 101.30685 192.46072 101.00211 192.97659 C 100.49589 193.83355 100.50677 193.90277 101.3068 194.85355 C 102.30825 196.0437 102.69594 196.07089 103.46891 195.0098 C 104.30277 193.86512 103.96187 192.83439 102.61148 192.41995 C 102.23415 192.30415 101.98277 192.23686 101.78922 192.24222 z M 102.91617 211.25003 C 102.48033 211.27976 101.95279 211.67891 101.23063 212.40823 C 98.39012 215.27691 98.158294 216.23084 100.08023 217.12698 C 100.74023 217.43472 102.44481 218.54317 103.86734 219.58987 C 106.25313 221.34533 106.54539 221.68816 107.6525 224.02542 C 108.53653 225.89175 109.01519 226.56058 109.46695 226.56058 C 109.80429 226.56058 110.08023 226.44121 110.08023 226.29495 C 110.08023 226.14869 110.45571 225.82744 110.91422 225.58206 C 111.67798 225.1733 111.73528 224.99868 111.61148 223.50589 C 111.52618 222.47737 111.24802 221.63851 110.85758 221.2305 C 110.5174 220.875 109.26181 219.56291 108.06656 218.31448 C 106.87131 217.06605 105.77686 215.99768 105.63297 215.94144 C 105.48908 215.88514 105.01531 214.83164 104.58023 213.59964 C 103.99774 211.9502 103.55317 211.20659 102.91617 211.25003 z M 96.484531 220.80667 C 95.429955 220.80238 94.377015 220.89949 94.252109 221.10159 C 93.780724 221.86431 89.253394 224.01495 87.797031 224.168 C 86.940936 224.258 85.879609 224.42198 85.439609 224.53323 C 84.746743 224.70843 83.107082 224.80843 78.832188 224.93167 C 78.030536 224.95477 77.686412 225.19278 77.1525 226.09769 C 76.783114 226.72376 76.480625 227.6491 76.480625 228.15237 C 76.480625 228.65564 76.330483 229.11649 76.146641 229.17777 C 75.935057 229.24827 75.80001 231.13697 75.779453 234.32425 C 75.760033 237.33792 75.621284 239.35941 75.435703 239.35941 C 75.265165 239.35941 75.358492 239.71467 75.642734 240.14847 C 75.926977 240.58228 76.160313 241.15758 76.160313 241.42777 C 76.160313 241.69797 76.304625 241.91995 76.480625 241.91995 C 76.656625 241.91995 76.800938 242.18122 76.800938 242.50003 C 76.800938 242.81885 77.051532 243.35807 77.359531 243.69925 C 77.667531 244.04044 78.130995 244.72747 78.388828 245.22659 C 79.049103 246.50477 80.918962 248.32034 81.576328 248.32034 C 81.754401 248.32034 82.412512 248.60897 83.039219 248.96097 C 83.665925 249.31297 84.454913 249.59964 84.791172 249.59964 C 85.127431 249.59964 85.493124 249.74694 85.603672 249.92581 C 85.714219 250.10468 85.901801 250.19675 86.021641 250.13089 C 86.141478 250.06509 86.960001 250.10478 87.84 250.21878 C 89.994286 250.49794 92.03364 250.26495 93.707188 249.55081 C 94.469776 249.2254 95.261542 248.95707 95.466953 248.95316 C 95.672361 248.94916 96.200782 248.66451 96.640781 248.32034 C 97.080781 247.97617 97.62 247.69144 97.84 247.68753 C 98.315459 247.67953 98.849635 247.23082 101.66031 244.4805 C 103.89102 242.29769 104.95714 240.83563 104.95914 239.95511 C 104.95978 239.66594 105.17561 239.34548 105.43961 239.24417 C 105.70361 239.14287 105.92008 238.79697 105.92008 238.47464 C 105.92008 238.15232 106.03835 237.75122 106.18375 237.58402 C 106.82561 236.84591 107.27247 234.65212 106.91617 233.98636 C 106.72038 233.62053 106.5607 232.76049 106.5607 232.07425 C 106.5607 231.38802 106.46061 230.72807 106.34 230.60745 C 106.0482 230.31564 105.29347 228.12542 105.27555 227.51956 C 105.25935 226.97099 103.52377 224.95902 103.06656 224.95902 C 102.89994 224.95902 102.68134 224.70501 102.58219 224.39261 C 102.29919 223.50094 100.14958 221.43948 99.502109 221.43948 C 99.180571 221.43948 98.829633 221.29517 98.720859 221.11917 C 98.595324 220.91605 97.539108 220.81097 96.484531 220.80667 z M 125.3068 223.26566 C 124.70543 223.26191 124.06639 223.30077 123.38688 223.38284 C 120.81199 223.69383 119.05151 224.19598 118.69156 224.71878 C 118.58772 224.86958 118.16768 225.01799 117.75797 225.04886 C 116.96488 225.10856 112.77746 229.08402 112.08414 230.43558 C 111.08783 232.37775 110.10205 240.45043 110.70133 241.7598 C 110.86244 242.1118 111.07895 242.91383 111.1818 243.543 C 111.28466 244.17216 111.61817 244.96588 111.92398 245.30472 C 112.22979 245.64355 112.67057 246.28073 112.90445 246.72073 C 113.37479 247.60557 117.2851 250.24958 119.03922 250.86917 C 119.65522 251.08675 120.44894 251.38396 120.80094 251.52933 C 123.3892 252.59823 124.94064 252.56231 128.17789 251.35745 C 131.5901 250.08746 136.00016 246.85095 136.00016 245.61722 C 136.00016 245.50503 136.28878 245.10442 136.64078 244.72659 C 136.99278 244.34876 137.27945 243.84999 137.27945 243.61917 C 137.27945 243.38836 137.4094 243.19925 137.56656 243.19925 C 137.91402 243.19925 138.22209 242.49587 138.6193 240.80081 C 139.18243 238.39778 139.40961 236.44892 139.14469 236.28519 C 138.99916 236.19529 138.87906 235.63432 138.87906 235.03909 C 138.87906 234.44387 138.7367 233.86858 138.5607 233.7598 C 138.3847 233.65103 138.24039 233.28305 138.24039 232.94144 C 138.24039 232.59982 138.07976 232.32034 137.88492 232.32034 C 137.69009 232.32034 137.617 232.09882 137.72086 231.82816 C 137.82831 231.54814 137.70382 231.25796 137.43375 231.15433 C 137.17272 231.05416 136.95914 230.83188 136.95914 230.66214 C 136.95914 230.4924 136.7807 230.1675 136.5607 229.93948 C 135.63854 228.98373 134.73685 227.83987 134.90641 227.83987 C 135.00672 227.83987 134.39456 227.31394 133.54508 226.66995 C 132.6956 226.02595 131.9514 225.37655 131.89273 225.22855 C 131.83403 225.08054 131.5058 224.95902 131.16227 224.95902 C 130.81875 224.95902 130.20919 224.74482 129.80875 224.48245 C 128.57913 223.67677 127.1109 223.2769 125.3068 223.26566 z M 106.48063 246.14847 C 105.92797 246.16945 105.20043 246.97281 105.46109 247.39456 C 105.65513 247.70853 107.19938 247.05442 107.19938 246.65823 C 107.19938 246.50496 106.96344 246.28884 106.67398 246.17777 C 106.61351 246.15456 106.54849 246.14589 106.48063 246.14847 z M 110.00797 251.0723 C 109.63391 251.0565 108.96285 251.14864 107.67984 251.33792 C 104.17835 251.85449 102.99522 252.52134 101.1193 255.03128 C 100.6793 255.61999 100.17616 256.25907 100.00016 256.4512 C 99.546307 256.94664 98.966927 258.23646 98.695469 259.35941 C 98.292352 261.02699 98.171035 268.54005 98.541172 268.91019 C 98.727297 269.09632 98.879063 269.57047 98.879063 269.96487 C 98.879063 270.35929 99.038053 270.77945 99.230625 270.89847 C 99.423198 271.01748 99.51614 271.45081 99.437656 271.86136 C 99.353006 272.30419 99.470103 272.675 99.726719 272.77347 C 99.964626 272.86477 100.16031 273.17121 100.16031 273.45316 C 100.16031 274.20089 102.65098 277.03727 104.32047 278.19144 C 105.11247 278.73897 106.55169 279.58548 107.51969 280.0723 C 108.48769 280.55913 109.74356 281.24151 110.3107 281.58792 C 112.06419 282.65897 113.60336 282.95746 114.87906 282.47464 C 115.14306 282.37474 116.43992 282.05 117.75992 281.75394 C 120.59634 281.11777 122.28354 280.60557 122.70328 280.25394 C 122.87048 280.11387 123.26734 280.00003 123.58414 280.00003 C 123.90094 280.00003 124.16031 279.85572 124.16031 279.67972 C 124.16031 279.50372 124.29276 279.35941 124.45523 279.35941 C 124.85337 279.35941 126.50216 277.685 127.88492 275.87698 C 129.15653 274.21431 129.92008 272.58708 129.92008 271.53519 C 129.92008 271.14602 130.01302 270.73329 130.12711 270.61917 C 130.48819 270.25808 130.22287 265.2039 129.72867 263.03909 C 129.24784 260.93268 126.98475 256.76283 126.07242 256.30081 C 125.48547 256.00358 123.59103 255.49974 121.27945 255.02542 C 118.64089 254.48402 117.03357 254.08191 116.32047 253.78323 C 115.96847 253.63579 114.81592 253.25223 113.75992 252.93167 C 112.70392 252.61112 111.68184 252.16463 111.48844 251.93948 C 111.29504 251.71433 111.04616 251.62004 110.9357 251.7305 C 110.82525 251.84095 110.65431 251.72019 110.55484 251.46097 C 110.45988 251.2135 110.38202 251.08809 110.00797 251.0723 z " />
  </g>
</svg>
