<?xml version="1.0" encoding="UTF-8"?>
<svg width="32px" height="32px" viewBox="0 0 32 32" version="1.1" xmlns="http://www.w3.org/2000/svg" xmlns:xlink="http://www.w3.org/1999/xlink">
    <title>Glyph/Sensor/Driveway</title>
    <g id="Page-1" stroke="none" stroke-width="1" fill="none" fill-rule="evenodd">
        <g id="01-OS3-Icons-map-to-OS-Next" transform="translate(-2905.000000, -441.000000)">
            <g id="Sensors" transform="translate(2905.000000, 102.000000)">
                <g id="Glyph-Tint" transform="translate(2.000000, 341.000000)">
                    <rect id="Body" stroke="#00C2F3" stroke-width="2" x="0" y="0" width="28" height="28" rx="4"></rect>
                    <path d="M14,21 C15.1045695,21 16,21.8954305 16,23 C16,24.1045695 15.1045695,25 14,25 C12.8954305,25 12,24.1045695 12,23 C12,21.8954305 12.8954305,21 14,21 Z" id="Shape" fill="#00C2F3"></path>
                    <path d="M14.0000377,4 L17.2000236,4.00289133 C18.821155,4 20.658043,7.05734823 21.236752,7.58826576 L21.3895941,7.58826576 L21.3895941,7.29102924 C21.3895941,7.07323959 21.5251579,6.88470676 21.7182485,6.81829314 C21.9113391,6.75187951 23.176858,7.02672354 23.2124477,7.17850214 C23.2341682,7.27113276 23.1699579,7.54333041 23.019817,7.9950951 C22.9937287,8.07369257 22.9223854,8.12918112 22.8388056,8.13591275 L21.9955768,8.20382766 L22.4147621,8.50268793 C23.4552668,9.24247457 24.0492426,10.4840834 23.996795,11.7816391 C23.96183,12.6466763 23.8797511,13.5235112 23.7505582,14.412144 L23.7963599,14.5808549 C23.822208,14.694423 23.8396744,14.9899395 23.848759,15.4674043 C23.8286565,15.6579513 23.7072044,15.8248392 23.5752616,15.9414008 L23.5743211,16.7502907 C23.5741606,16.8882483 23.4622789,17 23.3243212,17 L20.3289552,17 C20.1909443,16.9998456 20.0790405,16.8880108 20.0788008,16.75 L20.0784508,16.1831309 L20.0784508,16.1831309 L13.9999623,16.1874981 L7.92154915,16.1802396 L7.92119861,16.75 C7.92095984,16.8880111 7.80905593,16.9998461 7.6710448,17 L4.68124663,17 C4.54395682,17 4.43235434,16.8892879 4.43125465,16.7520025 L4.42473836,15.9385095 L4.42473836,15.9385095 C4.29279555,15.8219479 4.17134348,15.6550599 4.15124102,15.464513 L4.16311955,15.0476976 C4.17127091,14.8498277 4.18200922,14.7081146 4.19533449,14.6225584 L4.24944182,14.4092526 C4.12024895,13.5206199 4.03817,12.643785 4.00320497,11.7787478 C3.95367118,10.5532785 4.480731,9.37771245 5.41598928,8.62766442 L5.58523794,8.4997966 L6.00442323,8.20093633 L5.16119438,8.13302143 C5.07761464,8.12628979 5.00627128,8.07080124 4.98018304,7.99220377 C4.8300421,7.54043908 4.76583185,7.26824143 4.78755228,7.17561081 C4.82314199,7.02383221 6.08866087,6.74898818 6.28175148,6.81540181 C6.45070576,6.87351373 6.57561609,7.02512317 6.60420377,7.20801958 L6.6104059,7.28813792 L6.6104059,7.58537443 L6.76324798,7.58537443 C7.32266666,7.07215415 9.05778382,4.19812474 10.6371987,4.00970475 L10.7999764,4 L14.0000377,4 Z M10.8986208,4.5 C9.80045617,4.63412865 8.51419804,5.89529347 7.03984644,8.28349447 C7.01109677,8.30976708 6.99648004,8.34916623 7.00072271,8.38890697 C7.00785895,8.45575963 7.06532105,8.50389355 7.12905412,8.49639825 C8.95886155,8.31866854 11.0358568,8.22239828 13.3600398,8.20758747 L14.0000366,8.20556781 L14.6399602,8.21042012 C16.9641432,8.22523093 19.0411384,8.32150119 20.8709459,8.4992309 C20.9346789,8.5067262 20.9921411,8.45859229 20.9992773,8.39173962 C21.00352,8.35199889 20.9889032,8.31259973 20.9601536,8.28632712 C19.485802,5.89812612 18.1995438,4.6369613 17.1013792,4.50283265 L13.9999634,4.50283265 L10.8986208,4.5 Z" id="Shape" fill="#00C2F3"></path>
                </g>
            </g>
        </g>
    </g>
</svg>