<?xml version="1.0" encoding="UTF-8" standalone="no"?>
<!-- Created with Inkscape (http://www.inkscape.org/) -->

<svg
   version="1.1"
   id="svg494"
   width="880"
   height="880"
   viewBox="0 0 880 880"
   sodipodi:docname="dessert-cake [Converted].svg"
   inkscape:version="1.2 (dc2aedaf03, 2022-05-15)"
   xmlns:inkscape="http://www.inkscape.org/namespaces/inkscape"
   xmlns:sodipodi="http://sodipodi.sourceforge.net/DTD/sodipodi-0.dtd"
   xmlns="http://www.w3.org/2000/svg"
   xmlns:svg="http://www.w3.org/2000/svg">
  <defs
     id="defs498">
    <clipPath
       clipPathUnits="userSpaceOnUse"
       id="clipPath510">
      <path
         d="M 0,660 H 660 V 0 H 0 Z"
         id="path508" />
    </clipPath>
  </defs>
  <sodipodi:namedview
     id="namedview496"
     pagecolor="#ffffff"
     bordercolor="#000000"
     borderopacity="0.25"
     inkscape:showpageshadow="2"
     inkscape:pageopacity="0.0"
     inkscape:pagecheckerboard="0"
     inkscape:deskcolor="#d1d1d1"
     showgrid="false"
     inkscape:zoom="0.95113636"
     inkscape:cx="440.52569"
     inkscape:cy="440.52569"
     inkscape:window-width="1920"
     inkscape:window-height="1017"
     inkscape:window-x="-8"
     inkscape:window-y="-8"
     inkscape:window-maximized="1"
     inkscape:current-layer="g502">
    <inkscape:page
       x="0"
       y="0"
       id="page500"
       width="880"
       height="880" />
  </sodipodi:namedview>
  <g
     id="g502"
     inkscape:groupmode="layer"
     inkscape:label="Page 1"
     transform="matrix(1.3333333,0,0,-1.3333333,0,880)">
    <g
       id="g504">
      <g
         id="g506"
         clip-path="url(#clipPath510)">
        <g
           id="g512"
           transform="translate(360.1846,95.4414)">
          <path
             d="M 0,0 C 91.611,0 166.33,22.249 166.33,49.529 166.33,76.809 91.611,99.06 0,99.06 -91.612,99.06 -166.331,76.809 -166.331,49.529 -166.331,22.249 -91.612,0 0,0"
             style="fill:#f5f6f6;fill-opacity:1;fill-rule:evenodd;stroke:none"
             id="path514" />
        </g>
        <g
           id="g516"
           transform="translate(324.6436,111.8369)">
          <path
             d="M 0,0 C 78.536,0 142.592,18.25 142.592,40.628 142.592,63.003 78.536,81.254 0,81.254 -78.539,81.254 -142.595,63.003 -142.595,40.628 -142.595,18.25 -78.539,0 0,0"
             style="fill:#dadebc;fill-opacity:1;fill-rule:evenodd;stroke:none"
             id="path518" />
        </g>
        <g
           id="g520"
           transform="translate(390.6299,195.7559)">
          <path
             d="m 0,0 c 17.836,-4.917 28.924,-11.807 28.924,-19.435 0,-14.935 -42.493,-27.042 -94.912,-27.042 -52.418,0 -94.911,12.107 -94.911,27.042 0,7.628 11.088,14.518 28.923,19.435 21.826,6.016 36.418,25.173 36.418,47.813 v 19.321 c 0,24.486 -17.395,44.971 -41.558,48.94 -42.713,7.017 -71.465,20.16 -71.465,35.218 0,22.437 63.841,40.626 142.593,40.626 78.752,0 142.593,-18.189 142.593,-40.626 0,-15.058 -28.751,-28.201 -71.465,-35.218 -24.162,-3.969 -41.558,-24.455 -41.558,-48.94 V 47.813 C -36.418,25.173 -21.825,6.016 0,0"
             style="fill:#bbbf95;fill-opacity:1;fill-rule:evenodd;stroke:none"
             id="path522" />
        </g>
        <g
           id="g524"
           transform="translate(390.6299,195.7559)">
          <path
             d="m 0,0 c 17.836,-4.917 28.924,-11.807 28.924,-19.435 0,-14.935 -42.493,-27.042 -94.912,-27.042 -18.953,0 -36.608,1.584 -51.427,4.312 23.601,-0.828 46.547,-0.298 66.904,5.61 8.244,2.392 14.226,8.264 16.772,16.463 2.546,8.199 0.941,16.425 -4.498,23.069 -6.002,7.327 -9.84,16.163 -11.326,26.22 -2.772,18.778 -2.695,38.306 -0.402,58.416 0.815,7.137 -1.054,13.573 -5.566,19.162 -4.512,5.591 -10.407,8.777 -17.555,9.488 -29.054,2.891 -56.764,8.341 -82.861,16.849 l 18.867,53.404 c 20.928,3.436 45.203,5.402 71.092,5.402 78.752,0 142.593,-18.189 142.593,-40.626 0,-15.058 -28.751,-28.201 -71.465,-35.218 -24.162,-3.969 -41.558,-24.455 -41.558,-48.94 V 47.813 C -36.418,25.173 -21.825,6.016 0,0"
             style="fill:#a3a77d;fill-opacity:1;fill-rule:evenodd;stroke:none"
             id="path526" />
        </g>
        <g
           id="g528"
           transform="translate(324.6436,322.6836)">
          <path
             d="m 0,0 c 116.223,0 211.016,29.195 211.016,64.991 0,35.795 -94.793,64.989 -211.016,64.989 -116.225,0 -211.018,-29.194 -211.018,-64.989 C -211.018,29.195 -116.225,0 0,0"
             style="fill:#cacda5;fill-opacity:1;fill-rule:evenodd;stroke:none"
             id="path530" />
        </g>
        <g
           id="g532"
           transform="translate(507.1543,395.8057)">
          <path
             d="m 0,0 c 0,-28.986 -81.714,-52.484 -182.513,-52.484 -100.798,0 -182.511,23.498 -182.511,52.484 0,3.01 0.846,5.359 2.057,7.964 l 61.294,131.849 238.224,0.21 L -4.103,11.609 C -2.196,7.481 0,5.254 0,0"
             style="fill:#892f1b;fill-opacity:1;fill-rule:evenodd;stroke:none"
             id="path534" />
        </g>
        <g
           id="g536"
           transform="translate(507.1543,395.8057)">
          <path
             d="m 0,0 c 0,-28.986 -81.714,-52.484 -182.513,-52.484 -36.484,0 -70.466,3.081 -98.98,8.384 62.884,-7.238 115.84,-1.145 160.457,16.147 29.248,11.335 45.17,42.419 37.281,72.778 -0.195,0.748 -0.39,1.497 -0.584,2.246 -6.599,25.397 -28.743,42.558 -54.982,42.613 -36.525,0.076 -73.499,5.087 -111.109,17.081 l 118.089,33.197 68.892,0.061 L -4.103,11.609 C -2.196,7.481 0,5.254 0,0"
             style="fill:#702717;fill-opacity:1;fill-rule:evenodd;stroke:none"
             id="path538" />
        </g>
        <g
           id="g540"
           transform="translate(194.6626,512.3481)">
          <path
             d="m 0,0 261.896,-4.333 20.364,-44.064 c 45.266,-97.947 -354.377,-96.613 -306.329,0 z"
             style="fill:#f14960;fill-opacity:1;fill-rule:evenodd;stroke:none"
             id="path542" />
        </g>
        <g
           id="g544"
           transform="translate(286.1191,510.8345)">
          <path
             d="m 0,0 170.44,-2.82 20.364,-44.064 c 13.637,-29.509 -13.135,-49.991 -55.856,-61.588 4.692,11.777 5.757,25.091 2.332,38.268 -0.195,0.748 -0.389,1.497 -0.584,2.247 -6.598,25.396 -28.743,42.557 -54.982,42.612 -36.524,0.076 -73.499,5.088 -111.109,17.081 z"
             style="fill:#ef3646;fill-opacity:1;fill-rule:evenodd;stroke:none"
             id="path546" />
        </g>
        <g
           id="g548"
           transform="translate(324.6436,496.5273)">
          <path
             d="M 0,0 C 66.193,0 120.183,15.525 120.183,34.56 120.183,53.596 66.193,69.121 0,69.121 -66.196,69.121 -120.186,53.596 -120.186,34.56 -120.186,15.525 -66.196,0 0,0"
             style="fill:#892f1b;fill-opacity:1;fill-rule:evenodd;stroke:none"
             id="path550" />
        </g>
        <g
           id="g552"
           transform="translate(472.1738,471.4971)">
          <path
             d="m 0,0 c 0,-68.687 -295.542,-68.687 -295.542,0 0,3.01 0.846,5.359 2.057,7.964 l 26.793,56.158 238.223,0.21 L -4.105,11.61 C -2.196,7.481 0,5.254 0,0"
             style="fill:#eec0a8;fill-opacity:1;fill-rule:evenodd;stroke:none"
             id="path554" />
        </g>
        <g
           id="g556"
           transform="translate(472.1738,471.4971)">
          <path
             d="m 0,0 c 0,-17.385 -18.95,-30.362 -47.234,-38.947 -0.332,2.69 -0.841,5.388 -1.54,8.081 -0.196,0.748 -0.39,1.497 -0.584,2.246 -6.599,25.396 -28.744,42.558 -54.983,42.613 -36.524,0.076 -73.499,5.087 -111.108,17.081 L -97.36,64.271 -28.469,64.332 -4.105,11.61 C -2.196,7.481 0,5.254 0,0"
             style="fill:#dfac90;fill-opacity:1;fill-rule:evenodd;stroke:none"
             id="path558" />
        </g>
        <g
           id="g560"
           transform="translate(324.6436,496.5273)">
          <path
             d="M 0,0 C 66.193,0 120.183,15.525 120.183,34.56 120.183,53.596 66.193,69.121 0,69.121 -66.196,69.121 -120.186,53.596 -120.186,34.56 -120.186,15.525 -66.196,0 0,0"
             style="fill:#f9d8c7;fill-opacity:1;fill-rule:evenodd;stroke:none"
             id="path562" />
        </g>
        <g
           id="g564"
           transform="translate(327.3242,572.9795)">
          <path
             d="M 0,0 C 1.853,0 3.624,-0.434 5.253,-1.224 6.882,-0.434 8.654,0 10.506,0 c 8.056,0 14.588,-8.191 14.588,-18.296 0,-10.105 -6.532,-18.296 -14.588,-18.296 -1.852,0 -3.624,0.434 -5.253,1.223 -1.629,-0.789 -3.4,-1.223 -5.253,-1.223 -8.057,0 -14.587,8.191 -14.587,18.296 C -14.587,-8.191 -8.057,0 0,0"
             style="fill:#f25130;fill-opacity:1;fill-rule:evenodd;stroke:none"
             id="path566" />
        </g>
        <g
           id="g568"
           transform="translate(399.4014,564.8477)">
          <path
             d="M 0,0 C 1.852,0 3.623,-0.434 5.252,-1.224 6.883,-0.434 8.653,0 10.506,0 c 8.056,0 14.586,-8.191 14.586,-18.296 0,-10.105 -6.53,-18.296 -14.586,-18.296 -1.853,0 -3.623,0.434 -5.254,1.223 -1.629,-0.789 -3.4,-1.223 -5.252,-1.223 -8.057,0 -14.587,8.191 -14.587,18.296 C -14.587,-8.191 -8.057,0 0,0"
             style="fill:#f25130;fill-opacity:1;fill-rule:evenodd;stroke:none"
             id="path570" />
        </g>
        <g
           id="g572"
           transform="translate(269.5405,569.29)">
          <path
             d="M 0,0 C 0.921,-2.577 4.04,-5.969 8.46,-9.615 14.967,-1.482 22.866,5.657 33.639,5.291 L 32.631,9.065 C 28.748,23.646 25.326,36.485 23.771,36.393 22.999,36.347 22.162,36.155 21.276,35.839 15.919,33.925 10.431,28.033 6.27,21.229 2.049,14.33 -0.626,6.833 -0.325,1.773 -0.285,1.097 -0.179,0.5 0,0 m 22.773,-19.586 c 8.056,-4.878 16.816,-9.119 24.261,-11.453 -1.107,1.792 -2.156,3.733 -3.15,5.8 -2.424,5.035 -4.496,10.828 -6.362,16.864 -0.964,0.678 -1.948,1.117 -2.956,1.26 -5.914,0.84 -11.322,-3.886 -16.134,-9.743 1.408,-0.919 2.86,-1.831 4.341,-2.728 m 64.518,16.351 c 5.5,-0.228 11.199,-2.362 16.921,-5.486 0.923,2.003 1.838,4.027 2.751,6.048 4.988,11.041 9.935,21.994 16.53,30.062 1.881,2.302 0.066,6.224 -3.739,10.66 -3.674,4.283 -9.022,8.688 -15.129,12.775 C 98.382,55 91.401,58.799 84.61,61.78 71.935,67.344 60.652,70.564 58.864,67.71 56.846,64.488 63.318,50.455 70.624,34.617 76.338,22.226 82.475,8.917 85.765,-3.218 c 0.494,0.009 1.001,0.004 1.526,-0.017 M 98.79,-19.741 c -3.868,2.171 -7.519,3.7 -10.746,4.124 0.791,-10.231 -1.864,-18.815 -10.567,-24.091 0.735,-0.01 1.491,0.083 2.27,0.288 7.813,2.063 13.768,9.889 19.043,19.679 m 73.732,-10.888 c -0.846,-0.962 -1.783,-2.564 -2.777,-4.264 -4.637,-7.928 -10.109,-17.28 -25.573,-13.879 -7.734,1.7 -16.674,8.476 -26.216,15.709 -2.905,2.202 -5.874,4.452 -8.825,6.575 -6.528,-11.91 -14.409,-21.692 -26.256,-24.821 -9.532,-2.516 -16.267,0.685 -21.669,6.503 -1.892,-0.408 -4.028,-0.545 -6.459,-0.354 -10.389,0.817 -25.369,7.234 -38.328,15.08 -1.802,1.093 -3.573,2.219 -5.295,3.369 -3.835,-5.36 -7.346,-9.974 -11.5,-12.119 -11.442,-5.905 -20.065,2.278 -25.242,7.189 -0.746,0.708 -1.38,1.31 -1.682,1.532 l 7.268,9.915 c 0.92,-0.678 1.823,-1.535 2.885,-2.543 2.795,-2.652 7.452,-7.07 11.139,-5.167 1.719,0.887 4.304,4.372 7.261,8.512 -6.463,5.37 -11.252,10.772 -12.853,15.253 -0.561,1.571 -0.888,3.314 -0.999,5.189 -0.446,7.517 2.956,17.72 8.376,26.581 5.48,8.958 13.202,16.892 21.36,19.808 1.913,0.684 3.889,1.108 5.912,1.228 11.571,0.687 16.207,-16.714 21.47,-36.474 1.208,-4.529 2.454,-9.206 3.788,-13.748 4.578,-4.793 8.108,-11.545 11.673,-18.368 1.2,-2.297 2.407,-4.604 3.644,-6.791 0.787,1.532 1.501,3.219 2.217,4.906 2.264,5.339 4.526,10.672 8.4,14.25 -2.843,11.13 -9.069,24.632 -14.785,37.024 -8.771,19.02 -16.542,35.872 -10.989,44.741 5.61,8.958 23.076,6.728 41.053,-1.164 7.429,-3.261 15.081,-7.428 21.938,-12.016 6.992,-4.677 13.212,-9.835 17.633,-14.988 7.809,-9.102 10.46,-18.459 3.932,-26.447 -5.599,-6.85 -10.204,-17.044 -14.845,-27.319 -1.151,-2.549 -2.306,-5.103 -3.482,-7.627 3.608,-2.535 7.179,-5.242 10.673,-7.89 8.432,-6.393 16.333,-12.381 21.402,-13.496 6.798,-1.494 9.821,3.675 12.385,8.057 1.302,2.227 2.532,4.328 4.124,6.141 z"
             style="fill:#892f1b;fill-opacity:1;fill-rule:evenodd;stroke:none"
             id="path574" />
        </g>
        <g
           id="g576"
           transform="translate(293.3311,546.7266)">
          <path
             d="M 0,0 C 1.852,0 3.623,-0.434 5.253,-1.223 6.883,-0.434 8.653,0 10.505,0 c 8.056,0 14.588,-8.191 14.588,-18.296 0,-10.105 -6.532,-18.296 -14.588,-18.296 -1.852,0 -3.622,0.433 -5.252,1.223 -1.63,-0.79 -3.401,-1.223 -5.253,-1.223 -8.057,0 -14.587,8.191 -14.587,18.296 C -14.587,-8.191 -8.057,0 0,0"
             style="fill:#f25130;fill-opacity:1;fill-rule:evenodd;stroke:none"
             id="path578" />
        </g>
      </g>
    </g>
  </g>
</svg>
