<?xml version="1.0" encoding="UTF-8"?>
<svg width="32px" height="32px" viewBox="0 0 32 32" version="1.1" xmlns="http://www.w3.org/2000/svg" xmlns:xlink="http://www.w3.org/1999/xlink">
    <title>Glyph/Light/Bulbs (Default Filled)</title>
    <g id="3-Symbols-(Glyphs)" stroke="none" stroke-width="1" fill="none" fill-rule="evenodd">
        <g id="Glyph-Tint" transform="translate(2.000000, 2.000000)">
            <path d="M13,22 C13,21.3333333 13,20.3333333 13,19 C13,17 18,15.018267 18,9 C18,3.88646602 13.9705627,0 9,0 C4.02943725,0 0,3.88646602 0,9 C0,14.5553234 5,17 5,19 C5,20.3333333 5,21.3333333 5,22 L13,22 Z" id="BG" fill="#ffe18b"></path>
            <line x1="5" y1="21.5" x2="13" y2="21.5" id="Cap" stroke="#ffe18b"></line>
            <path d="M13,25 C13,23.1666667 13,21.3333333 13,19.5 C13,17 18,15.018267 18,9 C18,3.88646602 13.9705627,0 9,0 C4.02943725,0 0,3.88646602 0,9 C0,14.5553234 5,17 5,19.5 C5,21.3333333 5,23.1666667 5,25 C5,26.6568542 6.34314575,28 8,28 L10,28 C11.6568542,28 13,26.6568542 13,25 Z" id="Bulb" stroke="#ffe18b" stroke-width="2" stroke-linejoin="round"></path>
            <g id="Smaller" transform="translate(16.970776, 5.000000)">
                <path d="M0,8.93797254 C0.984034128,10.4833669 2.36255737,11.5021865 2.36255737,12.5357143 C2.36255737,13.6904762 2.36255737,14.8452381 2.36255737,16 C2.36255737,17.1045695 3.25798787,18 4.36255737,18 L5.6958907,18 C6.8004602,18 7.6958907,17.1045695 7.6958907,16 C7.6958907,14.8452381 7.6958907,13.6904762 7.6958907,12.5357143 C7.6958907,10.9285714 11.029224,9.65460022 11.029224,5.78571429 C11.029224,2.49844244 8.34293253,0 5.02922403,0 C3.47245707,0 2.05416623,0.551426914 0.987831798,1.47701462" id="Path" stroke="#ffe18b" stroke-linejoin="round"></path>
                <path d="M0,8.93797254 C0.984034128,10.4833669 2.36255737,11.5021865 2.36255737,12.5357143 C2.36255737,13.3055556 2.36255737,14.0158111 2.36255737,14.666481 L7.6958907,14.666481 C7.6958907,14.0158111 7.6958907,13.3055556 7.6958907,12.5357143 C7.6958907,10.9285714 11.029224,9.65460022 11.029224,5.78571429 C11.029224,2.49844244 8.34293253,0 5.02922403,0 C3.47245707,0 2.05416623,0.551426914 0.987831798,1.47701462" id="Path-Copy" fill="#ffe18b"></path>
                <line x1="2.36255737" y1="14.3333333" x2="7.6958907" y2="14.3333333" id="Cap-Copy" stroke="#ffe18b"></line>
            </g>
        </g>
    </g>
</svg>
