<?xml version="1.0" encoding="UTF-8"?>
<svg width="32px" height="32px" viewBox="0 0 32 32" version="1.1" xmlns="http://www.w3.org/2000/svg" xmlns:xlink="http://www.w3.org/1999/xlink">
    <title>listen-filled</title>
    <g id="3-Symbols-(Glyphs)" stroke="none" stroke-width="1" fill="none" fill-rule="evenodd">
        <g id="Glyph/Media/Listen-(Filled)" fill="#039503" fill-rule="nonzero">
            <g id="Glyph-Tint">
                <path d="M16,0.914611042 L30,9.43877096 L30,28.5 C30,29.8807119 28.8807119,31 27.5,31 L4.5,31 C3.11928813,31 2,29.8807119 2,28.5 L2,9.43877096 L16,0.914611042 Z M22,10 C22,9.31837068 21.3329918,8.83649883 20.6858672,9.05062094 L15.4293361,10.7899143 C13.3822704,11.4672522 12,13.3805943 12,15.5368096 L12.0008467,23.1140034 C11.6878286,23.0401752 11.3509519,23 11,23 C9.34314575,23 8,23.8954305 8,25 C8,26.1045695 9.34314575,27 11,27 C12.6568542,27 14,26.1045695 14,25 L14,15.5368096 L14.0055954,15.3530468 C14.0798914,14.1354282 14.8878498,13.0757227 16.0576017,12.6886724 L20,11.384 L20.0008467,20.1140034 C19.6878286,20.0401752 19.3509519,20 19,20 C17.3431458,20 16,20.8954305 16,22 C16,23.1045695 17.3431458,24 19,24 C20.6568542,24 22,23.1045695 22,22 Z" id="Path"></path>
            </g>
        </g>
    </g>
</svg>
