<?xml version="1.0" encoding="UTF-8" standalone="no"?>
<!-- Created with Inkscape (http://www.inkscape.org/) -->

<svg
   version="1.1"
   id="svg2708"
   width="372.43274"
   height="270.31036"
   viewBox="0 0 372.43273 270.31037"
   sodipodi:docname="Barrel1d.svg"
   inkscape:version="1.2.2 (732a01da63, 2022-12-09, custom)"
   xmlns:inkscape="http://www.inkscape.org/namespaces/inkscape"
   xmlns:sodipodi="http://sodipodi.sourceforge.net/DTD/sodipodi-0.dtd"
   xmlns="http://www.w3.org/2000/svg"
   xmlns:svg="http://www.w3.org/2000/svg">
  <defs
     id="defs2712" />
  <sodipodi:namedview
     id="namedview2710"
     pagecolor="#ffffff"
     bordercolor="#000000"
     borderopacity="0.25"
     inkscape:showpageshadow="2"
     inkscape:pageopacity="0.0"
     inkscape:pagecheckerboard="0"
     inkscape:deskcolor="#d1d1d1"
     showgrid="false"
     inkscape:zoom="2.1649824"
     inkscape:cx="161.66413"
     inkscape:cy="96.074684"
     inkscape:window-width="1920"
     inkscape:window-height="1031"
     inkscape:window-x="0"
     inkscape:window-y="25"
     inkscape:window-maximized="1"
     inkscape:current-layer="layer1" />
  <g
     inkscape:groupmode="layer"
     id="layer1"
     inkscape:label="Layer 1"
     transform="translate(-35.157056,-2.649477)">
    <path
       style="fill:#d38d5f;stroke-width:2.03455"
       d="m 163.60293,271.18501 c -5.59503,-0.86828 -12.91942,-2.06841 -16.27644,-2.66695 -3.35701,-0.59857 -10.6814,-1.68288 -16.27643,-2.40962 -17.29056,-2.24588 -54.539712,-11.47412 -62.481469,-15.47937 -4.151689,-2.09383 -8.565943,-3.80694 -9.809456,-3.80694 -3.468535,0 -6.634414,-4.12825 -11.701928,-15.25916 C 41.284499,218.88311 40.703898,216.38943 37.109489,188.83735 34.096793,165.74429 34.643788,116.75311 38.245291,87.109679 41.092905,63.671396 51.346785,37.120865 61.875239,25.924275 70.449466,16.805928 77.608273,13.694901 98.543431,9.9892508 131.14028,4.2194113 150.58362,2.6761704 191.01602,2.6495939 c 54.74389,-0.035983 120.10384,8.2418771 140.57094,17.8033581 8.66396,4.047489 18.036,18.088009 22.08524,33.086593 1.35947,5.03552 3.25985,11.902138 4.22306,15.259152 4.08428,14.234681 6.39884,38.149603 5.76882,59.605803 l -0.6749,22.98384 5.94698,-0.60375 c 7.48048,-0.75944 8.48411,-3.62783 3.23918,-9.25759 -3.28172,-3.52254 -4.09978,-7.17815 -4.09978,-18.32065 0,-15.71547 1.87692,-18.80297 11.43055,-18.80297 12.31561,0 12.98409,0.94874 12.98409,18.42756 0,12.5238 -0.70169,16.35035 -3.26086,17.78253 -1.79347,1.00368 -2.92588,3.56693 -2.51645,5.69612 0.59178,3.07765 2.60706,3.9122 9.83059,4.07103 8.64063,0.18998 9.15546,0.53824 10.49779,7.10152 1.79992,8.80069 -0.67964,11.68726 -9.67587,11.26414 -8.71014,-0.40968 -10.47984,1.46039 -11.33591,11.97866 -0.53874,6.61973 -1.50253,8.23204 -5.23797,8.76256 -4.23079,0.60087 -4.59602,-0.17013 -4.81868,-10.17276 -0.13245,-5.95261 -0.18189,-11.36143 -0.10971,-12.01961 0.0722,-0.65817 -3.48162,-1.33824 -7.89728,-1.51126 -7.85068,-0.30763 -8.02854,-0.15983 -8.02854,6.67164 0,3.84242 -0.74117,7.44428 -1.64706,8.00414 -0.90589,0.55987 -2.90014,7.02275 -4.43169,14.36196 -1.53154,7.33921 -3.53702,13.344 -4.4566,13.344 -0.91961,0 -1.67198,2.61208 -1.67198,5.8046 0,3.19255 -3.89108,13.43935 -8.64685,22.77068 -8.044,15.78318 -9.28518,17.18852 -17.80235,20.1569 -5.03552,1.75497 -10.07104,3.75694 -11.19004,4.44884 -3.86496,2.38976 -38.74566,7.63201 -65.10572,9.78479 -29.5931,2.41681 -65.99936,2.44078 -81.38214,0.0536 z"
       id="path3189-3" />
    <path
       style="fill:#000000;stroke-width:2.03455"
       d="m 163.60293,271.18501 c -5.59503,-0.86828 -12.91942,-2.06841 -16.27644,-2.66695 -3.35701,-0.59857 -10.6814,-1.68288 -16.27643,-2.40962 -17.29056,-2.24588 -54.539712,-11.47412 -62.481469,-15.47937 -4.151689,-2.09383 -8.565943,-3.80694 -9.809456,-3.80694 -3.468535,0 -6.634414,-4.12825 -11.701928,-15.25916 C 41.284499,218.88311 40.703898,216.38943 37.109489,188.83735 34.096793,165.74429 34.643788,116.75311 38.245291,87.109679 41.092905,63.671396 51.346785,37.120865 61.875239,25.924275 70.449466,16.805928 77.608273,13.694901 98.543431,9.9892508 131.14028,4.2194113 150.58362,2.6761704 191.01602,2.6495939 c 54.74389,-0.035983 120.10384,8.2418771 140.57094,17.8033581 8.66396,4.047489 18.036,18.088009 22.08524,33.086593 1.35947,5.03552 3.25985,11.902138 4.22306,15.259152 4.08428,14.234681 6.39884,38.149603 5.76882,59.605803 l -0.6749,22.98384 5.94698,-0.60375 c 7.48048,-0.75944 8.48411,-3.62783 3.23918,-9.25759 -3.28172,-3.52254 -4.09978,-7.17815 -4.09978,-18.32065 0,-15.71547 1.87692,-18.80297 11.43055,-18.80297 12.31561,0 12.98409,0.94874 12.98409,18.42756 0,12.5238 -0.70169,16.35035 -3.26086,17.78253 -1.79347,1.00368 -2.92588,3.56693 -2.51645,5.69612 0.59178,3.07765 2.60706,3.9122 9.83059,4.07103 8.64063,0.18998 9.15546,0.53824 10.49779,7.10152 1.79992,8.80069 -0.67964,11.68726 -9.67587,11.26414 -8.71014,-0.40968 -10.47984,1.46039 -11.33591,11.97866 -0.53874,6.61973 -1.50253,8.23204 -5.23797,8.76256 -4.23079,0.60087 -4.59602,-0.17013 -4.81868,-10.17276 -0.13245,-5.95261 -0.18189,-11.36143 -0.10971,-12.01961 0.0722,-0.65817 -3.48162,-1.33824 -7.89728,-1.51126 -7.85068,-0.30763 -8.02854,-0.15983 -8.02854,6.67164 0,3.84242 -0.74117,7.44428 -1.64706,8.00414 -0.90589,0.55987 -2.90014,7.02275 -4.43169,14.36196 -1.53154,7.33921 -3.53702,13.344 -4.4566,13.344 -0.91961,0 -1.67198,2.61208 -1.67198,5.8046 0,3.19255 -3.89108,13.43935 -8.64685,22.77068 -8.044,15.78318 -9.28518,17.18852 -17.80235,20.1569 -5.03552,1.75497 -10.07104,3.75694 -11.19004,4.44884 -3.86496,2.38976 -38.74566,7.63201 -65.10572,9.78479 -29.5931,2.41681 -65.99936,2.44078 -81.38214,0.0536 z m 72.63437,-9.39497 21.38625,-1.30855 6.37771,-12.93333 6.37773,-12.93336 -5.57603,0.0365 c -26.67603,0.17396 -78.77168,-2.08202 -86.95816,-3.76579 -5.59503,-1.15075 -14.03121,-2.522 -18.74706,-3.04719 -7.43585,-0.82814 -8.75123,-0.37414 -9.90702,3.41947 -0.73301,2.40593 -3.60644,9.23949 -6.38542,15.18571 -2.77898,5.94622 -4.5156,11.34841 -3.85913,12.00486 3.35576,3.35577 63.37127,5.4172 97.29113,3.34179 z m 60.78941,-5.34302 c 6.19544,-1.6652 11.37719,-4.88922 15.46942,-9.62489 6.76716,-7.83118 11.15619,-15.26131 9.81011,-16.60736 -0.47629,-0.4763 -8.119,-0.0212 -16.98385,1.01121 l -16.11785,1.87719 -5.14321,12.96314 -5.14321,12.96314 4.39629,-0.0392 c 2.41796,-0.0215 8.58847,-1.16603 13.7123,-2.5432 z M 123.72234,240.09977 c 3.80278,-7.53372 6.35683,-14.25496 5.67567,-14.93613 -1.1229,-1.12289 -7.16999,-2.58715 -24.83558,-6.0137 -5.895455,-1.14352 -6.295353,-0.75482 -9.958575,9.67994 -2.099061,5.97923 -5.181924,12.45444 -6.850805,14.38936 -2.702067,3.13283 -2.669057,3.65823 0.301461,4.79811 5.585432,2.14334 24.553119,6.49099 26.719119,6.12441 1.11901,-0.18941 5.14592,-6.50829 8.94871,-14.04199 z m -55.63046,2.21186 c 4.451674,-2.78652 13.0981,-23.68051 17.919183,-43.30151 8.146448,-33.15467 9.968995,-48.87514 10.142632,-87.4858 C 96.293911,80.344304 95.606734,71.576723 91.529256,52.522269 86.437998,28.730311 82.086306,20.986688 73.807164,20.986688 c -5.53549,0 -11.741984,6.131304 -17.505782,17.293707 -4.325015,8.375995 -9.78487,25.280949 -10.546903,32.655596 -0.237097,2.294517 -1.258918,5.498939 -2.270718,7.120938 -2.458101,3.940543 -2.509927,4.35115 -5.123039,40.588331 -2.570672,35.64865 -1.279864,61.51235 4.448649,89.13691 4.196259,20.23555 6.292523,25.28333 13.393644,32.25165 4.418623,4.33598 7.620688,4.94946 11.888865,2.27781 z M 57.28262,230.03706 C 52.663136,225.10158 47.758185,212.06413 45.609657,199.01012 42.655881,181.06357 42.790028,115.78927 45.820816,96.26517 50.960312,63.156909 58.497168,39.374619 65.760324,33.346734 c 2.970667,-2.465433 4.151777,-2.300812 8.924832,1.24394 7.972532,5.920873 10.366955,18.350161 11.902528,61.785186 1.294337,36.61155 -0.05165,60.38274 -5.696249,100.59971 -2.409112,17.1646 -9.458454,34.23425 -15.019106,36.36807 -4.3419,1.66613 -3.706416,1.91077 -8.589709,-3.30658 z M 70.709232,219.8643 C 80.109248,204.62811 86.302258,148.96732 84.410111,96.725166 82.862534,53.996549 79.759854,37.255587 73.549623,38.125821 66.96016,39.049195 58.418406,59.270333 52.546318,87.847546 c -3.131671,15.240634 -3.793796,26.565794 -3.822744,65.385124 -0.03137,42.05483 2.698846,60.27955 10.231541,68.29775 5.992763,6.37899 6.867115,6.25506 11.754117,-1.66612 z m 202.662478,6.11309 c 1.31163,-2.52819 3.40398,-9.63008 4.64966,-15.78199 1.24568,-6.15189 2.83773,-12.65422 3.53793,-14.44959 1.10484,-2.83295 -1.76535,-3.44587 -21.7197,-4.63817 -12.646,-0.75562 -39.78152,-2.79258 -60.30116,-4.52657 -20.51961,-1.73397 -37.64814,-2.81293 -38.0634,-2.39769 -1.11021,1.11021 -6.29672,21.64192 -7.9365,31.41806 -1.651,9.84297 -2.96638,9.26795 29.39263,12.84865 29.40961,3.25434 35.60058,3.53012 62.84749,2.79975 23.77649,-0.63734 25.34368,-0.93679 27.59305,-5.27245 z m 38.11878,2.1917 c 14.12709,-2.33303 14.45792,-2.5288 18.04987,-10.6814 4.38334,-9.94882 8.94252,-27.38563 7.52982,-28.79831 -1.92715,-1.92715 -34.46766,1.79211 -35.13779,4.01613 -0.3705,1.22953 -2.89025,10.24655 -5.59944,20.03785 -5.59991,20.23853 -6.77064,19.0471 15.15754,15.42573 z M 137.84705,202.48463 c 2.61934,-9.27907 4.29263,-18.09532 3.71841,-19.59168 -0.5742,-1.49636 -6.37948,-3.67325 -12.90064,-4.83753 -6.52115,-1.16428 -13.26478,-2.67144 -14.98584,-3.34924 -2.47215,-0.97358 -3.68458,1.44871 -5.77404,11.5358 -1.45465,7.02248 -3.47981,15.42252 -4.50036,18.66677 -1.02055,3.24424 -1.85555,6.98188 -1.85555,8.30586 0,2.7327 16.23403,6.82752 25.43193,6.41488 5.85735,-0.26279 6.29584,-0.95465 10.86609,-17.14486 z m 148.84852,-38.0864 c 1.06824,-12.15866 1.50282,-22.54609 0.96576,-23.08316 -1.85662,-1.8566 -86.98428,-5.66755 -106.86134,-4.7839 l -13.32124,0.59221 -2.98287,21.12035 -2.98288,21.12036 8.16589,1.17759 c 13.92141,2.00759 23.28301,2.82337 59.02974,5.14397 48.50231,3.14865 52.69777,3.30162 54.47154,1.98602 0.86522,-0.64172 2.44716,-11.11478 3.5154,-23.27344 z m 40.39008,22.11478 c 12.31017,-1.28666 12.53414,-1.42166 14.34723,-8.64685 1.013,-4.03689 2.28108,-13.51975 2.81791,-21.07303 l 0.9761,-13.73323 -6.37799,-0.32283 c -3.50793,-0.17756 -11.60395,-0.47937 -17.99118,-0.67069 -13.56533,-0.40632 -12.16945,-3.39507 -16.85526,36.08956 -1.13437,9.55852 -1.08281,9.66414 4.71547,9.66414 3.22428,0 11.48975,-0.58818 18.36772,-1.30707 z m 57.26634,-8.8657 c 0,-5.8776 -0.84773,-8.13821 -3.05183,-8.13821 -2.20409,0 -3.05183,2.26061 -3.05183,8.13821 0,5.8776 0.84774,8.13821 3.05183,8.13821 2.2041,0 3.05183,-2.26061 3.05183,-8.13821 z m -238.19359,-30.00966 0.15081,-12.71596 h -15.22039 c -17.19287,0 -15.30799,-2.21343 -18.80487,22.08276 -2.17854,15.13644 -1.63685,15.66107 18.76611,18.17494 l 12.20732,1.50406 1.37511,-8.16491 c 0.7563,-4.49071 1.44297,-13.88711 1.52591,-20.88089 z m 258.53912,10.55214 c 0,-5.20209 -0.0427,-5.21453 -16.39081,-4.78239 -20.67762,0.54658 -26.33481,1.63427 -26.33481,5.06326 0,1.98798 4.28179,2.91735 15.76778,3.42248 8.6723,0.38138 18.28557,0.87766 21.36282,1.10285 4.75512,0.34799 5.59502,-0.37351 5.59502,-4.8062 z m -20.34553,-11.82894 c 0,-2.66049 1.37333,-5.97702 3.05183,-7.37006 2.11752,-1.75739 3.05183,-6.42889 3.05183,-15.25915 0,-14.32628 -2.4934,-17.97348 -11.57565,-16.93208 -5.60365,0.64254 -5.7299,0.94443 -6.30941,15.0884 -0.4528,11.05081 0.14328,15.04232 2.54318,17.03418 1.72401,1.4308 3.13456,4.77822 3.13456,7.43871 0,2.94342 1.19483,4.83727 3.05183,4.83727 1.857,0 3.05183,-1.89385 3.05183,-4.83727 z m -38.65652,-25.51973 v -17.8282 l -8.42745,-2.52493 c -4.63509,-1.388706 -12.87503,-3.227992 -18.31098,-4.087299 l -9.88354,-1.562375 -0.0279,17.498494 c -0.0163,9.62417 -0.56023,19.48338 -1.21095,21.90936 -1.4371,5.35761 1.75726,6.06152 23.11016,5.09252 l 14.75052,-0.66937 v -17.8282 z m -56.9675,-5.11637 V 94.598266 l -13.73324,-2.233689 c -33.79932,-5.497407 -102.88355,-8.12835 -105.42577,-4.014944 -1.26977,2.054517 -1.35307,42.707717 -0.0902,43.970677 0.29702,0.29702 19.57514,0.95897 42.84027,1.47101 23.26514,0.51204 42.68488,1.31562 43.15502,1.78574 0.4701,0.47012 8.14454,0.94914 17.0543,1.06448 l 16.19954,0.2097 z m -139.87231,7.92588 c 0.5726,-5.08008 0.56341,-15.18732 -0.0205,-22.46054 l -1.0615,-13.224037 -15.48279,0.589089 -15.48278,0.58909 -0.57747,21.871448 -0.57747,21.87145 h 16.08071 16.08066 z M 342.88842,85.274902 c -2.37191,-23.151053 -3.39165,-24.581465 -20.14475,-28.257644 -8.04006,-1.764257 -14.86356,-2.962509 -15.16329,-2.662783 -0.29972,0.299727 0.0519,8.953973 0.78148,19.231659 1.48668,20.94471 -0.77864,18.664202 22.07445,22.222243 6.71403,1.045319 12.56265,2.033501 12.99693,2.195963 0.43429,0.162458 0.18921,-5.565787 -0.54482,-12.729438 z M 286.15204,70.384066 C 285.2097,59.506471 284.161,50.328949 283.82162,49.989569 c -1.29772,-1.29773 -29.41618,-6.514398 -45.9575,-8.52625 -22.15441,-2.694555 -62.44098,-4.343188 -69.66364,-2.850823 -4.38927,0.90692 -5.38328,2.076081 -4.67293,5.496313 0.49624,2.389394 1.34066,8.464323 1.87647,13.499844 0.53581,5.03552 1.5899,12.913263 2.34241,17.506094 l 1.36819,8.350602 23.69335,0.234479 c 23.84324,0.235961 83.99943,4.229965 85.57768,5.681833 0.46625,0.428917 2.78993,0.779848 5.16375,0.779848 4.21982,0 4.27782,-0.440783 2.60264,-19.777443 z m -141.0265,14.473385 c 2.12421,-0.815138 3.213,-3.754575 3.20285,-8.646853 -0.0166,-8.052378 -3.75889,-33.227173 -5.14526,-34.613535 -0.47049,-0.470487 -7.82459,0.336681 -16.34244,1.793709 l -15.48701,2.649136 1.21888,6.29301 c 0.67038,3.461157 1.79177,12.472968 2.49199,20.026249 l 1.27311,13.733235 h 12.78483 c 7.03165,0 14.23302,-0.555728 16.00305,-1.234951 z M 332.49273,44.246335 C 327.14362,30.035033 321.0662,20.848202 315.51785,18.586497 c -6.12208,-2.495584 -17.13912,-1.89678 -16.08531,0.874276 0.53193,1.398756 2.1216,9.022863 3.53259,16.942462 l 2.56539,14.399268 14.48746,3.119052 c 7.96811,1.715479 15.16623,3.24686 15.99589,3.403074 0.82962,0.156213 -0.75489,-5.729018 -3.52114,-13.078294 z M 281.9197,39.880869 C 281.35531,37.881603 280.31017,33.041418 279.59715,29.124904 276.56273,12.457013 275.54835,11.466559 258.98996,9.0038059 243.72467,6.7333761 156.48198,5.7676462 156.48198,7.8690971 c 0,0.6183558 1.40896,7.3189779 3.13101,14.8902699 l 3.13101,13.765989 17.11433,-0.898275 c 17.03916,-0.894326 68.859,2.50676 82.42043,5.409492 3.91652,0.838304 10.16882,1.739095 13.89401,2.001756 5.64073,0.397727 6.60152,-0.130145 5.74693,-3.15746 z M 130.44128,39.057128 c 5.92986,-1.251304 10.97083,-2.432428 11.20217,-2.624717 0.72412,-0.601896 -6.49423,-22.390026 -8.62617,-26.037537 -1.88816,-3.230427 -3.08367,-3.2530038 -17.25711,-0.325897 -17.220983,3.556485 -17.597072,3.742568 -14.77027,7.308076 1.1304,1.425797 3.62332,7.398992 5.53982,13.273766 3.92527,12.032381 4.97648,12.401944 23.91156,8.406309 z"
       id="path3189" />
  </g>
</svg>
