<?xml version="1.0" encoding="UTF-8" standalone="no"?>
<!-- Created with Inkscape (http://www.inkscape.org/) -->

<svg
   version="1.1"
   id="svg9"
   width="800"
   height="800"
   viewBox="0 0 800 800"
   sodipodi:docname="camomile-fieldt-publicdomainvectors.org.svg"
   inkscape:version="1.2 (dc2aedaf03, 2022-05-15)"
   xmlns:inkscape="http://www.inkscape.org/namespaces/inkscape"
   xmlns:sodipodi="http://sodipodi.sourceforge.net/DTD/sodipodi-0.dtd"
   xmlns="http://www.w3.org/2000/svg"
   xmlns:svg="http://www.w3.org/2000/svg">
  <defs
     id="defs13">
    <clipPath
       clipPathUnits="userSpaceOnUse"
       id="clipPath27">
      <path
         d="M 0,600 H 600 V 0 H 0 Z"
         id="path25" />
    </clipPath>
  </defs>
  <sodipodi:namedview
     id="namedview11"
     pagecolor="#ffffff"
     bordercolor="#000000"
     borderopacity="0.25"
     inkscape:showpageshadow="2"
     inkscape:pageopacity="0.0"
     inkscape:pagecheckerboard="0"
     inkscape:deskcolor="#d1d1d1"
     showgrid="false"
     inkscape:zoom="1.0175"
     inkscape:cx="400"
     inkscape:cy="400"
     inkscape:window-width="1920"
     inkscape:window-height="1017"
     inkscape:window-x="-8"
     inkscape:window-y="-8"
     inkscape:window-maximized="1"
     inkscape:current-layer="g17">
    <inkscape:page
       x="0"
       y="0"
       id="page15"
       width="800"
       height="800" />
  </sodipodi:namedview>
  <g
     id="g17"
     inkscape:groupmode="layer"
     inkscape:label="Page 1"
     transform="matrix(1.3333333,0,0,-1.3333333,0,800)">
    <path
       d="M 0,0 H 600 V 599.431 H 0 Z"
       style="fill:#e0f4fd;fill-opacity:1;fill-rule:nonzero;stroke:none"
       id="path19" />
    <g
       id="g21">
      <g
         id="g23"
         clip-path="url(#clipPath27)">
        <g
           id="g29"
           transform="translate(600.3828,496.4634)">
          <path
             d="m 0,0 v -178.879 h -277.003 c 0,15.048 12.198,27.246 27.245,27.246 2.775,0 5.451,-0.416 7.974,-1.187 6.482,7.804 16.259,12.774 27.198,12.774 2.868,0 5.655,-0.345 8.326,-0.989 4.825,18.259 21.452,31.721 41.227,31.721 6.512,0 12.68,-1.462 18.199,-4.071 -0.094,0.832 -0.143,1.677 -0.143,2.534 0,12.306 9.975,22.281 22.279,22.281 1.055,0 2.09,-0.075 3.104,-0.217 -0.019,0.454 -0.03,0.91 -0.03,1.369 0,15.658 11.022,28.739 25.73,31.914 -1.239,3.604 -1.913,7.47 -1.913,11.494 0,17.655 12.947,32.285 29.863,34.918 -0.437,1.863 -0.668,3.805 -0.668,5.802 0,14.001 11.35,25.352 25.353,25.352 11.658,0 21.479,-7.869 24.44,-18.585 1.06,0.095 2.133,0.147 3.218,0.147 C -10,3.624 -4.705,2.319 0,0 M -600.383,-178.879 V 13.568 c 2.396,1.017 5.032,1.579 7.799,1.579 11.031,0 19.975,-8.942 19.975,-19.974 v -0.005 c 0.128,0.002 0.256,0.005 0.384,0.005 11.245,0 20.36,-9.116 20.36,-20.36 0,-6.045 -2.635,-11.474 -6.819,-15.202 4.436,-4.217 7.202,-10.174 7.202,-16.778 0,-0.686 -0.032,-1.366 -0.091,-2.038 3.674,1.318 7.633,2.038 11.76,2.038 19.226,0 34.813,-15.586 34.813,-34.813 0,-0.31 -0.005,-0.618 -0.013,-0.925 11.737,-3.115 20.412,-13.745 20.561,-26.427 2.589,0.515 5.265,0.787 8.004,0.787 17.659,0 32.701,-11.201 38.411,-26.886 2.35,0.63 4.82,0.967 7.369,0.967 15.699,0 28.426,-12.726 28.426,-28.426 0,-2.055 -0.22,-4.058 -0.634,-5.989 z"
             style="fill:#fcfeff;fill-opacity:1;fill-rule:evenodd;stroke:none"
             id="path31" />
        </g>
        <path
           d="M 0,-0.952 H 600.383 V 317.584 H 0 Z"
           style="fill:#adcfef;fill-opacity:1;fill-rule:evenodd;stroke:none"
           id="path33" />
        <g
           id="g35"
           transform="translate(600.3828,244.9473)">
          <path
             d="m 0,0 v 72.637 h -277.003 c 0,-6.11 12.198,-11.064 27.245,-11.064 2.775,0 5.451,0.169 7.974,0.483 6.482,-3.17 16.259,-5.187 27.198,-5.187 2.868,0 5.655,0.139 8.326,0.401 4.825,-7.415 21.452,-12.881 41.227,-12.881 6.512,0 12.68,0.593 18.199,1.653 -0.094,-0.338 -0.143,-0.681 -0.143,-1.029 0,-4.996 9.975,-9.047 22.279,-9.047 1.055,0 2.09,0.03 3.104,0.088 -0.019,-0.185 -0.03,-0.37 -0.03,-0.557 0,-6.357 11.022,-11.67 25.73,-12.959 -1.239,-1.463 -1.913,-3.033 -1.913,-4.667 0,-7.169 12.947,-13.109 29.863,-14.18 -0.437,-0.755 -0.668,-1.545 -0.668,-2.356 0,-5.685 11.35,-10.294 25.353,-10.294 11.658,0 21.479,3.195 24.44,7.547 1.06,-0.039 2.133,-0.06 3.218,-0.06 C -10,-1.472 -4.705,-0.941 0,0 M -600.383,72.637 V -5.51 c 2.396,-0.413 5.032,-0.641 7.799,-0.641 11.031,0 19.975,3.631 19.975,8.112 v 0.002 c 0.128,-0.002 0.256,-0.002 0.384,-0.002 11.245,0 20.36,3.701 20.36,8.268 0,2.453 -2.635,4.658 -6.819,6.172 4.436,1.712 7.202,4.131 7.202,6.813 0,0.278 -0.032,0.554 -0.091,0.827 3.674,-0.535 7.633,-0.827 11.76,-0.827 19.226,0 34.813,6.329 34.813,14.136 0,0.126 -0.005,0.252 -0.013,0.376 11.737,1.264 20.412,5.582 20.561,10.731 2.589,-0.209 5.265,-0.32 8.004,-0.32 17.659,0 32.701,4.548 38.411,10.918 2.35,-0.256 4.82,-0.393 7.369,-0.393 15.699,0 28.426,5.169 28.426,11.544 0,0.834 -0.22,1.647 -0.634,2.431 z"
             style="fill:#c8e2f6;fill-opacity:1;fill-rule:evenodd;stroke:none"
             id="path37" />
        </g>
        <g
           id="g39"
           transform="translate(600.3828,196.8467)">
          <path
             d="M 0,0 V -197.799 H -600.383 V 0 c 95.87,5.866 196.463,9 300.191,9 C -196.462,9 -95.871,5.866 0,0"
             style="fill:#77b02c;fill-opacity:1;fill-rule:evenodd;stroke:none"
             id="path41" />
        </g>
        <g
           id="g43"
           transform="translate(44.3291,319.708)">
          <path
             d="m 0,0 c 1.921,-0.212 3.415,-1.84 3.415,-3.817 0,-2.122 -1.719,-3.842 -3.841,-3.842 -0.216,0 -0.427,0.018 -0.633,0.053 -1.438,-1.899 -3.716,-3.125 -6.281,-3.125 -1.192,0 -2.322,0.265 -3.335,0.739 -1.12,-1.499 -2.909,-2.469 -4.924,-2.469 -3.394,0 -6.146,2.752 -6.146,6.147 0,3.394 2.752,6.146 6.146,6.146 0.283,0 0.562,-0.02 0.835,-0.057 1.084,3.055 3.998,5.243 7.424,5.243 C -3.999,5.018 -1.144,2.937 0,0 m 314.382,9.436 c 4.88,0 8.835,-3.957 8.835,-8.836 0,-4.88 -3.955,-8.835 -8.835,-8.835 -1.106,0 -2.163,0.203 -3.137,0.573 -1.437,-2.55 -4.171,-4.273 -7.307,-4.273 -4.628,0 -8.379,3.753 -8.379,8.381 0,0.128 0.003,0.255 0.008,0.381 -0.802,-0.247 -1.656,-0.381 -2.542,-0.381 -1.762,0 -3.403,0.531 -4.767,1.441 0.009,-0.185 0.013,-0.371 0.013,-0.558 0,-5.838 -4.732,-10.57 -10.569,-10.57 -5.247,0 -9.6,3.823 -10.428,8.835 -3.277,0.462 -5.958,2.783 -6.941,5.862 -0.484,0.068 -0.954,0.186 -1.404,0.345 0.025,-0.302 0.039,-0.606 0.039,-0.912 0,-5.888 -4.772,-10.66 -10.659,-10.66 -4.987,0 -9.174,3.424 -10.338,8.048 -0.824,-0.259 -1.701,-0.401 -2.61,-0.401 -2.538,0 -4.821,1.092 -6.405,2.832 -1.06,-2.978 -3.903,-5.111 -7.245,-5.111 -3.19,0 -5.927,1.944 -7.09,4.712 -0.615,-0.186 -1.267,-0.286 -1.942,-0.286 -2.087,0 -3.951,0.951 -5.184,2.443 -1.53,-2.174 -4.057,-3.594 -6.916,-3.594 -2.823,0 -5.322,1.384 -6.857,3.51 -1.11,-0.761 -2.453,-1.206 -3.901,-1.206 -2.169,0 -4.105,1 -5.373,2.563 -1.334,-1.457 -3.252,-2.37 -5.383,-2.37 -2.82,0 -5.267,1.6 -6.483,3.942 -1.596,-1.492 -3.74,-2.406 -6.098,-2.406 -1.772,0 -3.424,0.516 -4.813,1.406 -1.021,-1.976 -3.084,-3.327 -5.462,-3.327 -2.002,0 -3.78,0.957 -4.902,2.439 -1.372,-1.161 -3.147,-1.863 -5.086,-1.863 -1.796,0 -3.451,0.602 -4.776,1.614 -1.572,-4.465 -5.826,-7.666 -10.829,-7.666 -4.398,0 -8.219,2.474 -10.145,6.106 -1.321,-1.112 -3.024,-1.782 -4.886,-1.782 -2.539,0 -4.787,1.248 -6.164,3.164 -0.931,-2.144 -3.066,-3.644 -5.552,-3.644 -1.47,0 -2.818,0.524 -3.866,1.396 -1.042,-1.896 -3.057,-3.181 -5.374,-3.181 -1.785,0 -3.392,0.764 -4.512,1.983 -1.474,-1.93 -3.799,-3.176 -6.414,-3.176 -2.43,0 -4.609,1.074 -6.087,2.772 -1.196,-2.545 -3.784,-4.308 -6.783,-4.308 -2.321,0 -4.397,1.057 -5.77,2.714 -1.042,-0.508 -2.212,-0.794 -3.449,-0.794 -1.884,0 -3.613,0.662 -4.968,1.765 -1.175,-1.539 -3.029,-2.533 -5.116,-2.533 -1.99,0 -3.769,0.904 -4.949,2.323 -1.708,-1.562 -3.982,-2.515 -6.479,-2.515 -2.19,0 -4.208,0.735 -5.824,1.969 -1.36,-1.89 -3.578,-3.122 -6.085,-3.122 -1.995,0 -3.807,0.781 -5.149,2.053 -1.508,-1.051 -3.342,-1.668 -5.319,-1.668 -5.145,0 -9.315,4.171 -9.315,9.316 0,5.145 4.17,9.315 9.315,9.315 3.368,0 6.319,-1.788 7.955,-4.466 0.785,0.28 1.632,0.432 2.513,0.432 1.069,0 2.084,-0.223 3.004,-0.626 1.424,3.52 4.874,6.005 8.905,6.005 4.246,0 7.847,-2.756 9.116,-6.575 0.717,0.276 1.497,0.428 2.312,0.428 1.09,0 2.117,-0.271 3.016,-0.75 1.285,2.606 3.967,4.399 7.068,4.399 2.62,0 4.941,-1.28 6.373,-3.249 0.878,0.361 1.839,0.56 2.846,0.56 2.126,0 4.044,-0.885 5.408,-2.307 1.208,2.933 4.093,4.996 7.462,4.996 3.01,0 5.636,-1.65 7.022,-4.095 1.061,0.878 2.421,1.406 3.904,1.406 1.513,0 2.896,-0.548 3.964,-1.455 1.036,1.843 3.011,3.088 5.276,3.088 1.748,0 3.322,-0.742 4.427,-1.927 0.913,3.165 3.83,5.481 7.289,5.481 2.019,0 3.853,-0.789 5.212,-2.075 2.013,3.316 5.657,5.531 9.819,5.531 3.729,0 7.042,-1.777 9.138,-4.532 1.423,2.043 3.789,3.381 6.467,3.381 3.218,0 5.985,-1.932 7.207,-4.698 0.835,0.424 1.78,0.663 2.781,0.663 0.495,0 0.975,-0.058 1.435,-0.169 0.618,4.331 4.339,7.661 8.84,7.661 3.933,0 7.273,-2.543 8.464,-6.074 1.173,0.803 2.59,1.272 4.117,1.272 2.412,0 4.55,-1.171 5.879,-2.974 1.076,1.071 2.503,1.789 4.093,1.969 -1.094,0.783 -1.807,2.063 -1.807,3.511 0,0.747 0.189,1.449 0.524,2.061 -1.572,0.866 -2.637,2.539 -2.637,4.461 0,0.099 0.003,0.197 0.008,0.294 -2.01,-1.852 -4.694,-2.983 -7.642,-2.983 -6.232,0 -11.284,5.052 -11.284,11.284 0,6.232 5.052,11.284 11.284,11.284 0.378,0 0.751,-0.018 1.12,-0.055 -0.198,0.639 -0.304,1.319 -0.304,2.024 0,3.792 3.074,6.866 6.867,6.866 0.424,0 0.839,-0.039 1.243,-0.112 1.131,2.931 3.974,5.01 7.304,5.01 4.322,0 7.827,-3.504 7.827,-7.826 0,-2.39 -1.073,-4.531 -2.762,-5.967 1.313,-0.834 2.184,-2.301 2.184,-3.973 0,-0.658 -0.135,-1.284 -0.379,-1.854 2.106,-1.07 3.549,-3.257 3.549,-5.78 0,-3.581 -2.903,-6.483 -6.483,-6.483 -1.075,0 -2.09,0.262 -2.984,0.727 0.403,-0.729 0.631,-1.565 0.631,-2.456 0,-1.183 -0.403,-2.272 -1.081,-3.137 1,-0.789 1.642,-2.013 1.642,-3.385 0,-0.237 -0.02,-0.469 -0.056,-0.695 1.256,-0.286 2.308,-1.108 2.905,-2.212 0.602,0.137 1.229,0.209 1.873,0.209 3.148,0 5.893,-1.722 7.347,-4.274 1.217,1.216 2.897,1.969 4.753,1.969 2.435,0 4.568,-1.295 5.747,-3.233 0.996,0.471 2.11,0.736 3.285,0.736 2.056,0 3.923,-0.807 5.302,-2.122 1.013,3.66 4.367,6.348 8.348,6.348 3.458,0 6.442,-2.027 7.83,-4.957 1.519,0.833 3.262,1.307 5.118,1.307 2.159,0 4.169,-0.643 5.848,-1.747 0.542,3.491 3.562,6.164 7.205,6.164 2.602,0 4.885,-1.362 6.175,-3.413 0.308,0.034 0.622,0.052 0.94,0.052 3.383,0 6.307,-1.965 7.692,-4.816 0.5,0.072 1.012,0.11 1.533,0.11 2.557,0 4.9,-0.907 6.727,-2.417 0.223,4.555 3.987,8.18 8.596,8.18 4.755,0 8.609,-3.854 8.609,-8.608 0,-0.186 -0.006,-0.371 -0.019,-0.555 0.737,0.213 1.518,0.328 2.323,0.328 0.867,0 1.704,-0.132 2.489,-0.376 1.431,2.95 4.455,4.986 7.955,4.986"
             style="fill:#86c527;fill-opacity:1;fill-rule:evenodd;stroke:none"
             id="path45" />
        </g>
        <g
           id="g47"
           transform="translate(207.7573,326.8413)">
          <path
             d="M 0,0 C 92.864,0 171.312,-9.231 196.667,-21.897 H -196.667 C -171.311,-9.231 -92.863,0 0,0"
             style="fill:#92d222;fill-opacity:1;fill-rule:evenodd;stroke:none"
             id="path49" />
        </g>
        <g
           id="g51"
           transform="translate(358.7109,280.7461)">
          <path
             d="m 0,0 c 4.88,0 8.835,3.956 8.835,8.836 0,1.711 -0.486,3.307 -1.328,4.66 17.143,3.113 30.274,6.74 38.207,10.702 H -347.62 c 3.336,-1.666 7.599,-3.273 12.688,-4.807 -0.751,-1.019 -1.195,-2.279 -1.195,-3.641 0,-3.395 2.752,-6.147 6.146,-6.147 0.283,0 0.562,0.02 0.836,0.057 1.083,-3.055 3.997,-5.243 7.423,-5.243 3.342,0 6.197,2.082 7.34,5.018 1.922,0.212 3.416,1.839 3.416,3.818 0,0.182 -0.012,0.362 -0.038,0.538 2.719,-0.506 5.542,-0.999 8.466,-1.478 -2.096,-1.709 -3.434,-4.309 -3.434,-7.223 0,-5.145 4.17,-9.316 9.315,-9.316 3.369,0 6.319,1.788 7.955,4.466 0.786,-0.279 1.632,-0.432 2.514,-0.432 1.068,0 2.083,0.224 3.003,0.627 1.424,-3.521 4.874,-6.005 8.905,-6.005 4.246,0 7.847,2.755 9.116,6.575 0.717,-0.277 1.498,-0.429 2.312,-0.429 1.09,0 2.117,0.272 3.017,0.75 1.284,-2.606 3.966,-4.399 7.068,-4.399 2.62,0 4.94,1.28 6.373,3.25 0.877,-0.362 1.838,-0.562 2.845,-0.562 2.126,0 4.045,0.886 5.408,2.308 1.208,-2.932 4.094,-4.996 7.462,-4.996 3.011,0 5.636,1.65 7.022,4.094 1.061,-0.878 2.421,-1.405 3.905,-1.405 1.512,0 2.895,0.547 3.963,1.455 1.037,-1.843 3.011,-3.088 5.276,-3.088 1.748,0 3.323,0.743 4.427,1.927 0.913,-3.166 3.83,-5.48 7.29,-5.48 2.018,0 3.853,0.789 5.212,2.074 2.012,-3.315 5.656,-5.531 9.818,-5.531 3.729,0 7.042,1.778 9.138,4.532 1.423,-2.042 3.789,-3.38 6.467,-3.38 3.219,0 5.985,1.932 7.207,4.697 0.835,-0.424 1.78,-0.663 2.781,-0.663 0.495,0 0.975,0.059 1.435,0.169 0.618,-4.331 4.34,-7.66 8.841,-7.66 3.933,0 7.272,2.542 8.463,6.073 1.173,-0.802 2.59,-1.271 4.118,-1.271 2.411,0 4.549,1.17 5.879,2.973 1.076,-1.07 2.502,-1.79 4.092,-1.968 -1.093,-0.784 -1.807,-2.064 -1.807,-3.511 0,-0.747 0.19,-1.449 0.524,-2.062 -1.572,-0.866 -2.637,-2.539 -2.637,-4.461 0,-0.098 0.003,-0.196 0.009,-0.294 -2.011,1.852 -4.695,2.983 -7.643,2.983 -6.231,0 -11.284,-5.052 -11.284,-11.283 0,-6.233 5.053,-11.285 11.284,-11.285 0.378,0 0.751,0.019 1.12,0.055 -0.197,-0.638 -0.304,-1.319 -0.304,-2.024 0,-3.791 3.074,-6.866 6.867,-6.866 0.424,0 0.84,0.039 1.243,0.114 1.131,-2.932 3.974,-5.013 7.304,-5.013 4.322,0 7.827,3.504 7.827,7.828 0,2.39 -1.072,4.53 -2.761,5.965 1.313,0.835 2.184,2.304 2.184,3.974 0,0.658 -0.136,1.286 -0.379,1.853 2.106,1.07 3.548,3.258 3.548,5.781 0,3.581 -2.902,6.483 -6.482,6.483 -1.076,0 -2.091,-0.262 -2.984,-0.727 0.402,0.729 0.631,1.566 0.631,2.456 0,1.184 -0.404,2.273 -1.081,3.137 1,0.789 1.641,2.013 1.641,3.386 0,0.236 -0.019,0.469 -0.055,0.694 1.255,0.286 2.308,1.108 2.904,2.212 0.602,-0.136 1.229,-0.209 1.873,-0.209 3.148,0 5.893,1.722 7.348,4.274 1.216,-1.215 2.896,-1.968 4.752,-1.968 2.435,0 4.568,1.295 5.748,3.232 0.996,-0.471 2.109,-0.735 3.284,-0.735 2.056,0 3.924,0.807 5.302,2.121 1.014,-3.66 4.367,-6.347 8.349,-6.347 3.457,0 6.441,2.027 7.829,4.956 1.519,-0.833 3.262,-1.306 5.118,-1.306 2.16,0 4.169,0.642 5.848,1.747 0.542,-3.492 3.562,-6.165 7.205,-6.165 2.602,0 4.885,1.362 6.175,3.413 0.308,-0.033 0.622,-0.052 0.94,-0.052 3.384,0 6.307,1.966 7.692,4.817 0.5,-0.073 1.012,-0.111 1.533,-0.111 2.557,0 4.9,0.907 6.727,2.417 0.224,-4.555 3.987,-8.18 8.597,-8.18 4.754,0 8.608,3.855 8.608,8.608 0,0.186 -0.006,0.372 -0.019,0.554 0.738,-0.211 1.518,-0.327 2.324,-0.327 0.866,0 1.703,0.132 2.488,0.376 C -6.523,2.035 -3.5,0 0,0"
             style="fill:#87b1e3;fill-opacity:1;fill-rule:evenodd;stroke:none"
             id="path53" />
        </g>
        <g
           id="g55"
           transform="translate(464.1631,199.1611)">
          <path
             d="M 0,0 C -1.413,12.395 0.709,22.946 5.185,32.269 -2.961,24.421 -6.388,13.032 -6.339,-0.962 c -3.841,-0.575 -7.683,-1.151 -11.523,-1.727 -2.014,9.237 -2.727,18.101 -1.154,26.314 -3.307,-5.063 -4.759,-12.289 -4.993,-20.937 -0.366,14.013 -2.058,27.032 -9.603,36.686 2.636,-10.72 2.995,-21.165 -0.77,-31.116 0.328,8.238 -1.478,14.748 -6.529,18.631 2.867,-9.521 1.684,-17.625 -0.577,-25.353 -25.93,0.192 -51.86,0.385 -77.788,0.576 -2.597,7.951 -2.718,15.611 -0.961,23.049 -4.303,-7.222 -5.366,-16.147 -4.802,-25.93 -4.522,12.972 -6.747,27.042 -5.378,42.832 -4.468,-9.112 -5.903,-19.571 -5.763,-30.731 -5.983,5.149 -7.844,11.945 -6.145,20.167 -6.544,-10.522 -6.857,-22.765 -5.955,-35.342 -28.298,0.321 -56.597,0.641 -84.896,0.961 -3.166,8.199 -3.364,16.771 -0.384,25.738 -4.817,-7.346 -6.707,-15.83 -6.914,-24.969 -3.883,12.497 -5.337,25.086 -2.305,37.838 -7.727,-10.952 -9.241,-23.493 -5.954,-37.262 -18.375,-0.319 -36.75,-0.64 -55.125,-0.96 -2.818,11.332 -2.176,22.663 1.152,33.996 -5.725,-8.231 -7.785,-20.128 -7.875,-33.996 -1.652,16.755 -5.326,30.303 -11.332,40.142 4.017,-13.316 5.396,-26.633 2.497,-39.951 -16.582,-0.576 -33.164,-1.151 -49.747,-1.728 1.697,13.594 -1.248,26.74 -7.49,39.566 1.717,-10.486 1.484,-20.628 -1.153,-30.346 -0.498,8.313 -3.728,14.35 -8.835,18.823 5.076,-15.531 5.47,-28.547 0,-38.415 64.088,-6.531 128.176,-13.061 192.264,-19.591 50.899,0.063 101.799,0.128 152.696,0.192 C -27.786,-22.537 -13.894,-11.27 0,0"
             style="fill:#77b02c;fill-opacity:1;fill-rule:evenodd;stroke:none"
             id="path57" />
        </g>
        <g
           id="g59"
           transform="translate(538.9434,53.8516)">
          <path
             d="M 0,0 C 3.081,0 5.595,4.948 5.595,11.016 5.595,17.082 3.081,22.03 0,22.03 -3.081,22.03 -5.595,17.082 -5.595,11.016 -5.595,4.948 -3.081,0 0,0"
             style="fill:#f8f4d5;fill-opacity:1;fill-rule:evenodd;stroke:none"
             id="path61" />
        </g>
        <g
           id="g63"
           transform="translate(538.9434,31.8223)">
          <path
             d="m 0,0 c -3.09,0 -5.595,4.932 -5.595,11.015 0,6.083 2.505,11.014 5.595,11.014 3.09,0 5.595,-4.931 5.595,-11.014 C 5.595,4.932 3.09,0 0,0"
             style="fill:#f8f4d5;fill-opacity:1;fill-rule:evenodd;stroke:none"
             id="path65" />
        </g>
        <g
           id="g67"
           transform="translate(510.668,53.8516)">
          <path
             d="m 0,0 c 0,2.407 6.33,4.358 14.138,4.358 7.807,0 14.137,-1.951 14.137,-4.358 0,-2.406 -6.33,-4.358 -14.137,-4.358 C 6.33,-4.358 0,-2.406 0,0"
             style="fill:#f8f4d5;fill-opacity:1;fill-rule:evenodd;stroke:none"
             id="path69" />
        </g>
        <g
           id="g71"
           transform="translate(567.2187,53.8516)">
          <path
             d="m 0,0 c 0,-2.406 -6.328,-4.358 -14.138,-4.358 -7.807,0 -14.137,1.952 -14.137,4.358 0,2.407 6.33,4.358 14.137,4.358 C -6.328,4.358 0,2.407 0,0"
             style="fill:#f8f4d5;fill-opacity:1;fill-rule:evenodd;stroke:none"
             id="path73" />
        </g>
        <g
           id="g75"
           transform="translate(518.9502,69.4287)">
          <path
             d="m 0,0 c 2.185,1.702 8.432,-0.404 13.952,-4.706 5.522,-4.302 8.226,-9.169 6.041,-10.871 -2.184,-1.701 -8.432,0.405 -13.952,4.707 C 0.519,-6.568 -2.185,-1.701 0,0"
             style="fill:#f8f4d5;fill-opacity:1;fill-rule:evenodd;stroke:none"
             id="path77" />
        </g>
        <g
           id="g79"
           transform="translate(558.9375,38.2754)">
          <path
             d="m 0,0 c -2.185,-1.702 -8.432,0.404 -13.953,4.706 -5.521,4.302 -8.226,9.169 -6.041,10.87 2.184,1.702 8.432,-0.404 13.953,-4.706 C -0.519,6.568 2.185,1.701 0,0"
             style="fill:#f8f4d5;fill-opacity:1;fill-rule:evenodd;stroke:none"
             id="path81" />
        </g>
        <g
           id="g83"
           transform="translate(558.9375,69.4287)">
          <path
             d="m 0,0 c 2.185,-1.701 -0.519,-6.568 -6.041,-10.87 -5.521,-4.302 -11.769,-6.408 -13.953,-4.707 -2.185,1.702 0.52,6.569 6.041,10.871 C -8.432,-0.404 -2.185,1.702 0,0"
             style="fill:#f8f4d5;fill-opacity:1;fill-rule:evenodd;stroke:none"
             id="path85" />
        </g>
        <g
           id="g87"
           transform="translate(518.9502,38.2754)">
          <path
             d="m 0,0 c -2.185,1.701 0.519,6.568 6.041,10.87 5.52,4.302 11.768,6.408 13.952,4.706 C 22.178,13.875 19.474,9.008 13.952,4.706 8.432,0.404 2.185,-1.702 0,0"
             style="fill:#f8f4d5;fill-opacity:1;fill-rule:evenodd;stroke:none"
             id="path89" />
        </g>
        <g
           id="g91"
           transform="translate(538.9434,47.9619)">
          <path
             d="M 0,0 C 4.164,0 7.561,2.646 7.561,5.89 7.561,9.135 4.164,11.78 0,11.78 -4.164,11.78 -7.561,9.135 -7.561,5.89 -7.561,2.646 -4.164,0 0,0"
             style="fill:#fbca07;fill-opacity:1;fill-rule:evenodd;stroke:none"
             id="path93" />
        </g>
        <g
           id="g95"
           transform="translate(406.0303,65.376)">
          <path
             d="M 0,0 C 3.081,0 5.595,4.948 5.595,11.016 5.595,17.082 3.081,22.03 0,22.03 -3.081,22.03 -5.595,17.082 -5.595,11.016 -5.595,4.948 -3.081,0 0,0"
             style="fill:#f8f4d5;fill-opacity:1;fill-rule:evenodd;stroke:none"
             id="path97" />
        </g>
        <g
           id="g99"
           transform="translate(406.0303,43.3467)">
          <path
             d="m 0,0 c -3.09,0 -5.595,4.932 -5.595,11.015 0,6.083 2.505,11.014 5.595,11.014 3.09,0 5.595,-4.931 5.595,-11.014 C 5.595,4.932 3.09,0 0,0"
             style="fill:#f8f4d5;fill-opacity:1;fill-rule:evenodd;stroke:none"
             id="path101" />
        </g>
        <g
           id="g103"
           transform="translate(377.7539,65.376)">
          <path
             d="m 0,0 c 0,2.407 6.329,4.358 14.139,4.358 7.807,0 14.137,-1.951 14.137,-4.358 0,-2.407 -6.33,-4.358 -14.137,-4.358 C 6.329,-4.358 0,-2.407 0,0"
             style="fill:#f8f4d5;fill-opacity:1;fill-rule:evenodd;stroke:none"
             id="path105" />
        </g>
        <g
           id="g107"
           transform="translate(434.3057,65.376)">
          <path
             d="m 0,0 c 0,-2.407 -6.33,-4.358 -14.138,-4.358 -7.807,0 -14.137,1.951 -14.137,4.358 0,2.407 6.33,4.358 14.137,4.358 C -6.33,4.358 0,2.407 0,0"
             style="fill:#f8f4d5;fill-opacity:1;fill-rule:evenodd;stroke:none"
             id="path109" />
        </g>
        <g
           id="g111"
           transform="translate(386.0352,80.9531)">
          <path
             d="m 0,0 c 2.185,1.702 8.432,-0.405 13.954,-4.706 5.521,-4.302 8.226,-9.169 6.041,-10.871 -2.185,-1.701 -8.432,0.405 -13.953,4.707 C 0.521,-6.568 -2.185,-1.701 0,0"
             style="fill:#f8f4d5;fill-opacity:1;fill-rule:evenodd;stroke:none"
             id="path113" />
        </g>
        <g
           id="g115"
           transform="translate(426.0244,49.7988)">
          <path
             d="m 0,0 c -2.185,-1.701 -8.433,0.405 -13.953,4.707 -5.521,4.302 -8.227,9.169 -6.041,10.87 2.184,1.702 8.43,-0.405 13.953,-4.706 C -0.521,6.569 2.185,1.702 0,0"
             style="fill:#f8f4d5;fill-opacity:1;fill-rule:evenodd;stroke:none"
             id="path117" />
        </g>
        <g
           id="g119"
           transform="translate(426.0244,80.9531)">
          <path
             d="m 0,0 c 2.185,-1.701 -0.521,-6.568 -6.041,-10.87 -5.523,-4.302 -11.769,-6.408 -13.953,-4.707 -2.186,1.702 0.52,6.569 6.041,10.871 C -8.433,-0.405 -2.185,1.702 0,0"
             style="fill:#f8f4d5;fill-opacity:1;fill-rule:evenodd;stroke:none"
             id="path121" />
        </g>
        <g
           id="g123"
           transform="translate(386.0352,49.7988)">
          <path
             d="m 0,0 c -2.185,1.702 0.521,6.569 6.042,10.871 5.521,4.301 11.768,6.408 13.953,4.706 C 22.18,13.876 19.475,9.009 13.954,4.707 8.432,0.405 2.185,-1.701 0,0"
             style="fill:#f8f4d5;fill-opacity:1;fill-rule:evenodd;stroke:none"
             id="path125" />
        </g>
        <g
           id="g127"
           transform="translate(406.0303,59.4863)">
          <path
             d="M 0,0 C 4.164,0 7.561,2.646 7.561,5.89 7.561,9.135 4.164,11.779 0,11.779 -4.164,11.779 -7.561,9.135 -7.561,5.89 -7.561,2.646 -4.164,0 0,0"
             style="fill:#fbca07;fill-opacity:1;fill-rule:evenodd;stroke:none"
             id="path129" />
        </g>
        <g
           id="g131"
           transform="translate(250.4702,39.5957)">
          <path
             d="m 0,0 c 3.082,0 5.595,4.948 5.595,11.015 0,6.066 -2.513,11.014 -5.595,11.014 -3.081,0 -5.594,-4.948 -5.594,-11.014 C -5.594,4.948 -3.081,0 0,0"
             style="fill:#f8f4d5;fill-opacity:1;fill-rule:evenodd;stroke:none"
             id="path133" />
        </g>
        <g
           id="g135"
           transform="translate(250.4702,17.5664)">
          <path
             d="m 0,0 c -3.09,0 -5.594,4.932 -5.594,11.015 0,6.083 2.504,11.014 5.594,11.014 3.09,0 5.595,-4.931 5.595,-11.014 C 5.595,4.932 3.09,0 0,0"
             style="fill:#f8f4d5;fill-opacity:1;fill-rule:evenodd;stroke:none"
             id="path137" />
        </g>
        <g
           id="g139"
           transform="translate(222.1943,39.5957)">
          <path
             d="m 0,0 c 0,2.407 6.33,4.358 14.138,4.358 7.809,0 14.138,-1.951 14.138,-4.358 0,-2.407 -6.329,-4.359 -14.138,-4.359 C 6.33,-4.359 0,-2.407 0,0"
             style="fill:#f8f4d5;fill-opacity:1;fill-rule:evenodd;stroke:none"
             id="path141" />
        </g>
        <g
           id="g143"
           transform="translate(278.7466,39.5957)">
          <path
             d="m 0,0 c 0,-2.407 -6.33,-4.359 -14.139,-4.359 -7.807,0 -14.137,1.952 -14.137,4.359 0,2.407 6.33,4.358 14.137,4.358 C -6.33,4.358 0,2.407 0,0"
             style="fill:#f8f4d5;fill-opacity:1;fill-rule:evenodd;stroke:none"
             id="path145" />
        </g>
        <g
           id="g147"
           transform="translate(230.4766,55.1729)">
          <path
             d="m 0,0 c 2.184,1.701 8.431,-0.405 13.953,-4.707 5.521,-4.302 8.226,-9.169 6.041,-10.87 -2.185,-1.702 -8.431,0.405 -13.953,4.706 C 0.52,-6.569 -2.185,-1.702 0,0"
             style="fill:#f8f4d5;fill-opacity:1;fill-rule:evenodd;stroke:none"
             id="path149" />
        </g>
        <g
           id="g151"
           transform="translate(270.4648,24.0186)">
          <path
             d="m 0,0 c -2.185,-1.702 -8.432,0.405 -13.954,4.707 -5.52,4.301 -8.226,9.168 -6.041,10.87 2.186,1.701 8.432,-0.405 13.953,-4.707 C -0.521,6.568 2.185,1.702 0,0"
             style="fill:#f8f4d5;fill-opacity:1;fill-rule:evenodd;stroke:none"
             id="path153" />
        </g>
        <g
           id="g155"
           transform="translate(270.4648,55.1729)">
          <path
             d="m 0,0 c 2.185,-1.702 -0.521,-6.569 -6.042,-10.871 -5.521,-4.301 -11.767,-6.408 -13.953,-4.706 -2.185,1.701 0.521,6.568 6.041,10.87 C -8.432,-0.405 -2.185,1.701 0,0"
             style="fill:#f8f4d5;fill-opacity:1;fill-rule:evenodd;stroke:none"
             id="path157" />
        </g>
        <g
           id="g159"
           transform="translate(230.4766,24.0186)">
          <path
             d="m 0,0 c -2.185,1.702 0.52,6.568 6.041,10.87 5.522,4.302 11.768,6.408 13.953,4.707 C 22.179,13.875 19.474,9.008 13.953,4.707 8.431,0.405 2.184,-1.702 0,0"
             style="fill:#f8f4d5;fill-opacity:1;fill-rule:evenodd;stroke:none"
             id="path161" />
        </g>
        <g
           id="g163"
           transform="translate(250.4712,33.7061)">
          <path
             d="M 0,0 C 4.164,0 7.56,2.646 7.56,5.89 7.56,9.135 4.164,11.779 0,11.779 -4.164,11.779 -7.561,9.135 -7.561,5.89 -7.561,2.646 -4.164,0 0,0"
             style="fill:#fbca07;fill-opacity:1;fill-rule:evenodd;stroke:none"
             id="path165" />
        </g>
        <g
           id="g167"
           transform="translate(58.4243,57.8535)">
          <path
             d="m 0,0 c 3.082,0 5.595,4.948 5.595,11.016 0,6.065 -2.513,11.013 -5.595,11.013 -3.081,0 -5.595,-4.948 -5.595,-11.013 C -5.595,4.948 -3.081,0 0,0"
             style="fill:#f8f4d5;fill-opacity:1;fill-rule:evenodd;stroke:none"
             id="path169" />
        </g>
        <g
           id="g171"
           transform="translate(58.4243,35.8242)">
          <path
             d="m 0,0 c -3.09,0 -5.595,4.931 -5.595,11.014 0,6.084 2.505,11.015 5.595,11.015 3.09,0 5.595,-4.931 5.595,-11.015 C 5.595,4.931 3.09,0 0,0"
             style="fill:#f8f4d5;fill-opacity:1;fill-rule:evenodd;stroke:none"
             id="path173" />
        </g>
        <g
           id="g175"
           transform="translate(30.1489,57.8535)">
          <path
             d="m 0,0 c 0,2.407 6.33,4.357 14.138,4.357 7.807,0 14.137,-1.95 14.137,-4.357 0,-2.407 -6.33,-4.359 -14.137,-4.359 C 6.33,-4.359 0,-2.407 0,0"
             style="fill:#f8f4d5;fill-opacity:1;fill-rule:evenodd;stroke:none"
             id="path177" />
        </g>
        <g
           id="g179"
           transform="translate(86.7007,57.8535)">
          <path
             d="m 0,0 c 0,-2.407 -6.33,-4.359 -14.139,-4.359 -7.808,0 -14.137,1.952 -14.137,4.359 0,2.407 6.329,4.357 14.137,4.357 C -6.33,4.357 0,2.407 0,0"
             style="fill:#f8f4d5;fill-opacity:1;fill-rule:evenodd;stroke:none"
             id="path181" />
        </g>
        <g
           id="g183"
           transform="translate(38.4307,73.4307)">
          <path
             d="m 0,0 c 2.184,1.702 8.432,-0.405 13.953,-4.707 5.521,-4.302 8.226,-9.168 6.041,-10.87 -2.185,-1.702 -8.431,0.405 -13.953,4.707 C 0.52,-6.568 -2.185,-1.702 0,0"
             style="fill:#f8f4d5;fill-opacity:1;fill-rule:evenodd;stroke:none"
             id="path185" />
        </g>
        <g
           id="g187"
           transform="translate(78.4185,42.2764)">
          <path
             d="m 0,0 c -2.185,-1.702 -8.432,0.405 -13.953,4.707 -5.521,4.3 -8.226,9.168 -6.041,10.87 2.185,1.702 8.432,-0.405 13.952,-4.707 C -0.52,6.568 2.184,1.702 0,0"
             style="fill:#f8f4d5;fill-opacity:1;fill-rule:evenodd;stroke:none"
             id="path189" />
        </g>
        <g
           id="g191"
           transform="translate(78.4185,73.4307)">
          <path
             d="m 0,0 c 2.184,-1.702 -0.52,-6.568 -6.042,-10.87 -5.52,-4.302 -11.767,-6.409 -13.952,-4.707 -2.185,1.702 0.52,6.568 6.041,10.87 C -8.432,-0.405 -2.185,1.702 0,0"
             style="fill:#f8f4d5;fill-opacity:1;fill-rule:evenodd;stroke:none"
             id="path193" />
        </g>
        <g
           id="g195"
           transform="translate(38.4307,42.2764)">
          <path
             d="m 0,0 c -2.185,1.702 0.52,6.568 6.041,10.87 5.522,4.302 11.768,6.409 13.953,4.707 2.185,-1.702 -0.52,-6.57 -6.041,-10.87 C 8.432,0.405 2.184,-1.702 0,0"
             style="fill:#f8f4d5;fill-opacity:1;fill-rule:evenodd;stroke:none"
             id="path197" />
        </g>
        <g
           id="g199"
           transform="translate(58.4248,51.9639)">
          <path
             d="M 0,0 C 4.164,0 7.561,2.646 7.561,5.89 7.561,9.135 4.164,11.779 0,11.779 -4.164,11.779 -7.56,9.135 -7.56,5.89 -7.56,2.646 -4.164,0 0,0"
             style="fill:#fbca07;fill-opacity:1;fill-rule:evenodd;stroke:none"
             id="path201" />
        </g>
        <g
           id="g203"
           transform="translate(150.3726,84.1191)">
          <path
             d="m 0,0 c 2.076,0 3.77,3.204 3.77,7.133 0,3.929 -1.694,7.133 -3.77,7.133 -2.077,0 -3.771,-3.204 -3.771,-7.133 C -3.771,3.204 -2.077,0 0,0"
             style="fill:#f8f4d5;fill-opacity:1;fill-rule:evenodd;stroke:none"
             id="path205" />
        </g>
        <g
           id="g207"
           transform="translate(150.3716,69.8525)">
          <path
             d="m 0,0 c -2.082,0 -3.77,3.194 -3.77,7.133 0,3.94 1.688,7.133 3.77,7.133 2.083,0 3.771,-3.193 3.771,-7.133 C 3.771,3.194 2.083,0 0,0"
             style="fill:#f8f4d5;fill-opacity:1;fill-rule:evenodd;stroke:none"
             id="path209" />
        </g>
        <g
           id="g211"
           transform="translate(131.3145,84.1182)">
          <path
             d="m 0,0 c 0,1.559 4.266,2.823 9.529,2.823 5.263,0 9.528,-1.264 9.528,-2.823 0,-1.558 -4.265,-2.822 -9.528,-2.822 C 4.266,-2.822 0,-1.558 0,0"
             style="fill:#f8f4d5;fill-opacity:1;fill-rule:evenodd;stroke:none"
             id="path213" />
        </g>
        <g
           id="g215"
           transform="translate(169.4287,84.1182)">
          <path
             d="m 0,0 c 0,-1.558 -4.266,-2.822 -9.528,-2.822 -5.263,0 -9.529,1.264 -9.529,2.822 0,1.559 4.266,2.823 9.529,2.823 C -4.266,2.823 0,1.559 0,0"
             style="fill:#f8f4d5;fill-opacity:1;fill-rule:evenodd;stroke:none"
             id="path217" />
        </g>
        <g
           id="g219"
           transform="translate(136.8965,94.207)">
          <path
             d="m 0,0 c 1.473,1.102 5.683,-0.263 9.404,-3.049 3.721,-2.786 5.544,-5.936 4.071,-7.04 C 12.003,-11.19 7.793,-9.826 4.072,-7.04 0.351,-4.254 -1.472,-1.102 0,0"
             style="fill:#f8f4d5;fill-opacity:1;fill-rule:evenodd;stroke:none"
             id="path221" />
        </g>
        <g
           id="g223"
           transform="translate(163.8467,74.0313)">
          <path
             d="m 0,0 c -1.472,-1.103 -5.682,0.262 -9.403,3.048 -3.721,2.785 -5.544,5.937 -4.072,7.039 1.472,1.103 5.683,-0.261 9.404,-3.047 C -0.35,4.254 1.473,1.102 0,0"
             style="fill:#f8f4d5;fill-opacity:1;fill-rule:evenodd;stroke:none"
             id="path225" />
        </g>
        <g
           id="g227"
           transform="translate(163.8467,94.207)">
          <path
             d="m 0,0 c 1.473,-1.102 -0.35,-4.254 -4.071,-7.04 -3.721,-2.786 -7.932,-4.15 -9.404,-3.049 -1.472,1.104 0.351,4.254 4.072,7.04 C -5.682,-0.263 -1.472,1.102 0,0"
             style="fill:#f8f4d5;fill-opacity:1;fill-rule:evenodd;stroke:none"
             id="path229" />
        </g>
        <g
           id="g231"
           transform="translate(136.8965,74.0313)">
          <path
             d="m 0,0 c -1.472,1.102 0.351,4.254 4.072,7.04 3.721,2.786 7.931,4.15 9.403,3.047 C 14.948,8.985 13.125,5.833 9.404,3.048 5.683,0.262 1.473,-1.103 0,0"
             style="fill:#f8f4d5;fill-opacity:1;fill-rule:evenodd;stroke:none"
             id="path233" />
        </g>
        <g
           id="g235"
           transform="translate(150.3726,80.3047)">
          <path
             d="M 0,0 C 2.806,0 5.095,1.714 5.095,3.814 5.095,5.916 2.806,7.629 0,7.629 -2.807,7.629 -5.096,5.916 -5.096,3.814 -5.096,1.714 -2.807,0 0,0"
             style="fill:#fbca07;fill-opacity:1;fill-rule:evenodd;stroke:none"
             id="path237" />
        </g>
        <g
           id="g239"
           transform="translate(313.4258,87.1309)">
          <path
             d="m 0,0 c 2.076,0 3.771,3.203 3.771,7.133 0,3.928 -1.695,7.133 -3.771,7.133 -2.077,0 -3.771,-3.205 -3.771,-7.133 C -3.771,3.203 -2.077,0 0,0"
             style="fill:#f8f4d5;fill-opacity:1;fill-rule:evenodd;stroke:none"
             id="path241" />
        </g>
        <g
           id="g243"
           transform="translate(313.4258,72.8643)">
          <path
             d="m 0,0 c -2.083,0 -3.771,3.193 -3.771,7.133 0,3.939 1.688,7.133 3.771,7.133 2.082,0 3.771,-3.194 3.771,-7.133 C 3.771,3.193 2.082,0 0,0"
             style="fill:#f8f4d5;fill-opacity:1;fill-rule:evenodd;stroke:none"
             id="path245" />
        </g>
        <g
           id="g247"
           transform="translate(294.3687,87.1299)">
          <path
             d="m 0,0 c 0,1.559 4.265,2.823 9.529,2.823 5.261,0 9.528,-1.264 9.528,-2.823 0,-1.559 -4.267,-2.822 -9.528,-2.822 C 4.265,-2.822 0,-1.559 0,0"
             style="fill:#f8f4d5;fill-opacity:1;fill-rule:evenodd;stroke:none"
             id="path249" />
        </g>
        <g
           id="g251"
           transform="translate(332.4824,87.1299)">
          <path
             d="m 0,0 c 0,-1.559 -4.267,-2.822 -9.528,-2.822 -5.263,0 -9.529,1.263 -9.529,2.822 0,1.559 4.266,2.823 9.529,2.823 C -4.267,2.823 0,1.559 0,0"
             style="fill:#f8f4d5;fill-opacity:1;fill-rule:evenodd;stroke:none"
             id="path253" />
        </g>
        <g
           id="g255"
           transform="translate(299.9492,97.2178)">
          <path
             d="m 0,0 c 1.474,1.102 5.684,-0.262 9.405,-3.048 3.72,-2.786 5.543,-5.937 4.072,-7.04 C 12.004,-11.191 7.793,-9.826 4.071,-7.04 0.352,-4.254 -1.472,-1.103 0,0"
             style="fill:#f8f4d5;fill-opacity:1;fill-rule:evenodd;stroke:none"
             id="path257" />
        </g>
        <g
           id="g259"
           transform="translate(326.9004,77.042)">
          <path
             d="m 0,0 c -1.473,-1.102 -5.683,0.263 -9.403,3.049 -3.722,2.786 -5.544,5.936 -4.072,7.039 1.472,1.102 5.682,-0.262 9.404,-3.048 C -0.35,4.254 1.473,1.102 0,0"
             style="fill:#f8f4d5;fill-opacity:1;fill-rule:evenodd;stroke:none"
             id="path261" />
        </g>
        <g
           id="g263"
           transform="translate(326.9004,97.2178)">
          <path
             d="m 0,0 c 1.473,-1.103 -0.35,-4.254 -4.071,-7.04 -3.722,-2.786 -7.932,-4.151 -9.404,-3.048 -1.472,1.103 0.35,4.254 4.072,7.04 3.72,2.786 7.93,4.15 9.403,3.048"
             style="fill:#f8f4d5;fill-opacity:1;fill-rule:evenodd;stroke:none"
             id="path265" />
        </g>
        <g
           id="g267"
           transform="translate(299.9492,77.042)">
          <path
             d="m 0,0 c -1.472,1.102 0.352,4.254 4.071,7.04 3.722,2.786 7.933,4.15 9.406,3.048 C 14.948,8.985 13.125,5.835 9.405,3.049 5.684,0.263 1.474,-1.102 0,0"
             style="fill:#f8f4d5;fill-opacity:1;fill-rule:evenodd;stroke:none"
             id="path269" />
        </g>
        <g
           id="g271"
           transform="translate(313.4258,83.3154)">
          <path
             d="M 0,0 C 2.806,0 5.095,1.715 5.095,3.816 5.095,5.916 2.806,7.629 0,7.629 -2.808,7.629 -5.096,5.916 -5.096,3.816 -5.096,1.715 -2.808,0 0,0"
             style="fill:#fbca07;fill-opacity:1;fill-rule:evenodd;stroke:none"
             id="path273" />
        </g>
        <g
           id="g275"
           transform="translate(459.1826,113.25)">
          <path
             d="m 0,0 c 2.076,0 3.771,3.204 3.771,7.133 0,3.93 -1.695,7.133 -3.771,7.133 -2.077,0 -3.772,-3.203 -3.772,-7.133 C -3.772,3.204 -2.077,0 0,0"
             style="fill:#f8f4d5;fill-opacity:1;fill-rule:evenodd;stroke:none"
             id="path277" />
        </g>
        <g
           id="g279"
           transform="translate(459.1826,98.9834)">
          <path
             d="m 0,0 c -2.083,0 -3.772,3.194 -3.772,7.133 0,3.94 1.689,7.133 3.772,7.133 2.082,0 3.771,-3.193 3.771,-7.133 C 3.771,3.194 2.082,0 0,0"
             style="fill:#f8f4d5;fill-opacity:1;fill-rule:evenodd;stroke:none"
             id="path281" />
        </g>
        <g
           id="g283"
           transform="translate(440.125,113.249)">
          <path
             d="m 0,0 c 0,1.56 4.266,2.823 9.529,2.823 5.262,0 9.529,-1.263 9.529,-2.823 0,-1.558 -4.267,-2.822 -9.529,-2.822 C 4.266,-2.822 0,-1.558 0,0"
             style="fill:#f8f4d5;fill-opacity:1;fill-rule:evenodd;stroke:none"
             id="path285" />
        </g>
        <g
           id="g287"
           transform="translate(478.2383,113.249)">
          <path
             d="m 0,0 c 0,-1.558 -4.266,-2.822 -9.527,-2.822 -5.263,0 -9.529,1.264 -9.529,2.822 0,1.56 4.266,2.823 9.529,2.823 C -4.266,2.823 0,1.56 0,0"
             style="fill:#f8f4d5;fill-opacity:1;fill-rule:evenodd;stroke:none"
             id="path289" />
        </g>
        <g
           id="g291"
           transform="translate(445.7061,123.3379)">
          <path
             d="m 0,0 c 1.474,1.102 5.684,-0.263 9.405,-3.049 3.72,-2.786 5.543,-5.936 4.072,-7.04 C 12.004,-11.19 7.793,-9.826 4.071,-7.04 0.35,-4.254 -1.472,-1.103 0,0"
             style="fill:#f8f4d5;fill-opacity:1;fill-rule:evenodd;stroke:none"
             id="path293" />
        </g>
        <g
           id="g295"
           transform="translate(472.6572,103.1621)">
          <path
             d="m 0,0 c -1.473,-1.102 -5.683,0.262 -9.403,3.048 -3.721,2.785 -5.544,5.937 -4.072,7.039 1.472,1.103 5.683,-0.261 9.404,-3.047 C -0.35,4.254 1.473,1.103 0,0"
             style="fill:#f8f4d5;fill-opacity:1;fill-rule:evenodd;stroke:none"
             id="path297" />
        </g>
        <g
           id="g299"
           transform="translate(472.6572,123.3379)">
          <path
             d="m 0,0 c 1.473,-1.103 -0.35,-4.254 -4.071,-7.04 -3.721,-2.786 -7.932,-4.15 -9.404,-3.049 -1.472,1.104 0.351,4.254 4.072,7.04 C -5.683,-0.263 -1.473,1.102 0,0"
             style="fill:#f8f4d5;fill-opacity:1;fill-rule:evenodd;stroke:none"
             id="path301" />
        </g>
        <g
           id="g303"
           transform="translate(445.7061,103.1621)">
          <path
             d="m 0,0 c -1.472,1.103 0.35,4.254 4.071,7.04 3.722,2.786 7.933,4.15 9.406,3.047 C 14.948,8.985 13.125,5.833 9.405,3.048 5.684,0.262 1.474,-1.102 0,0"
             style="fill:#f8f4d5;fill-opacity:1;fill-rule:evenodd;stroke:none"
             id="path305" />
        </g>
        <g
           id="g307"
           transform="translate(459.1826,109.4355)">
          <path
             d="M 0,0 C 2.806,0 5.095,1.714 5.095,3.814 5.095,5.916 2.806,7.629 0,7.629 -2.808,7.629 -5.096,5.916 -5.096,3.814 -5.096,1.714 -2.808,0 0,0"
             style="fill:#fbca07;fill-opacity:1;fill-rule:evenodd;stroke:none"
             id="path309" />
        </g>
        <g
           id="g311"
           transform="translate(565.7637,130.7686)">
          <path
             d="m 0,0 c 1.771,0 3.218,2.466 3.218,5.489 0,3.023 -1.447,5.488 -3.218,5.488 -1.773,0 -3.219,-2.465 -3.219,-5.488 C -3.219,2.466 -1.773,0 0,0"
             style="fill:#f8f4d5;fill-opacity:1;fill-rule:evenodd;stroke:none"
             id="path313" />
        </g>
        <g
           id="g315"
           transform="translate(565.7637,119.792)">
          <path
             d="m 0,0 c -1.778,0 -3.219,2.457 -3.219,5.488 0,3.031 1.441,5.489 3.219,5.489 1.777,0 3.218,-2.458 3.218,-5.489 C 3.218,2.457 1.777,0 0,0"
             style="fill:#f8f4d5;fill-opacity:1;fill-rule:evenodd;stroke:none"
             id="path317" />
        </g>
        <g
           id="g319"
           transform="translate(549.498,130.7686)">
          <path
             d="m 0,0 c 0,1.2 3.641,2.172 8.133,2.172 4.491,0 8.133,-0.972 8.133,-2.172 0,-1.199 -3.642,-2.171 -8.133,-2.171 C 3.641,-2.171 0,-1.199 0,0"
             style="fill:#f8f4d5;fill-opacity:1;fill-rule:evenodd;stroke:none"
             id="path321" />
        </g>
        <g
           id="g323"
           transform="translate(582.0293,130.7686)">
          <path
             d="m 0,0 c 0,-1.199 -3.641,-2.171 -8.133,-2.171 -4.491,0 -8.133,0.972 -8.133,2.171 0,1.2 3.642,2.172 8.133,2.172 C -3.641,2.172 0,1.2 0,0"
             style="fill:#f8f4d5;fill-opacity:1;fill-rule:evenodd;stroke:none"
             id="path325" />
        </g>
        <g
           id="g327"
           transform="translate(554.2617,138.5303)">
          <path
             d="m 0,0 c 1.257,0.848 4.851,-0.202 8.027,-2.345 3.175,-2.143 4.732,-4.568 3.475,-5.417 C 10.245,-8.61 6.651,-7.56 3.476,-5.416 0.299,-3.273 -1.257,-0.849 0,0"
             style="fill:#f8f4d5;fill-opacity:1;fill-rule:evenodd;stroke:none"
             id="path329" />
        </g>
        <g
           id="g331"
           transform="translate(577.2656,123.0068)">
          <path
             d="m 0,0 c -1.257,-0.848 -4.851,0.202 -8.027,2.346 -3.176,2.143 -4.732,4.567 -3.475,5.416 1.257,0.848 4.851,-0.201 8.026,-2.345 C -0.301,3.273 1.257,0.848 0,0"
             style="fill:#f8f4d5;fill-opacity:1;fill-rule:evenodd;stroke:none"
             id="path333" />
        </g>
        <g
           id="g335"
           transform="translate(577.2656,138.5303)">
          <path
             d="m 0,0 c 1.257,-0.849 -0.301,-3.273 -3.476,-5.416 -3.175,-2.144 -6.769,-3.194 -8.026,-2.346 -1.257,0.849 0.299,3.274 3.475,5.417 C -4.851,-0.202 -1.257,0.848 0,0"
             style="fill:#f8f4d5;fill-opacity:1;fill-rule:evenodd;stroke:none"
             id="path337" />
        </g>
        <g
           id="g339"
           transform="translate(554.2617,123.0068)">
          <path
             d="M 0,0 C -1.257,0.848 0.299,3.273 3.476,5.417 6.651,7.561 10.245,8.61 11.502,7.762 12.759,6.913 11.202,4.489 8.027,2.346 4.851,0.202 1.257,-0.848 0,0"
             style="fill:#f8f4d5;fill-opacity:1;fill-rule:evenodd;stroke:none"
             id="path341" />
        </g>
        <g
           id="g343"
           transform="translate(565.7637,127.833)">
          <path
             d="M 0,0 C 2.395,0 4.349,1.319 4.349,2.936 4.349,4.552 2.395,5.871 0,5.871 -2.396,5.871 -4.35,4.552 -4.35,2.936 -4.35,1.319 -2.396,0 0,0"
             style="fill:#fbca07;fill-opacity:1;fill-rule:evenodd;stroke:none"
             id="path345" />
        </g>
        <g
           id="g347"
           transform="translate(383.6797,132.8027)">
          <path
             d="m 0,0 c 1.771,0 3.217,2.466 3.217,5.488 0,3.023 -1.446,5.489 -3.217,5.489 -1.773,0 -3.219,-2.466 -3.219,-5.489 C -3.219,2.466 -1.773,0 0,0"
             style="fill:#f8f4d5;fill-opacity:1;fill-rule:evenodd;stroke:none"
             id="path349" />
        </g>
        <g
           id="g351"
           transform="translate(383.6797,121.8262)">
          <path
             d="m 0,0 c -1.778,0 -3.219,2.457 -3.219,5.488 0,3.03 1.441,5.489 3.219,5.489 1.776,0 3.217,-2.459 3.217,-5.489 C 3.217,2.457 1.776,0 0,0"
             style="fill:#f8f4d5;fill-opacity:1;fill-rule:evenodd;stroke:none"
             id="path353" />
        </g>
        <g
           id="g355"
           transform="translate(367.4131,132.8027)">
          <path
             d="m 0,0 c 0,1.199 3.642,2.171 8.134,2.171 4.491,0 8.133,-0.972 8.133,-2.171 0,-1.2 -3.642,-2.172 -8.133,-2.172 C 3.642,-2.172 0,-1.2 0,0"
             style="fill:#f8f4d5;fill-opacity:1;fill-rule:evenodd;stroke:none"
             id="path357" />
        </g>
        <g
           id="g359"
           transform="translate(399.9453,132.8027)">
          <path
             d="m 0,0 c 0,-1.2 -3.642,-2.172 -8.133,-2.172 -4.493,0 -8.133,0.972 -8.133,2.172 0,1.199 3.64,2.171 8.133,2.171 C -3.642,2.171 0,1.199 0,0"
             style="fill:#f8f4d5;fill-opacity:1;fill-rule:evenodd;stroke:none"
             id="path361" />
        </g>
        <g
           id="g363"
           transform="translate(372.1777,140.5645)">
          <path
             d="m 0,0 c 1.257,0.848 4.851,-0.203 8.025,-2.346 3.176,-2.143 4.734,-4.568 3.477,-5.416 C 10.245,-8.61 6.651,-7.561 3.475,-5.417 0.299,-3.273 -1.257,-0.85 0,0"
             style="fill:#f8f4d5;fill-opacity:1;fill-rule:evenodd;stroke:none"
             id="path365" />
        </g>
        <g
           id="g367"
           transform="translate(395.1816,125.041)">
          <path
             d="m 0,0 c -1.257,-0.849 -4.85,0.201 -8.027,2.345 -3.176,2.143 -4.732,4.568 -3.475,5.417 1.257,0.847 4.851,-0.202 8.025,-2.346 C -0.301,3.272 1.256,0.848 0,0"
             style="fill:#f8f4d5;fill-opacity:1;fill-rule:evenodd;stroke:none"
             id="path369" />
        </g>
        <g
           id="g371"
           transform="translate(395.1816,140.5645)">
          <path
             d="m 0,0 c 1.256,-0.85 -0.301,-3.273 -3.477,-5.417 -3.174,-2.144 -6.768,-3.193 -8.025,-2.345 -1.257,0.848 0.299,3.273 3.475,5.416 C -4.85,-0.203 -1.257,0.848 0,0"
             style="fill:#f8f4d5;fill-opacity:1;fill-rule:evenodd;stroke:none"
             id="path373" />
        </g>
        <g
           id="g375"
           transform="translate(372.1777,125.041)">
          <path
             d="M 0,0 C -1.257,0.848 0.299,3.272 3.475,5.416 6.651,7.56 10.245,8.609 11.502,7.762 12.759,6.913 11.201,4.488 8.025,2.345 4.851,0.201 1.257,-0.849 0,0"
             style="fill:#f8f4d5;fill-opacity:1;fill-rule:evenodd;stroke:none"
             id="path377" />
        </g>
        <g
           id="g379"
           transform="translate(383.6797,129.8682)">
          <path
             d="M 0,0 C 2.395,0 4.349,1.317 4.349,2.935 4.349,4.552 2.395,5.869 0,5.869 -2.397,5.869 -4.35,4.552 -4.35,2.935 -4.35,1.317 -2.397,0 0,0"
             style="fill:#fbca07;fill-opacity:1;fill-rule:evenodd;stroke:none"
             id="path381" />
        </g>
        <g
           id="g383"
           transform="translate(242.0205,117.832)">
          <path
             d="m 0,0 c 1.773,0 3.219,2.466 3.219,5.488 0,3.023 -1.446,5.489 -3.219,5.489 -1.773,0 -3.218,-2.466 -3.218,-5.489 C -3.218,2.466 -1.773,0 0,0"
             style="fill:#f8f4d5;fill-opacity:1;fill-rule:evenodd;stroke:none"
             id="path385" />
        </g>
        <g
           id="g387"
           transform="translate(242.0205,106.8555)">
          <path
             d="m 0,0 c -1.777,0 -3.218,2.457 -3.218,5.488 0,3.031 1.441,5.488 3.218,5.488 1.777,0 3.219,-2.457 3.219,-5.488 C 3.219,2.457 1.777,0 0,0"
             style="fill:#f8f4d5;fill-opacity:1;fill-rule:evenodd;stroke:none"
             id="path389" />
        </g>
        <g
           id="g391"
           transform="translate(225.7544,117.8311)">
          <path
             d="m 0,0 c 0,1.2 3.641,2.172 8.133,2.172 4.491,0 8.133,-0.972 8.133,-2.172 0,-1.199 -3.642,-2.171 -8.133,-2.171 C 3.641,-2.171 0,-1.199 0,0"
             style="fill:#f8f4d5;fill-opacity:1;fill-rule:evenodd;stroke:none"
             id="path393" />
        </g>
        <g
           id="g395"
           transform="translate(258.2861,117.8311)">
          <path
             d="m 0,0 c 0,-1.199 -3.641,-2.171 -8.133,-2.171 -4.492,0 -8.133,0.972 -8.133,2.171 0,1.2 3.641,2.172 8.133,2.172 C -3.641,2.172 0,1.2 0,0"
             style="fill:#f8f4d5;fill-opacity:1;fill-rule:evenodd;stroke:none"
             id="path397" />
        </g>
        <g
           id="g399"
           transform="translate(230.5186,125.5938)">
          <path
             d="m 0,0 c 1.257,0.848 4.851,-0.202 8.027,-2.346 3.176,-2.143 4.731,-4.568 3.475,-5.417 C 10.245,-8.61 6.651,-7.561 3.476,-5.417 0.299,-3.273 -1.257,-0.849 0,0"
             style="fill:#f8f4d5;fill-opacity:1;fill-rule:evenodd;stroke:none"
             id="path401" />
        </g>
        <g
           id="g403"
           transform="translate(253.522,110.0703)">
          <path
             d="m 0,0 c -1.256,-0.849 -4.851,0.201 -8.027,2.345 -3.176,2.143 -4.731,4.568 -3.475,5.416 1.257,0.848 4.851,-0.201 8.027,-2.345 C -0.299,3.273 1.257,0.848 0,0"
             style="fill:#f8f4d5;fill-opacity:1;fill-rule:evenodd;stroke:none"
             id="path405" />
        </g>
        <g
           id="g407"
           transform="translate(253.522,125.5938)">
          <path
             d="m 0,0 c 1.257,-0.849 -0.299,-3.273 -3.475,-5.417 -3.176,-2.144 -6.77,-3.193 -8.027,-2.346 -1.256,0.849 0.299,3.274 3.475,5.417 C -4.851,-0.202 -1.256,0.848 0,0"
             style="fill:#f8f4d5;fill-opacity:1;fill-rule:evenodd;stroke:none"
             id="path409" />
        </g>
        <g
           id="g411"
           transform="translate(230.5186,110.0703)">
          <path
             d="M 0,0 C -1.257,0.848 0.299,3.273 3.476,5.416 6.651,7.56 10.245,8.609 11.502,7.761 12.758,6.913 11.203,4.488 8.027,2.345 4.851,0.201 1.257,-0.849 0,0"
             style="fill:#f8f4d5;fill-opacity:1;fill-rule:evenodd;stroke:none"
             id="path413" />
        </g>
        <g
           id="g415"
           transform="translate(242.0205,114.8975)">
          <path
             d="M 0,0 C 2.396,0 4.349,1.317 4.349,2.934 4.349,4.552 2.396,5.869 0,5.869 -2.395,5.869 -4.349,4.552 -4.349,2.934 -4.349,1.317 -2.395,0 0,0"
             style="fill:#fbca07;fill-opacity:1;fill-rule:evenodd;stroke:none"
             id="path417" />
        </g>
        <g
           id="g419"
           transform="translate(63.0098,122.5205)">
          <path
             d="m 0,0 c 1.772,0 3.218,2.466 3.218,5.488 0,3.024 -1.446,5.489 -3.218,5.489 -1.773,0 -3.219,-2.465 -3.219,-5.489 C -3.219,2.466 -1.773,0 0,0"
             style="fill:#f8f4d5;fill-opacity:1;fill-rule:evenodd;stroke:none"
             id="path421" />
        </g>
        <g
           id="g423"
           transform="translate(63.0093,111.5439)">
          <path
             d="m 0,0 c -1.777,0 -3.218,2.457 -3.218,5.488 0,3.031 1.441,5.489 3.218,5.489 1.777,0 3.219,-2.458 3.219,-5.489 C 3.219,2.457 1.777,0 0,0"
             style="fill:#f8f4d5;fill-opacity:1;fill-rule:evenodd;stroke:none"
             id="path425" />
        </g>
        <g
           id="g427"
           transform="translate(46.7437,122.5205)">
          <path
             d="m 0,0 c 0,1.199 3.642,2.172 8.133,2.172 4.491,0 8.133,-0.973 8.133,-2.172 0,-1.199 -3.642,-2.173 -8.133,-2.173 C 3.642,-2.173 0,-1.199 0,0"
             style="fill:#f8f4d5;fill-opacity:1;fill-rule:evenodd;stroke:none"
             id="path429" />
        </g>
        <g
           id="g431"
           transform="translate(79.2754,122.5205)">
          <path
             d="m 0,0 c 0,-1.199 -3.642,-2.173 -8.133,-2.173 -4.492,0 -8.133,0.974 -8.133,2.173 0,1.199 3.641,2.172 8.133,2.172 C -3.642,2.172 0,1.199 0,0"
             style="fill:#f8f4d5;fill-opacity:1;fill-rule:evenodd;stroke:none"
             id="path433" />
        </g>
        <g
           id="g435"
           transform="translate(51.5078,130.2822)">
          <path
             d="m 0,0 c 1.257,0.848 4.851,-0.202 8.026,-2.345 3.177,-2.144 4.733,-4.569 3.475,-5.417 C 10.245,-8.61 6.651,-7.561 3.475,-5.417 0.299,-3.274 -1.257,-0.849 0,0"
             style="fill:#f8f4d5;fill-opacity:1;fill-rule:evenodd;stroke:none"
             id="path437" />
        </g>
        <g
           id="g439"
           transform="translate(74.5107,114.7588)">
          <path
             d="m 0,0 c -1.256,-0.848 -4.85,0.201 -8.026,2.346 -3.177,2.141 -4.732,4.567 -3.475,5.416 1.257,0.847 4.85,-0.203 8.026,-2.347 C -0.299,3.272 1.257,0.848 0,0"
             style="fill:#f8f4d5;fill-opacity:1;fill-rule:evenodd;stroke:none"
             id="path441" />
        </g>
        <g
           id="g443"
           transform="translate(74.5107,130.2822)">
          <path
             d="m 0,0 c 1.257,-0.849 -0.299,-3.274 -3.475,-5.417 -3.176,-2.144 -6.769,-3.193 -8.026,-2.345 -1.257,0.848 0.298,3.273 3.475,5.417 C -4.85,-0.202 -1.256,0.848 0,0"
             style="fill:#f8f4d5;fill-opacity:1;fill-rule:evenodd;stroke:none"
             id="path445" />
        </g>
        <g
           id="g447"
           transform="translate(51.5078,114.7588)">
          <path
             d="m 0,0 c -1.257,0.848 0.299,3.272 3.475,5.415 3.176,2.144 6.77,3.194 8.026,2.347 C 12.759,6.913 11.203,4.487 8.026,2.346 4.851,0.201 1.257,-0.848 0,0"
             style="fill:#f8f4d5;fill-opacity:1;fill-rule:evenodd;stroke:none"
             id="path449" />
        </g>
        <g
           id="g451"
           transform="translate(63.0098,119.585)">
          <path
             d="M 0,0 C 2.396,0 4.349,1.318 4.349,2.936 4.349,4.552 2.396,5.87 0,5.87 -2.396,5.87 -4.35,4.552 -4.35,2.936 -4.35,1.318 -2.396,0 0,0"
             style="fill:#fbca07;fill-opacity:1;fill-rule:evenodd;stroke:none"
             id="path453" />
        </g>
        <g
           id="g455"
           transform="translate(151.8149,152.5938)">
          <path
             d="M 0,0 C 1.513,0 2.747,1.779 2.747,3.962 2.747,6.143 1.513,7.923 0,7.923 -1.513,7.923 -2.747,6.143 -2.747,3.962 -2.747,1.779 -1.513,0 0,0"
             style="fill:#f8f4d5;fill-opacity:1;fill-rule:evenodd;stroke:none"
             id="path457" />
        </g>
        <g
           id="g459"
           transform="translate(151.8149,144.6699)">
          <path
             d="m 0,0 c -1.518,0 -2.747,1.774 -2.747,3.961 0,2.188 1.229,3.963 2.747,3.963 1.517,0 2.747,-1.775 2.747,-3.963 C 2.747,1.774 1.517,0 0,0"
             style="fill:#f8f4d5;fill-opacity:1;fill-rule:evenodd;stroke:none"
             id="path461" />
        </g>
        <g
           id="g463"
           transform="translate(137.9307,152.5938)">
          <path
             d="m 0,0 c 0,0.865 3.108,1.567 6.942,1.567 3.834,0 6.942,-0.702 6.942,-1.567 0,-0.866 -3.108,-1.568 -6.942,-1.568 C 3.108,-1.568 0,-0.866 0,0"
             style="fill:#f8f4d5;fill-opacity:1;fill-rule:evenodd;stroke:none"
             id="path465" />
        </g>
        <g
           id="g467"
           transform="translate(165.6982,152.5938)">
          <path
             d="m 0,0 c 0,-0.866 -3.107,-1.568 -6.942,-1.568 -3.833,0 -6.941,0.702 -6.941,1.568 0,0.865 3.108,1.567 6.941,1.567 C -3.107,1.567 0,0.865 0,0"
             style="fill:#f8f4d5;fill-opacity:1;fill-rule:evenodd;stroke:none"
             id="path469" />
        </g>
        <g
           id="g471"
           transform="translate(141.9976,158.1963)">
          <path
             d="M 0,0 C 1.073,0.612 4.14,-0.145 6.851,-1.693 9.562,-3.24 10.89,-4.991 9.817,-5.602 8.744,-6.215 5.677,-5.457 2.966,-3.91 0.255,-2.362 -1.072,-0.611 0,0"
             style="fill:#f8f4d5;fill-opacity:1;fill-rule:evenodd;stroke:none"
             id="path473" />
        </g>
        <g
           id="g475"
           transform="translate(161.6313,146.9902)">
          <path
             d="M 0,0 C -1.072,-0.612 -4.14,0.147 -6.85,1.693 -9.561,3.24 -10.89,4.991 -9.816,5.604 -8.744,6.215 -5.677,5.457 -2.966,3.91 -0.255,2.362 1.074,0.613 0,0"
             style="fill:#f8f4d5;fill-opacity:1;fill-rule:evenodd;stroke:none"
             id="path477" />
        </g>
        <g
           id="g479"
           transform="translate(161.6313,158.1963)">
          <path
             d="m 0,0 c 1.074,-0.611 -0.255,-2.362 -2.966,-3.91 -2.711,-1.547 -5.778,-2.305 -6.85,-1.692 -1.074,0.611 0.255,2.362 2.966,3.909 C -4.14,-0.145 -1.072,0.612 0,0"
             style="fill:#f8f4d5;fill-opacity:1;fill-rule:evenodd;stroke:none"
             id="path481" />
        </g>
        <g
           id="g483"
           transform="translate(141.9976,146.9902)">
          <path
             d="M 0,0 C -1.072,0.613 0.255,2.362 2.966,3.91 5.677,5.457 8.744,6.215 9.817,5.604 10.89,4.991 9.562,3.24 6.851,1.693 4.14,0.147 1.073,-0.612 0,0"
             style="fill:#f8f4d5;fill-opacity:1;fill-rule:evenodd;stroke:none"
             id="path485" />
        </g>
        <g
           id="g487"
           transform="translate(151.8149,150.4756)">
          <path
             d="M 0,0 C 2.044,0 3.712,0.951 3.712,2.118 3.712,3.285 2.044,4.236 0,4.236 -2.044,4.236 -3.712,3.285 -3.712,2.118 -3.712,0.951 -2.044,0 0,0"
             style="fill:#fbca07;fill-opacity:1;fill-rule:evenodd;stroke:none"
             id="path489" />
        </g>
        <g
           id="g491"
           transform="translate(295.0737,165.2002)">
          <path
             d="M 0,0 C 1.513,0 2.748,1.779 2.748,3.961 2.748,6.144 1.513,7.923 0,7.923 -1.513,7.923 -2.746,6.144 -2.746,3.961 -2.746,1.779 -1.513,0 0,0"
             style="fill:#f8f4d5;fill-opacity:1;fill-rule:evenodd;stroke:none"
             id="path493" />
        </g>
        <g
           id="g495"
           transform="translate(295.0737,157.2754)">
          <path
             d="M 0,0 C -1.517,0 -2.746,1.773 -2.746,3.962 -2.746,6.15 -1.517,7.923 0,7.923 1.518,7.923 2.748,6.15 2.748,3.962 2.748,1.773 1.518,0 0,0"
             style="fill:#f8f4d5;fill-opacity:1;fill-rule:evenodd;stroke:none"
             id="path497" />
        </g>
        <g
           id="g499"
           transform="translate(281.1914,165.1982)">
          <path
             d="m 0,0 c 0,0.867 3.107,1.568 6.941,1.568 3.834,0 6.941,-0.701 6.941,-1.568 0,-0.865 -3.107,-1.566 -6.941,-1.566 C 3.107,-1.566 0,-0.865 0,0"
             style="fill:#f8f4d5;fill-opacity:1;fill-rule:evenodd;stroke:none"
             id="path501" />
        </g>
        <g
           id="g503"
           transform="translate(308.958,165.1982)">
          <path
             d="m 0,0 c 0,-0.865 -3.107,-1.566 -6.941,-1.566 -3.834,0 -6.943,0.701 -6.943,1.566 0,0.867 3.109,1.568 6.943,1.568 C -3.107,1.568 0,0.867 0,0"
             style="fill:#f8f4d5;fill-opacity:1;fill-rule:evenodd;stroke:none"
             id="path505" />
        </g>
        <g
           id="g507"
           transform="translate(285.2578,170.8018)">
          <path
             d="M 0,0 C 1.073,0.611 4.139,-0.146 6.85,-1.693 9.561,-3.24 10.889,-4.99 9.816,-5.604 8.743,-6.215 5.676,-5.457 2.966,-3.91 0.255,-2.363 -1.073,-0.612 0,0"
             style="fill:#f8f4d5;fill-opacity:1;fill-rule:evenodd;stroke:none"
             id="path509" />
        </g>
        <g
           id="g511"
           transform="translate(304.8916,159.5967)">
          <path
             d="M 0,0 C -1.073,-0.613 -4.141,0.145 -6.852,1.693 -9.562,3.24 -10.891,4.99 -9.818,5.602 -8.745,6.215 -5.677,5.457 -2.967,3.91 -0.256,2.362 1.072,0.612 0,0"
             style="fill:#f8f4d5;fill-opacity:1;fill-rule:evenodd;stroke:none"
             id="path513" />
        </g>
        <g
           id="g515"
           transform="translate(304.8916,170.8018)">
          <path
             d="m 0,0 c 1.072,-0.612 -0.256,-2.363 -2.967,-3.91 -2.71,-1.547 -5.778,-2.305 -6.851,-1.694 -1.073,0.614 0.256,2.364 2.966,3.911 C -4.141,-0.146 -1.073,0.611 0,0"
             style="fill:#f8f4d5;fill-opacity:1;fill-rule:evenodd;stroke:none"
             id="path517" />
        </g>
        <g
           id="g519"
           transform="translate(285.2578,159.5967)">
          <path
             d="M 0,0 C -1.073,0.612 0.255,2.362 2.966,3.91 5.676,5.457 8.743,6.215 9.816,5.602 10.889,4.99 9.561,3.24 6.85,1.693 4.139,0.145 1.073,-0.613 0,0"
             style="fill:#f8f4d5;fill-opacity:1;fill-rule:evenodd;stroke:none"
             id="path521" />
        </g>
        <g
           id="g523"
           transform="translate(295.0737,163.0801)">
          <path
             d="M 0,0 C 2.044,0 3.713,0.952 3.713,2.12 3.713,3.286 2.044,4.238 0,4.238 -2.044,4.238 -3.711,3.286 -3.711,2.12 -3.711,0.952 -2.044,0 0,0"
             style="fill:#fbca07;fill-opacity:1;fill-rule:evenodd;stroke:none"
             id="path525" />
        </g>
        <g
           id="g527"
           transform="translate(481.3818,163.9697)">
          <path
             d="M 0,0 C 1.514,0 2.747,1.779 2.747,3.961 2.747,6.144 1.514,7.923 0,7.923 -1.513,7.923 -2.747,6.144 -2.747,3.961 -2.747,1.779 -1.513,0 0,0"
             style="fill:#f8f4d5;fill-opacity:1;fill-rule:evenodd;stroke:none"
             id="path529" />
        </g>
        <g
           id="g531"
           transform="translate(481.3818,156.0449)">
          <path
             d="m 0,0 c -1.517,0 -2.747,1.773 -2.747,3.962 0,2.188 1.23,3.961 2.747,3.961 1.518,0 2.747,-1.773 2.747,-3.961 C 2.747,1.773 1.518,0 0,0"
             style="fill:#f8f4d5;fill-opacity:1;fill-rule:evenodd;stroke:none"
             id="path533" />
        </g>
        <g
           id="g535"
           transform="translate(467.498,163.9678)">
          <path
             d="m 0,0 c 0,0.867 3.108,1.568 6.942,1.568 3.833,0 6.942,-0.701 6.942,-1.568 0,-0.865 -3.109,-1.566 -6.942,-1.566 C 3.108,-1.566 0,-0.865 0,0"
             style="fill:#f8f4d5;fill-opacity:1;fill-rule:evenodd;stroke:none"
             id="path537" />
        </g>
        <g
           id="g539"
           transform="translate(495.2656,163.9678)">
          <path
             d="m 0,0 c 0,-0.865 -3.108,-1.566 -6.942,-1.566 -3.834,0 -6.942,0.701 -6.942,1.566 0,0.867 3.108,1.568 6.942,1.568 C -3.108,1.568 0,0.867 0,0"
             style="fill:#f8f4d5;fill-opacity:1;fill-rule:evenodd;stroke:none"
             id="path541" />
        </g>
        <g
           id="g543"
           transform="translate(471.5645,169.5713)">
          <path
             d="M 0,0 C 1.073,0.611 4.141,-0.146 6.852,-1.693 9.563,-3.24 10.891,-4.99 9.817,-5.604 8.745,-6.215 5.678,-5.457 2.967,-3.91 0.256,-2.363 -1.072,-0.612 0,0"
             style="fill:#f8f4d5;fill-opacity:1;fill-rule:evenodd;stroke:none"
             id="path545" />
        </g>
        <g
           id="g547"
           transform="translate(491.1992,158.3662)">
          <path
             d="M 0,0 C -1.072,-0.613 -4.14,0.145 -6.851,1.693 -9.561,3.24 -10.89,4.99 -9.817,5.602 -8.744,6.215 -5.677,5.457 -2.966,3.91 -0.255,2.362 1.073,0.611 0,0"
             style="fill:#f8f4d5;fill-opacity:1;fill-rule:evenodd;stroke:none"
             id="path549" />
        </g>
        <g
           id="g551"
           transform="translate(491.1992,169.5713)">
          <path
             d="m 0,0 c 1.073,-0.612 -0.255,-2.363 -2.966,-3.91 -2.711,-1.547 -5.778,-2.305 -6.851,-1.694 -1.073,0.614 0.256,2.364 2.966,3.911 C -4.14,-0.146 -1.072,0.611 0,0"
             style="fill:#f8f4d5;fill-opacity:1;fill-rule:evenodd;stroke:none"
             id="path553" />
        </g>
        <g
           id="g555"
           transform="translate(471.5645,158.3662)">
          <path
             d="M 0,0 C -1.072,0.611 0.256,2.362 2.967,3.91 5.678,5.457 8.745,6.215 9.817,5.602 10.891,4.99 9.563,3.24 6.852,1.693 4.141,0.145 1.073,-0.613 0,0"
             style="fill:#f8f4d5;fill-opacity:1;fill-rule:evenodd;stroke:none"
             id="path557" />
        </g>
        <g
           id="g559"
           transform="translate(481.3818,161.8496)">
          <path
             d="M 0,0 C 2.045,0 3.712,0.952 3.712,2.12 3.712,3.286 2.045,4.238 0,4.238 -2.044,4.238 -3.712,3.286 -3.712,2.12 -3.712,0.952 -2.044,0 0,0"
             style="fill:#fbca07;fill-opacity:1;fill-rule:evenodd;stroke:none"
             id="path561" />
        </g>
        <g
           id="g563"
           transform="translate(165.9731,490.1074)">
          <path
             d="m 0,0 c 9.521,0 17.287,7.765 17.287,17.286 0,9.522 -7.766,17.287 -17.287,17.287 -9.521,0 -17.287,-7.765 -17.287,-17.287 C -17.287,7.765 -9.521,0 0,0"
             style="fill:#fcfeff;fill-opacity:1;fill-rule:evenodd;stroke:none"
             id="path565" />
        </g>
        <g
           id="g567"
           transform="translate(185.9487,490.1074)">
          <path
             d="M 0,0 C 12.06,0 21.896,9.836 21.896,21.895 21.896,33.956 12.06,43.792 0,43.792 -12.06,43.792 -21.896,33.956 -21.896,21.895 -21.896,9.836 -12.06,0 0,0"
             style="fill:#fcfeff;fill-opacity:1;fill-rule:evenodd;stroke:none"
             id="path569" />
        </g>
        <g
           id="g571"
           transform="translate(214.3755,477.8145)">
          <path
             d="M 0,0 C 12.906,0 23.433,10.526 23.433,23.433 23.433,36.339 12.906,46.866 0,46.866 -12.907,46.866 -23.433,36.339 -23.433,23.433 -23.433,10.526 -12.907,0 0,0"
             style="fill:#fcfeff;fill-opacity:1;fill-rule:evenodd;stroke:none"
             id="path573" />
        </g>
        <g
           id="g575"
           transform="translate(247.7964,495.4849)">
          <path
             d="m 0,0 c 11.425,0 20.743,9.318 20.743,20.744 0,11.425 -9.318,20.744 -20.743,20.744 -11.426,0 -20.744,-9.319 -20.744,-20.744 C -20.744,9.318 -11.426,0 0,0"
             style="fill:#fcfeff;fill-opacity:1;fill-rule:evenodd;stroke:none"
             id="path577" />
        </g>
        <g
           id="g579"
           transform="translate(327.3135,452.4614)">
          <path
             d="m 0,0 c 11.637,0 21.128,9.491 21.128,21.128 0,11.636 -9.491,21.128 -21.128,21.128 -11.637,0 -21.128,-9.492 -21.128,-21.128 C -21.128,9.491 -11.637,0 0,0"
             style="fill:#fcfeff;fill-opacity:1;fill-rule:evenodd;stroke:none"
             id="path581" />
        </g>
        <g
           id="g583"
           transform="translate(353.7549,452.3408)">
          <path
             d="M 0,0 C 11.46,0 20.808,9.348 20.808,20.809 20.808,32.27 11.46,41.617 0,41.617 -11.462,41.617 -20.81,32.27 -20.81,20.809 -20.81,9.348 -11.462,0 0,0"
             style="fill:#fcfeff;fill-opacity:1;fill-rule:evenodd;stroke:none"
             id="path585" />
        </g>
        <g
           id="g587"
           transform="translate(383.7822,464.7534)">
          <path
             d="m 0,0 c 11.425,0 20.744,9.318 20.744,20.744 0,11.425 -9.319,20.743 -20.744,20.743 -11.425,0 -20.744,-9.318 -20.744,-20.743 C -20.744,9.318 -11.425,0 0,0"
             style="fill:#fcfeff;fill-opacity:1;fill-rule:evenodd;stroke:none"
             id="path589" />
        </g>
        <g
           id="g591"
           transform="translate(443.708,525.4487)">
          <path
             d="m 0,0 c 7.194,0 13.061,5.867 13.061,13.061 0,7.193 -5.867,13.061 -13.061,13.061 -7.192,0 -13.06,-5.868 -13.06,-13.061 C -13.06,5.867 -7.192,0 0,0"
             style="fill:#fcfeff;fill-opacity:1;fill-rule:evenodd;stroke:none"
             id="path593" />
        </g>
        <g
           id="g595"
           transform="translate(471.3672,520.0703)">
          <path
             d="M 0,0 C 14.388,0 26.122,11.734 26.122,26.122 26.122,40.509 14.388,52.244 0,52.244 -14.388,52.244 -26.122,40.509 -26.122,26.122 -26.122,11.734 -14.388,0 0,0"
             style="fill:#fcfeff;fill-opacity:1;fill-rule:evenodd;stroke:none"
             id="path597" />
        </g>
        <g
           id="g599"
           transform="translate(498.6406,526.2163)">
          <path
             d="M 0,0 C 8.676,0 15.751,7.075 15.751,15.75 15.751,24.425 8.676,31.5 0,31.5 -8.674,31.5 -15.749,24.425 -15.749,15.75 -15.749,7.075 -8.674,0 0,0"
             style="fill:#fcfeff;fill-opacity:1;fill-rule:evenodd;stroke:none"
             id="path601" />
        </g>
        <g
           id="g603"
           transform="translate(474.8242,548.4971)">
          <path
             d="M 0,0 29.609,-4.898 59.218,-9.796 H 0 -59.217 l 29.609,4.898 z"
             style="fill:#fcfeff;fill-opacity:1;fill-rule:evenodd;stroke:none"
             id="path605" />
        </g>
        <g
           id="g607"
           transform="translate(348.2109,481.9844)">
          <path
             d="m 0,0 43.326,-6.194 43.326,-6.195 H 0 -86.651 l 43.325,6.195 z"
             style="fill:#fcfeff;fill-opacity:1;fill-rule:evenodd;stroke:none"
             id="path609" />
        </g>
        <g
           id="g611"
           transform="translate(207.46,521.2227)">
          <path
             d="m 0,0 41.086,-6.482 41.086,-6.483 H 0 -82.171 l 41.085,6.483 z"
             style="fill:#fcfeff;fill-opacity:1;fill-rule:evenodd;stroke:none"
             id="path613" />
        </g>
      </g>
    </g>
  </g>
</svg>
